ScienceGothic-CndCtrS.ufo
<glyph name="exclam" format="2">
  <advance width="498"/>
  <unicode hex="0021"/>
  <outline>
    <contour>
      <point x="-3" y="111" type="line" smooth="yes"/>
      <point x="-18.8466" y="22.7118"/>
      <point x="6.7118" y="-8"/>
      <point x="95" y="-8" type="qcurve" smooth="yes"/>
      <point x="161" y="-8" type="line" smooth="yes"/>
      <point x="248.75" y="-8"/>
      <point x="286.25" y="23.25"/>
      <point x="302" y="111" type="qcurve" smooth="yes"/>
      <point x="321" y="220" type="line" smooth="yes"/>
      <point x="336.092" y="306.779"/>
      <point x="309.288" y="337"/>
      <point x="221" y="337" type="qcurve" smooth="yes"/>
      <point x="155" y="337" type="line" smooth="yes"/>
      <point x="67.25" y="337"/>
      <point x="31" y="306.25"/>
      <point x="16" y="220" type="qcurve" smooth="yes"/>
    </contour>
    <contour>
      <point x="193" y="462" type="line"/>
      <point x="228" y="462" type="line"/>
      <point x="527" y="1400" type="line"/>
      <point x="222" y="1400" type="line"/>
    </contour>
  </outline>
</glyph>
<glyph name="quotedbl" format="2">
  <advance width="793"/>
  <unicode hex="0022"/>
  <outline>
    <contour>
      <point x="197" y="1256" type="line"/>
      <point x="207" y="855" type="line"/>
      <point x="319" y="855" type="line"/>
      <point x="469" y="1256" type="line"/>
      <point x="486" y="1355" type="line" smooth="yes"/>
      <point x="501" y="1442"/>
      <point x="481" y="1472"/>
      <point x="408" y="1472" type="qcurve" smooth="yes"/>
      <point x="334" y="1472" type="line" smooth="yes"/>
      <point x="261" y="1472"/>
      <point x="229" y="1442"/>
      <point x="214" y="1355" type="qcurve" smooth="yes"/>
    </contour>
    <contour>
      <point x="527" y="1256" type="line"/>
      <point x="537" y="855" type="line"/>
      <point x="649" y="855" type="line"/>
      <point x="799" y="1256" type="line"/>
      <point x="816" y="1355" type="line" smooth="yes"/>
      <point x="831" y="1442"/>
      <point x="811" y="1472"/>
      <point x="738" y="1472" type="qcurve" smooth="yes"/>
      <point x="664" y="1472" type="line" smooth="yes"/>
      <point x="591" y="1472"/>
      <point x="559" y="1442"/>
      <point x="544" y="1355" type="qcurve" smooth="yes"/>
    </contour>
  </outline>
</glyph>
<glyph name="numbersign" format="2">
  <advance width="578"/>
  <unicode hex="0023"/>
  <outline>
    <contour>
      <point x="-3" y="318" type="line"/>
      <point x="401" y="318" type="line"/>
      <point x="456" y="542" type="line"/>
      <point x="52" y="542" type="line"/>
    </contour>
    <contour>
      <point x="129" y="859" type="line"/>
      <point x="533" y="859" type="line"/>
      <point x="588" y="1083" type="line"/>
      <point x="184" y="1083" type="line"/>
    </contour>
    <contour>
      <point x="15" y="0" type="line"/>
      <point x="48" y="0" type="line"/>
      <point x="392" y="1400" type="line"/>
      <point x="359" y="1400" type="line"/>
    </contour>
    <contour>
      <point x="192" y="0" type="line"/>
      <point x="225" y="0" type="line"/>
      <point x="569" y="1400" type="line"/>
      <point x="536" y="1400" type="line"/>
    </contour>
  </outline>
  <guideline angle="0" x="0" y="334"/>
  <guideline angle="0" x="0" y="875"/>
</glyph>
<glyph name="dollar" format="2">
  <advance width="814"/>
  <unicode hex="0024"/>
  <outline>
    <contour>
      <point x="229" y="-160" type="line"/>
      <point x="297" y="-160" type="line"/>
      <point x="328" y="20" type="line"/>
      <point x="331" y="20" type="line" smooth="yes"/>
      <point x="394" y="20"/>
      <point x="508.844" y="43"/>
      <point x="602.406" y="106"/>
      <point x="669.625" y="217.5"/>
      <point x="685" y="306" type="qcurve" smooth="yes"/>
      <point x="711" y="452" type="line" smooth="yes"/>
      <point x="726" y="538.25"/>
      <point x="694.062" y="645.438"/>
      <point x="625.438" y="705.062"/>
      <point x="532.75" y="726"/>
      <point x="487" y="726" type="qcurve" smooth="yes"/>
      <point x="452" y="726" type="line"/>
      <point x="560" y="1344" type="line"/>
      <point x="595" y="1344" type="line"/>
      <point x="595" y="1344"/>
      <point x="595" y="1344"/>
      <point x="595" y="1344" type="qcurve"/>
      <point x="533" y="990" type="line"/>
      <point x="794" y="1040" type="line"/>
      <point x="805" y="1106" type="line" smooth="yes"/>
      <point x="820" y="1191.5"/>
      <point x="783.469" y="1298.5"/>
      <point x="709.781" y="1358.5"/>
      <point x="613.625" y="1380"/>
      <point x="569" y="1380" type="qcurve" smooth="yes"/>
      <point x="566" y="1380" type="line"/>
      <point x="597" y="1560" type="line"/>
      <point x="529" y="1560" type="line"/>
      <point x="498" y="1380" type="line"/>
      <point x="495" y="1380" type="line" smooth="yes"/>
      <point x="444" y="1380"/>
      <point x="338.125" y="1358.5"/>
      <point x="245.875" y="1298.5"/>
      <point x="176" y="1191.5"/>
      <point x="161" y="1106" type="qcurve" smooth="yes"/>
      <point x="139" y="978" type="line" smooth="yes"/>
      <point x="123.625" y="889.5"/>
      <point x="148.906" y="777.375"/>
      <point x="212.844" y="713.625"/>
      <point x="306.75" y="690"/>
      <point x="360" y="690" type="qcurve" smooth="yes"/>
      <point x="377" y="690" type="line"/>
      <point x="267" y="56" type="line"/>
      <point x="210" y="56" type="line"/>
      <point x="210" y="56"/>
      <point x="210" y="56"/>
      <point x="210" y="56" type="qcurve"/>
      <point x="277" y="444" type="line"/>
      <point x="16" y="392" type="line"/>
      <point x="1" y="306" type="line" smooth="yes"/>
      <point x="-14.375" y="217.5"/>
      <point x="9.5" y="106"/>
      <point x="78.5" y="43"/>
      <point x="187.875" y="20"/>
      <point x="258" y="20" type="qcurve" smooth="yes"/>
      <point x="260" y="20" type="line"/>
    </contour>
    <contour>
      <point x="384" y="726" type="line"/>
      <point x="347" y="726" type="line"/>
      <point x="347" y="726"/>
      <point x="347" y="726"/>
      <point x="347" y="726" type="qcurve"/>
      <point x="455" y="1344" type="line"/>
      <point x="455" y="1344"/>
      <point x="455" y="1344"/>
      <point x="455" y="1344" type="qcurve"/>
      <point x="492" y="1344" type="line"/>
    </contour>
    <contour>
      <point x="335" y="56" type="line"/>
      <point x="445" y="690" type="line"/>
      <point x="500" y="690" type="line"/>
      <point x="500" y="690"/>
      <point x="500" y="690"/>
      <point x="500" y="690" type="qcurve"/>
      <point x="390" y="56" type="line"/>
      <point x="390" y="56"/>
      <point x="390" y="56"/>
      <point x="390" y="56" type="qcurve"/>
    </contour>
  </outline>
</glyph>
<glyph name="percent" format="2">
  <advance width="1525"/>
  <unicode hex="0025"/>
  <outline>
    <contour>
      <point x="326.757" y="614" type="qcurve" smooth="yes"/>
      <point x="351.757" y="614" type="line" smooth="yes"/>
      <point x="457.401" y="614"/>
      <point x="593.805" y="677.301"/>
      <point x="613.824" y="792" type="qcurve" smooth="yes"/>
      <point x="694.633" y="1255" type="line" smooth="yes"/>
      <point x="713.861" y="1365.17"/>
      <point x="591.227" y="1424"/>
      <point x="493.129" y="1424" type="qcurve" smooth="yes"/>
      <point x="468.129" y="1424" type="line" smooth="yes"/>
      <point x="368.522" y="1424"/>
      <point x="227.861" y="1365.17"/>
      <point x="208.633" y="1255" type="qcurve" smooth="yes"/>
      <point x="127.824" y="792" type="line" smooth="yes"/>
      <point x="108.069" y="678.81"/>
      <point x="220.359" y="614"/>
    </contour>
    <contour>
      <point x="303.215" y="651" type="line"/>
      <point x="303.215" y="651"/>
      <point x="303.215" y="651"/>
      <point x="303.215" y="651" type="qcurve"/>
      <point x="431.671" y="1387" type="line"/>
      <point x="431.671" y="1387"/>
      <point x="431.671" y="1387"/>
      <point x="431.671" y="1387" type="qcurve"/>
      <point x="517.671" y="1387" type="line"/>
      <point x="517.671" y="1387"/>
      <point x="517.671" y="1387"/>
      <point x="517.671" y="1387" type="qcurve"/>
      <point x="389.215" y="651" type="line"/>
      <point x="389.215" y="651"/>
      <point x="389.215" y="651"/>
      <point x="389.215" y="651" type="qcurve"/>
    </contour>
    <contour>
      <point x="324" y="0" type="line"/>
      <point x="357" y="0" type="line"/>
      <point x="1205" y="1400" type="line"/>
      <point x="1172" y="1400" type="line"/>
    </contour>
    <contour>
      <point x="1039.31" y="-13" type="qcurve" smooth="yes"/>
      <point x="1064.31" y="-13" type="line" smooth="yes"/>
      <point x="1169.96" y="-13"/>
      <point x="1306.36" y="50.3008"/>
      <point x="1326.38" y="165" type="qcurve" smooth="yes"/>
      <point x="1407.19" y="628" type="line" smooth="yes"/>
      <point x="1426.42" y="738.172"/>
      <point x="1303.78" y="797"/>
      <point x="1205.69" y="797" type="qcurve" smooth="yes"/>
      <point x="1180.69" y="797" type="line" smooth="yes"/>
      <point x="1081.08" y="797"/>
      <point x="940.418" y="738.172"/>
      <point x="921.19" y="628" type="qcurve" smooth="yes"/>
      <point x="840.381" y="165" type="line" smooth="yes"/>
      <point x="820.626" y="51.81"/>
      <point x="932.916" y="-13"/>
    </contour>
    <contour>
      <point x="1015.77" y="24" type="line"/>
      <point x="1015.77" y="24"/>
      <point x="1015.77" y="24"/>
      <point x="1015.77" y="24" type="qcurve"/>
      <point x="1144.23" y="760" type="line"/>
      <point x="1144.23" y="760"/>
      <point x="1144.23" y="760"/>
      <point x="1144.23" y="760" type="qcurve"/>
      <point x="1230.23" y="760" type="line"/>
      <point x="1230.23" y="760"/>
      <point x="1230.23" y="760"/>
      <point x="1230.23" y="760" type="qcurve"/>
      <point x="1101.77" y="24" type="line"/>
      <point x="1101.77" y="24"/>
      <point x="1101.77" y="24"/>
      <point x="1101.77" y="24" type="qcurve"/>
    </contour>
  </outline>
</glyph>
<glyph name="ampersand" format="2">
  <advance width="976"/>
  <unicode hex="0026"/>
  <outline>
    <contour>
      <point x="127" y="-10" type="qcurve" smooth="yes"/>
      <point x="195" y="-10" type="line" smooth="yes"/>
      <point x="224" y="-10"/>
      <point x="276" y="2"/>
      <point x="329" y="31"/>
      <point x="383" y="77"/>
      <point x="413" y="110" type="qcurve" smooth="yes"/>
      <point x="510" y="219" type="line"/>
      <point x="584" y="0" type="line"/>
      <point x="856" y="0" type="line"/>
      <point x="710" y="430" type="line"/>
      <point x="899" y="641" type="line"/>
      <point x="884" y="678" type="line"/>
      <point x="696" y="469" type="line"/>
      <point x="492" y="1074" type="line"/>
      <point x="492" y="1074"/>
      <point x="492" y="1074"/>
      <point x="492" y="1074" type="qcurve"/>
      <point x="546" y="1382" type="line"/>
      <point x="546" y="1382"/>
      <point x="546" y="1382"/>
      <point x="546" y="1382" type="qcurve"/>
      <point x="659" y="1382" type="line"/>
      <point x="659" y="1382"/>
      <point x="659" y="1382"/>
      <point x="659" y="1382" type="qcurve"/>
      <point x="600" y="1042" type="line"/>
      <point x="832" y="1088" type="line"/>
      <point x="846" y="1168" type="line" smooth="yes"/>
      <point x="868" y="1295"/>
      <point x="743" y="1418"/>
      <point x="610" y="1418" type="qcurve" smooth="yes"/>
      <point x="580" y="1418" type="line" smooth="yes"/>
      <point x="443" y="1418"/>
      <point x="274" y="1277"/>
      <point x="250" y="1140" type="qcurve"/>
      <point x="246" y="1120" type="line"/>
      <point x="236" y="1063"/>
      <point x="251" y="962"/>
      <point x="283" y="866"/>
      <point x="325" y="772"/>
      <point x="341" y="723" type="qcurve"/>
      <point x="137" y="512" type="line" smooth="yes"/>
      <point x="60" y="433"/>
      <point x="-45" y="277"/>
      <point x="-57" y="205" type="qcurve" smooth="yes"/>
      <point x="-62" y="176" type="line" smooth="yes"/>
      <point x="-70" y="128"/>
      <point x="-58" y="58"/>
      <point x="-13" y="12"/>
      <point x="67" y="-10"/>
    </contour>
    <contour>
      <point x="180" y="26" type="line"/>
      <point x="180" y="26"/>
      <point x="180" y="26"/>
      <point x="180" y="26" type="qcurve"/>
      <point x="281" y="609" type="line"/>
      <point x="281" y="609"/>
      <point x="281" y="609"/>
      <point x="281" y="609" type="qcurve"/>
      <point x="354" y="685" type="line"/>
      <point x="498" y="259" type="line"/>
      <point x="382" y="130" type="line" smooth="yes"/>
      <point x="325" y="67"/>
      <point x="239" y="26"/>
      <point x="201" y="26" type="qcurve" smooth="yes"/>
    </contour>
  </outline>
</glyph>
<glyph name="quotesingle" format="2">
  <advance width="464"/>
  <unicode hex="0027"/>
  <outline>
    <contour>
      <point x="194" y="1236" type="line"/>
      <point x="204" y="835" type="line"/>
      <point x="316" y="835" type="line"/>
      <point x="466" y="1236" type="line"/>
      <point x="483" y="1335" type="line" smooth="yes"/>
      <point x="498.092" y="1421.78"/>
      <point x="478.196" y="1452"/>
      <point x="405" y="1452" type="qcurve" smooth="yes"/>
      <point x="331" y="1452" type="line" smooth="yes"/>
      <point x="257.804" y="1452"/>
      <point x="226.092" y="1421.78"/>
      <point x="211" y="1335" type="qcurve" smooth="yes"/>
    </contour>
  </outline>
</glyph>
<glyph name="parenleft" format="2">
  <advance width="502"/>
  <unicode hex="0028"/>
  <outline>
    <contour>
      <point x="331" y="-256" type="line"/>
      <point x="299" y="-161"/>
      <point x="267" y="-35"/>
      <point x="270" y="129"/>
      <point x="308" y="379"/>
      <point x="346" y="597" type="qcurve" smooth="yes"/>
      <point x="384" y="815"/>
      <point x="433" y="1063"/>
      <point x="487" y="1225"/>
      <point x="563" y="1352"/>
      <point x="629" y="1448" type="qcurve"/>
      <point x="598" y="1448" type="line"/>
      <point x="494" y="1372"/>
      <point x="317" y="1190"/>
      <point x="179" y="977"/>
      <point x="82" y="734"/>
      <point x="58" y="597" type="qcurve" smooth="yes"/>
      <point x="10" y="322"/>
      <point x="143" y="-111"/>
      <point x="300" y="-256" type="qcurve"/>
    </contour>
  </outline>
</glyph>
<glyph name="parenright" format="2">
  <advance width="502"/>
  <unicode hex="0029"/>
  <outline>
    <contour>
      <point x="141" y="1448" type="line"/>
      <point x="173" y="1353"/>
      <point x="205" y="1227"/>
      <point x="202" y="1063"/>
      <point x="164" y="813"/>
      <point x="126" y="595" type="qcurve" smooth="yes"/>
      <point x="88" y="377"/>
      <point x="39" y="129"/>
      <point x="-15" y="-33"/>
      <point x="-91" y="-160"/>
      <point x="-157" y="-256" type="qcurve"/>
      <point x="-126" y="-256" type="line"/>
      <point x="-22" y="-180"/>
      <point x="155" y="2"/>
      <point x="293" y="215"/>
      <point x="390" y="458"/>
      <point x="414" y="595" type="qcurve" smooth="yes"/>
      <point x="462" y="870"/>
      <point x="329" y="1303"/>
      <point x="172" y="1448" type="qcurve"/>
    </contour>
  </outline>
</glyph>
<glyph name="asterisk" format="2">
  <advance width="573"/>
  <unicode hex="002A"/>
  <outline>
    <contour>
      <point x="304" y="1059" type="line"/>
      <point x="404" y="1059" type="line"/>
      <point x="400" y="1225" type="line"/>
      <point x="500" y="1111" type="line"/>
      <point x="561" y="1185" type="line"/>
      <point x="417" y="1254" type="line"/>
      <point x="590" y="1318" type="line"/>
      <point x="550" y="1397" type="line"/>
      <point x="410" y="1282" type="line"/>
      <point x="472" y="1448" type="line"/>
      <point x="372" y="1448" type="line"/>
      <point x="376" y="1282" type="line"/>
      <point x="277" y="1396" type="line"/>
      <point x="211" y="1323" type="line"/>
      <point x="359" y="1254" type="line"/>
      <point x="185" y="1188" type="line"/>
      <point x="225" y="1109" type="line"/>
      <point x="366" y="1225" type="line"/>
    </contour>
  </outline>
</glyph>
<glyph name="comma" format="2">
  <advance width="499"/>
  <unicode hex="002C"/>
  <outline>
    <contour>
      <point x="24" y="-302" type="line"/>
      <point x="261" y="2" type="line" smooth="yes"/>
      <point x="280" y="26"/>
      <point x="296" y="72"/>
      <point x="304" y="119" type="qcurve" smooth="yes"/>
      <point x="320" y="220" type="line" smooth="yes"/>
      <point x="334" y="307"/>
      <point x="310" y="337"/>
      <point x="222" y="337" type="qcurve" smooth="yes"/>
      <point x="155" y="337" type="line" smooth="yes"/>
      <point x="67" y="337"/>
      <point x="29" y="306"/>
      <point x="15" y="220" type="qcurve" smooth="yes"/>
      <point x="-1" y="119" type="line"/>
      <point x="-17" y="31"/>
      <point x="9" y="0"/>
      <point x="97" y="0" type="qcurve" smooth="yes"/>
      <point x="179" y="0" type="line"/>
      <point x="-3" y="-292" type="line"/>
    </contour>
  </outline>
</glyph>
<glyph name="period" format="2">
  <advance width="496"/>
  <unicode hex="002E"/>
  <outline>
    <contour>
      <point x="-5" y="111" type="line" smooth="yes"/>
      <point x="-20.8466" y="22.7118"/>
      <point x="4.7118" y="-8"/>
      <point x="93" y="-8" type="qcurve" smooth="yes"/>
      <point x="159" y="-8" type="line" smooth="yes"/>
      <point x="246.75" y="-8"/>
      <point x="284.25" y="23.25"/>
      <point x="300" y="111" type="qcurve" smooth="yes"/>
      <point x="319" y="220" type="line" smooth="yes"/>
      <point x="334.092" y="306.779"/>
      <point x="307.288" y="337"/>
      <point x="219" y="337" type="qcurve" smooth="yes"/>
      <point x="153" y="337" type="line" smooth="yes"/>
      <point x="65.25" y="337"/>
      <point x="29" y="306.25"/>
      <point x="14" y="220" type="qcurve" smooth="yes"/>
    </contour>
  </outline>
</glyph>
<glyph name="slash" format="2">
  <advance width="596"/>
  <unicode hex="002F"/>
  <outline>
    <contour>
      <point x="451" y="1430" type="line"/>
      <point x="-90" y="-100" type="line"/>
      <point x="140" y="-100" type="line"/>
      <point x="681" y="1430" type="line"/>
    </contour>
  </outline>
</glyph>
<glyph name="zero" format="2">
  <advance width="925"/>
  <unicode hex="0030"/>
  <outline>
    <contour>
      <point x="321" y="-10" type="qcurve" smooth="yes"/>
      <point x="361" y="-10" type="line" smooth="yes"/>
      <point x="516.448" y="-10"/>
      <point x="716.061" y="97.9144"/>
      <point x="747" y="276" type="qcurve" smooth="yes"/>
      <point x="897" y="1136" type="line" smooth="yes"/>
      <point x="927" y="1307"/>
      <point x="754.5" y="1410"/>
      <point x="609" y="1410" type="qcurve" smooth="yes"/>
      <point x="569" y="1410" type="line" smooth="yes"/>
      <point x="417.5" y="1410"/>
      <point x="217" y="1307"/>
      <point x="187" y="1136" type="qcurve" smooth="yes"/>
      <point x="37" y="276" type="line" smooth="yes"/>
      <point x="6.0614" y="99.4236"/>
      <point x="159.516" y="-10"/>
    </contour>
    <contour>
      <point x="258" y="26" type="line"/>
      <point x="258" y="26"/>
      <point x="258" y="26"/>
      <point x="258" y="26" type="qcurve"/>
      <point x="493" y="1374" type="line"/>
      <point x="493" y="1374"/>
      <point x="493" y="1374"/>
      <point x="493" y="1374" type="qcurve"/>
      <point x="675" y="1374" type="line"/>
      <point x="675" y="1374"/>
      <point x="675" y="1374"/>
      <point x="675" y="1374" type="qcurve"/>
      <point x="440" y="26" type="line"/>
      <point x="440" y="26"/>
      <point x="440" y="26"/>
      <point x="440" y="26" type="qcurve"/>
    </contour>
  </outline>
</glyph>
<glyph name="one" format="2">
  <advance width="594"/>
  <unicode hex="0031"/>
  <outline>
    <contour>
      <point x="104" y="0" type="line"/>
      <point x="368" y="0" type="line"/>
      <point x="615" y="1414" type="line"/>
      <point x="145" y="1324" type="line"/>
      <point x="138" y="1287" type="line"/>
      <point x="335" y="1324" type="line"/>
    </contour>
  </outline>
  <guideline angle="90" color="0.4,0.4,0.4,1" name="halfwidth" x="297" y="0"/>
</glyph>
<glyph name="two" format="2">
  <advance width="862"/>
  <unicode hex="0032"/>
  <outline>
    <contour>
      <point x="-12" y="0" type="line"/>
      <point x="390" y="0" type="line" smooth="yes"/>
      <point x="495" y="0"/>
      <point x="675.25" y="101"/>
      <point x="703" y="260" type="qcurve" smooth="yes"/>
      <point x="725" y="382" type="line"/>
      <point x="488" y="426" type="line"/>
      <point x="420" y="36" type="line"/>
      <point x="420" y="36"/>
      <point x="420" y="36"/>
      <point x="420" y="36" type="qcurve"/>
      <point x="248" y="36" type="line"/>
      <point x="345" y="593" type="line" smooth="yes"/>
      <point x="348.018" y="608.092"/>
      <point x="364.706" y="618.153"/>
      <point x="413" y="634" type="qcurve" smooth="yes"/>
      <point x="639" y="708" type="line" smooth="yes"/>
      <point x="682.875" y="722.625"/>
      <point x="740.344" y="772.719"/>
      <point x="776.906" y="837.031"/>
      <point x="797.25" y="912.25"/>
      <point x="804" y="952" type="qcurve" smooth="yes"/>
      <point x="841" y="1162" type="line" smooth="yes"/>
      <point x="851.5" y="1223.5"/>
      <point x="825.938" y="1316.38"/>
      <point x="761.062" y="1378.62"/>
      <point x="660.5" y="1410"/>
      <point x="596" y="1410" type="qcurve" smooth="yes"/>
      <point x="522" y="1410" type="line" smooth="yes"/>
      <point x="457.5" y="1410"/>
      <point x="345.125" y="1373.94"/>
      <point x="257.375" y="1304.56"/>
      <point x="198.25" y="1203.25"/>
      <point x="187" y="1138" type="qcurve" smooth="yes"/>
      <point x="155" y="956" type="line"/>
      <point x="399" y="902" type="line"/>
      <point x="482" y="1374" type="line"/>
      <point x="482" y="1374"/>
      <point x="482" y="1374"/>
      <point x="482" y="1374" type="qcurve"/>
      <point x="624" y="1374" type="line"/>
      <point x="624" y="1374"/>
      <point x="624" y="1374"/>
      <point x="624" y="1374" type="qcurve"/>
      <point x="509" y="717" type="line" smooth="yes"/>
      <point x="506.75" y="704.25"/>
      <point x="492.25" y="695.5"/>
      <point x="451" y="682" type="qcurve" smooth="yes"/>
      <point x="253" y="616" type="line" smooth="yes"/>
      <point x="154" y="583"/>
      <point x="68.25" y="459.5"/>
      <point x="51" y="359" type="qcurve" smooth="yes"/>
    </contour>
  </outline>
</glyph>
<glyph name="three" format="2">
  <advance width="917"/>
  <unicode hex="0033"/>
  <outline>
    <contour>
      <point x="56" y="394" type="line"/>
      <point x="31" y="250" type="line" smooth="yes"/>
      <point x="3" y="96"/>
      <point x="174" y="-10"/>
      <point x="313" y="-10" type="qcurve" smooth="yes"/>
      <point x="351" y="-10" type="line" smooth="yes"/>
      <point x="428" y="-10"/>
      <point x="556" y="7"/>
      <point x="655" y="66"/>
      <point x="722" y="177"/>
      <point x="738" y="270" type="qcurve" smooth="yes"/>
      <point x="771" y="458" type="line" smooth="yes"/>
      <point x="794" y="598"/>
      <point x="682" y="711"/>
      <point x="573" y="720" type="qcurve"/>
      <point x="687" y="738"/>
      <point x="826" y="821"/>
      <point x="851" y="964" type="qcurve" smooth="yes"/>
      <point x="882" y="1142" type="line" smooth="yes"/>
      <point x="896" y="1220"/>
      <point x="865" y="1323"/>
      <point x="790" y="1384"/>
      <point x="679" y="1410"/>
      <point x="611" y="1410" type="qcurve" smooth="yes"/>
      <point x="603" y="1410" type="line" smooth="yes"/>
      <point x="525" y="1410"/>
      <point x="392" y="1401"/>
      <point x="288" y="1353"/>
      <point x="217" y="1253"/>
      <point x="202" y="1162" type="qcurve" smooth="yes"/>
      <point x="177" y="1018" type="line"/>
      <point x="432" y="970" type="line"/>
      <point x="503" y="1374" type="line"/>
      <point x="503" y="1374"/>
      <point x="503" y="1374"/>
      <point x="503" y="1374" type="qcurve"/>
      <point x="571" y="1374" type="line" smooth="yes"/>
      <point x="612" y="1374"/>
      <point x="650" y="1325"/>
      <point x="640" y="1266" type="qcurve" smooth="yes"/>
      <point x="564" y="828" type="line" smooth="yes"/>
      <point x="553" y="770"/>
      <point x="508" y="728"/>
      <point x="464" y="728" type="qcurve" smooth="yes"/>
      <point x="388" y="728" type="line"/>
      <point x="382" y="692" type="line"/>
      <point x="466" y="692" type="line" smooth="yes"/>
      <point x="504" y="692"/>
      <point x="539" y="646"/>
      <point x="530" y="590" type="qcurve" smooth="yes"/>
      <point x="452" y="142" type="line" smooth="yes"/>
      <point x="440" y="75"/>
      <point x="388" y="26"/>
      <point x="338" y="26" type="qcurve" smooth="yes"/>
      <point x="256" y="26" type="line"/>
      <point x="256" y="26"/>
      <point x="256" y="26"/>
      <point x="256" y="26" type="qcurve"/>
      <point x="328" y="442" type="line"/>
    </contour>
  </outline>
</glyph>
<glyph name="five" format="2">
  <advance width="780"/>
  <unicode hex="0035"/>
  <outline>
    <contour>
      <point x="232" y="-12" type="qcurve" smooth="yes"/>
      <point x="298.375" y="-12"/>
      <point x="433.438" y="13.375"/>
      <point x="551.562" y="96.625"/>
      <point x="643.125" y="254"/>
      <point x="666" y="386" type="qcurve" smooth="yes"/>
      <point x="687.375" y="507.5"/>
      <point x="668.906" y="662.875"/>
      <point x="599.344" y="752.125"/>
      <point x="483.75" y="786"/>
      <point x="408" y="786" type="qcurve" smooth="yes"/>
      <point x="359.625" y="786"/>
      <point x="264.906" y="777.875"/>
      <point x="184.844" y="765.125"/>
      <point x="125.75" y="749.5"/>
      <point x="113" y="742" type="qcurve"/>
      <point x="208" y="1156" type="line"/>
      <point x="673" y="1156" type="line"/>
      <point x="767" y="1400" type="line"/>
      <point x="228" y="1400" type="line"/>
      <point x="63" y="686" type="line"/>
      <point x="86.25" y="698.75"/>
      <point x="143.688" y="719.438"/>
      <point x="204.812" y="734.062"/>
      <point x="266" y="742"/>
      <point x="293" y="742" type="qcurve" smooth="yes"/>
      <point x="340.25" y="742"/>
      <point x="398.781" y="702.75"/>
      <point x="424.469" y="617.25"/>
      <point x="418.875" y="482"/>
      <point x="402" y="386" type="qcurve" smooth="yes"/>
      <point x="383.25" y="278"/>
      <point x="332.25" y="140.688"/>
      <point x="272.25" y="62.3125"/>
      <point x="205.5" y="33"/>
      <point x="171" y="33" type="qcurve" smooth="yes"/>
      <point x="137.625" y="33"/>
      <point x="77.375" y="42.9375"/>
      <point x="24.125" y="59.0625"/>
      <point x="-21.875" y="79.5"/>
      <point x="-41" y="90" type="qcurve"/>
      <point x="-28" y="40" type="line"/>
      <point x="-4" y="28"/>
      <point x="62.1562" y="8.75"/>
      <point x="133.594" y="-4.75"/>
      <point x="203.875" y="-12"/>
    </contour>
  </outline>
</glyph>
<glyph name="six" format="2">
  <advance width="836"/>
  <unicode hex="0036"/>
  <outline>
    <contour>
      <point x="302" y="-10" type="qcurve" smooth="yes"/>
      <point x="419" y="-10"/>
      <point x="557" y="21"/>
      <point x="639" y="109"/>
      <point x="683" y="265"/>
      <point x="705" y="390" type="qcurve" smooth="yes"/>
      <point x="720" y="474"/>
      <point x="719" y="600"/>
      <point x="667" y="684"/>
      <point x="554" y="726"/>
      <point x="457" y="726" type="qcurve" smooth="yes"/>
      <point x="406" y="726"/>
      <point x="321" y="717"/>
      <point x="250" y="701"/>
      <point x="191" y="677"/>
      <point x="166" y="662" type="qcurve"/>
      <point x="159" y="622" type="line"/>
      <point x="194" y="643"/>
      <point x="249" y="669"/>
      <point x="300" y="684"/>
      <point x="351" y="690"/>
      <point x="382" y="690" type="qcurve" smooth="yes"/>
      <point x="421" y="690"/>
      <point x="456" y="634"/>
      <point x="463" y="544"/>
      <point x="449" y="432"/>
      <point x="440" y="377" type="qcurve" smooth="yes"/>
      <point x="419" y="259"/>
      <point x="392" y="120"/>
      <point x="366" y="47"/>
      <point x="335" y="26"/>
      <point x="312" y="26" type="qcurve" smooth="yes"/>
      <point x="281" y="26"/>
      <point x="256" y="81"/>
      <point x="261" y="211"/>
      <point x="295" y="429"/>
      <point x="323" y="591" type="qcurve" smooth="yes"/>
      <point x="367" y="839"/>
      <point x="436" y="1147"/>
      <point x="519" y="1318"/>
      <point x="632" y="1378"/>
      <point x="719" y="1378" type="qcurve" smooth="yes"/>
      <point x="726" y="1378"/>
      <point x="741" y="1378"/>
      <point x="754" y="1377"/>
      <point x="765" y="1376"/>
      <point x="768" y="1375" type="qcurve"/>
      <point x="760" y="1410" type="line"/>
      <point x="754" y="1412"/>
      <point x="730" y="1414"/>
      <point x="713" y="1414" type="qcurve" smooth="yes"/>
      <point x="572" y="1414"/>
      <point x="361" y="1310"/>
      <point x="207" y="1107"/>
      <point x="103" y="810"/>
      <point x="69" y="616" type="qcurve" smooth="yes"/>
      <point x="35" y="420"/>
      <point x="10" y="175"/>
      <point x="56" y="39"/>
      <point x="184" y="-10"/>
    </contour>
  </outline>
</glyph>
<glyph name="eight" format="2">
  <advance width="922"/>
  <unicode hex="0038"/>
  <outline>
    <contour>
      <point x="260" y="107" type="qcurve" smooth="yes"/>
      <point x="343" y="585" type="line" smooth="yes"/>
      <point x="347.875" y="612"/>
      <point x="366.5" y="650.312"/>
      <point x="392" y="674.688"/>
      <point x="423.375" y="686"/>
      <point x="441" y="686" type="qcurve" smooth="yes"/>
      <point x="482" y="686" type="line" smooth="yes"/>
      <point x="499.625" y="686"/>
      <point x="527.375" y="674.688"/>
      <point x="544.625" y="650.312"/>
      <point x="549.875" y="612"/>
      <point x="545" y="585" type="qcurve" smooth="yes"/>
      <point x="462" y="107" type="line" smooth="yes"/>
      <point x="455.963" y="72.2884"/>
      <point x="402.712" y="26"/>
      <point x="368" y="26" type="qcurve" smooth="yes"/>
      <point x="326" y="26" type="line" smooth="yes"/>
      <point x="291.288" y="26"/>
      <point x="253.963" y="72.2884"/>
    </contour>
    <contour>
      <point x="650" y="1298" type="qcurve" smooth="yes"/>
      <point x="565" y="812" type="line" smooth="yes"/>
      <point x="556.699" y="765.969"/>
      <point x="509.693" y="722"/>
      <point x="478" y="722" type="qcurve" smooth="yes"/>
      <point x="458" y="722" type="line" smooth="yes"/>
      <point x="426.307" y="722"/>
      <point x="394.699" y="765.969"/>
      <point x="403" y="812" type="qcurve" smooth="yes"/>
      <point x="488" y="1298" type="line" smooth="yes"/>
      <point x="493.282" y="1331.96"/>
      <point x="544.043" y="1374"/>
      <point x="578" y="1374" type="qcurve" smooth="yes"/>
      <point x="587" y="1374" type="line" smooth="yes"/>
      <point x="620.202" y="1374"/>
      <point x="655.282" y="1331.96"/>
    </contour>
    <contour>
      <point x="24" y="270" type="line" smooth="yes"/>
      <point x="10.125" y="189.75"/>
      <point x="42.9688" y="82.1875"/>
      <point x="122.281" y="17.3125"/>
      <point x="241" y="-10"/>
      <point x="313" y="-10" type="qcurve" smooth="yes"/>
      <point x="367" y="-10" type="line" smooth="yes"/>
      <point x="512.5" y="-10"/>
      <point x="726.25" y="109.5"/>
      <point x="754" y="270" type="qcurve" smooth="yes"/>
      <point x="787" y="458" type="line" smooth="yes"/>
      <point x="811" y="594.5"/>
      <point x="735.75" y="698.5"/>
      <point x="681" y="712" type="qcurve"/>
      <point x="735.331" y="728.601"/>
      <point x="836.89" y="859.865"/>
      <point x="855" y="964" type="qcurve" smooth="yes"/>
      <point x="886" y="1142" type="line" smooth="yes"/>
      <point x="907.883" y="1265.75"/>
      <point x="774.975" y="1410"/>
      <point x="615" y="1410" type="qcurve" smooth="yes"/>
      <point x="561" y="1410" type="line" smooth="yes"/>
      <point x="401.025" y="1410"/>
      <point x="217.883" y="1265.75"/>
      <point x="196" y="1142" type="qcurve" smooth="yes"/>
      <point x="165" y="964" type="line" smooth="yes"/>
      <point x="146.89" y="859.865"/>
      <point x="201.196" y="728.601"/>
      <point x="251" y="712" type="qcurve"/>
      <point x="191.387" y="698.417"/>
      <point x="80.3926" y="593.828"/>
      <point x="57" y="458" type="qcurve" smooth="yes"/>
    </contour>
  </outline>
</glyph>
<glyph name="nine" format="2">
  <advance width="858"/>
  <unicode hex="0039"/>
  <outline>
    <contour>
      <point x="556" y="1410" type="qcurve" smooth="yes"/>
      <point x="436" y="1410"/>
      <point x="292" y="1370"/>
      <point x="207" y="1280"/>
      <point x="164" y="1135"/>
      <point x="146" y="1030" type="qcurve" smooth="yes"/>
      <point x="127" y="920"/>
      <point x="125" y="775"/>
      <point x="177" y="689"/>
      <point x="292" y="654"/>
      <point x="389" y="654" type="qcurve" smooth="yes"/>
      <point x="440" y="654"/>
      <point x="525" y="663"/>
      <point x="596" y="679"/>
      <point x="655" y="703"/>
      <point x="680" y="718" type="qcurve"/>
      <point x="687" y="758" type="line"/>
      <point x="653" y="737"/>
      <point x="597" y="711"/>
      <point x="546" y="696"/>
      <point x="494" y="690"/>
      <point x="463" y="690" type="qcurve" smooth="yes"/>
      <point x="424" y="690"/>
      <point x="389" y="747"/>
      <point x="383" y="838"/>
      <point x="398" y="954"/>
      <point x="408" y="1013" type="qcurve" smooth="yes"/>
      <point x="429" y="1134"/>
      <point x="458" y="1277"/>
      <point x="486" y="1352"/>
      <point x="521" y="1374"/>
      <point x="548" y="1374" type="qcurve" smooth="yes"/>
      <point x="575" y="1374"/>
      <point x="596" y="1316"/>
      <point x="587" y="1182"/>
      <point x="553" y="961"/>
      <point x="524" y="799" type="qcurve" smooth="yes"/>
      <point x="481" y="551"/>
      <point x="413" y="246"/>
      <point x="330" y="79"/>
      <point x="218" y="22"/>
      <point x="131" y="22" type="qcurve" smooth="yes"/>
      <point x="124" y="22"/>
      <point x="109" y="22"/>
      <point x="95" y="23"/>
      <point x="84" y="24"/>
      <point x="81" y="25" type="qcurve"/>
      <point x="89" y="-10" type="line"/>
      <point x="95" y="-12"/>
      <point x="120" y="-14"/>
      <point x="137" y="-14" type="qcurve" smooth="yes"/>
      <point x="278" y="-14"/>
      <point x="489" y="90"/>
      <point x="643" y="293"/>
      <point x="747" y="591"/>
      <point x="781" y="784" type="qcurve" smooth="yes"/>
      <point x="815" y="980"/>
      <point x="839" y="1225"/>
      <point x="795" y="1361"/>
      <point x="670" y="1410"/>
    </contour>
  </outline>
</glyph>
<glyph name="colon" format="2">
  <advance width="497"/>
  <unicode hex="003A"/>
  <outline>
    <contour>
      <point x="-4" y="111" type="line" smooth="yes"/>
      <point x="-12" y="67"/>
      <point x="-15" y="19"/>
      <point x="4" y="-4"/>
      <point x="51" y="-8"/>
      <point x="95" y="-8" type="qcurve" smooth="yes"/>
      <point x="161" y="-8" type="line" smooth="yes"/>
      <point x="205" y="-8"/>
      <point x="254" y="-4"/>
      <point x="281" y="19"/>
      <point x="294" y="67"/>
      <point x="301" y="111" type="qcurve" smooth="yes"/>
      <point x="320" y="220" type="line" smooth="yes"/>
      <point x="328" y="263"/>
      <point x="331" y="310"/>
      <point x="312" y="333"/>
      <point x="265" y="337"/>
      <point x="221" y="337" type="qcurve" smooth="yes"/>
      <point x="155" y="337" type="line" smooth="yes"/>
      <point x="111" y="337"/>
      <point x="62" y="333"/>
      <point x="35" y="310"/>
      <point x="23" y="263"/>
      <point x="15" y="220" type="qcurve" smooth="yes"/>
    </contour>
    <contour>
      <point x="114" y="784" type="line" smooth="yes"/>
      <point x="106" y="740"/>
      <point x="102" y="692"/>
      <point x="121" y="669"/>
      <point x="168" y="665"/>
      <point x="212" y="665" type="qcurve" smooth="yes"/>
      <point x="278" y="665" type="line" smooth="yes"/>
      <point x="322" y="665"/>
      <point x="371" y="669"/>
      <point x="398" y="692"/>
      <point x="411" y="740"/>
      <point x="419" y="784" type="qcurve" smooth="yes"/>
      <point x="438" y="893" type="line" smooth="yes"/>
      <point x="446" y="936"/>
      <point x="449" y="983"/>
      <point x="430" y="1006"/>
      <point x="382" y="1010"/>
      <point x="338" y="1010" type="qcurve" smooth="yes"/>
      <point x="272" y="1010" type="line" smooth="yes"/>
      <point x="228" y="1010"/>
      <point x="179" y="1006"/>
      <point x="153" y="983"/>
      <point x="141" y="936"/>
      <point x="133" y="893" type="qcurve" smooth="yes"/>
    </contour>
  </outline>
</glyph>
<glyph name="semicolon" format="2">
  <advance width="497"/>
  <unicode hex="003B"/>
  <outline>
    <contour>
      <point x="-4" y="-290" type="line"/>
      <point x="24" y="-300" type="line"/>
      <point x="276" y="25" type="line"/>
      <point x="192" y="25" type="line"/>
    </contour>
    <contour>
      <point x="-2" y="121" type="line" smooth="yes"/>
      <point x="-17" y="33"/>
      <point x="8" y="2"/>
      <point x="96" y="2" type="qcurve" smooth="yes"/>
      <point x="162" y="2" type="line" smooth="yes"/>
      <point x="250" y="2"/>
      <point x="288" y="33"/>
      <point x="303" y="121" type="qcurve" smooth="yes"/>
      <point x="320" y="220" type="line" smooth="yes"/>
      <point x="335" y="307"/>
      <point x="309" y="337"/>
      <point x="221" y="337" type="qcurve" smooth="yes"/>
      <point x="155" y="337" type="line" smooth="yes"/>
      <point x="67" y="337"/>
      <point x="30" y="306"/>
      <point x="15" y="220" type="qcurve" smooth="yes"/>
    </contour>
    <contour>
      <point x="114" y="784" type="line" smooth="yes"/>
      <point x="98" y="696"/>
      <point x="124" y="665"/>
      <point x="212" y="665" type="qcurve" smooth="yes"/>
      <point x="278" y="665" type="line" smooth="yes"/>
      <point x="366" y="665"/>
      <point x="403" y="696"/>
      <point x="419" y="784" type="qcurve" smooth="yes"/>
      <point x="438" y="893" type="line" smooth="yes"/>
      <point x="453" y="980"/>
      <point x="426" y="1010"/>
      <point x="338" y="1010" type="qcurve" smooth="yes"/>
      <point x="272" y="1010" type="line" smooth="yes"/>
      <point x="184" y="1010"/>
      <point x="148" y="979"/>
      <point x="133" y="893" type="qcurve" smooth="yes"/>
    </contour>
  </outline>
</glyph>
<glyph name="equal" format="2">
  <advance width="954"/>
  <unicode hex="003D"/>
  <outline>
    <contour>
      <point x="70" y="699" type="line"/>
      <point x="77" y="735" type="line"/>
      <point x="893" y="735" type="line"/>
      <point x="886" y="699" type="line"/>
    </contour>
    <contour>
      <point x="26" y="439" type="line"/>
      <point x="33" y="475" type="line"/>
      <point x="849" y="475" type="line"/>
      <point x="842" y="439" type="line"/>
    </contour>
  </outline>
</glyph>
<glyph name="question" format="2">
  <advance width="709"/>
  <unicode hex="003F"/>
  <outline>
    <contour>
      <point x="286" y="462" type="line"/>
      <point x="326" y="462" type="line"/>
      <point x="367" y="700" type="line"/>
      <point x="367" y="700"/>
      <point x="367" y="700"/>
      <point x="367" y="700" type="qcurve"/>
      <point x="478" y="702" type="line" smooth="yes"/>
      <point x="529" y="703"/>
      <point x="645" y="795"/>
      <point x="662" y="892" type="qcurve" smooth="yes"/>
      <point x="716" y="1201" type="line" smooth="yes"/>
      <point x="736" y="1314"/>
      <point x="629" y="1410"/>
      <point x="484" y="1410" type="qcurve" smooth="yes"/>
      <point x="450" y="1410" type="line" smooth="yes"/>
      <point x="307" y="1410"/>
      <point x="165" y="1313"/>
      <point x="146" y="1201" type="qcurve" smooth="yes"/>
      <point x="116" y="1034" type="line"/>
      <point x="344" y="986" type="line"/>
      <point x="412" y="1374" type="line"/>
      <point x="412" y="1374"/>
      <point x="412" y="1374"/>
      <point x="412" y="1374" type="qcurve"/>
      <point x="512" y="1374" type="line"/>
      <point x="512" y="1374"/>
      <point x="512" y="1374"/>
      <point x="512" y="1374" type="qcurve"/>
      <point x="414" y="813" type="line" smooth="yes"/>
      <point x="406" y="771"/>
      <point x="387" y="736"/>
      <point x="349" y="736" type="qcurve" smooth="yes"/>
      <point x="333" y="736" type="line"/>
      <point x="332" y="736"/>
      <point x="333" y="736"/>
      <point x="333" y="736" type="qcurve"/>
    </contour>
    <contour>
      <point x="102" y="111" type="line" smooth="yes"/>
      <point x="87" y="23"/>
      <point x="113" y="-8"/>
      <point x="201" y="-8" type="qcurve" smooth="yes"/>
      <point x="247" y="-8" type="line" smooth="yes"/>
      <point x="335" y="-8"/>
      <point x="372" y="23"/>
      <point x="387" y="111" type="qcurve" smooth="yes"/>
      <point x="406" y="220" type="line" smooth="yes"/>
      <point x="421" y="307"/>
      <point x="395" y="337"/>
      <point x="307" y="337" type="qcurve" smooth="yes"/>
      <point x="261" y="337" type="line" smooth="yes"/>
      <point x="173" y="337"/>
      <point x="136" y="306"/>
      <point x="121" y="220" type="qcurve" smooth="yes"/>
    </contour>
  </outline>
</glyph>
<glyph name="at" format="2">
  <advance width="1420"/>
  <unicode hex="0040"/>
  <outline>
    <contour>
      <point x="6" y="161" type="line" smooth="yes"/>
      <point x="-24.75" y="-13.75"/>
      <point x="137" y="-123"/>
      <point x="296" y="-123" type="qcurve" smooth="yes"/>
      <point x="1011" y="-123" type="line"/>
      <point x="1017" y="-87" type="line"/>
      <point x="302" y="-87" type="line" smooth="yes"/>
      <point x="210.693" y="-87"/>
      <point x="165.945" y="-24.0674"/>
      <point x="175" y="28" type="qcurve" smooth="yes"/>
      <point x="349" y="1024" type="line" smooth="yes"/>
      <point x="360.319" y="1088.14"/>
      <point x="448.35" y="1128"/>
      <point x="514" y="1128" type="qcurve" smooth="yes"/>
      <point x="1070" y="1128" type="line" smooth="yes"/>
      <point x="1162.82" y="1128"/>
      <point x="1208.55" y="1070.03"/>
      <point x="1201" y="1024" type="qcurve" smooth="yes"/>
      <point x="1060" y="216" type="line" smooth="yes"/>
      <point x="1052.45" y="174.497"/>
      <point x="1007.48" y="141"/>
      <point x="969" y="141" type="qcurve" smooth="yes"/>
      <point x="957" y="141" type="line" smooth="yes"/>
      <point x="914.25" y="141"/>
      <point x="884.5" y="175.5"/>
      <point x="892" y="216" type="qcurve" smooth="yes"/>
      <point x="1006" y="872" type="line"/>
      <point x="797" y="872" type="line"/>
      <point x="795" y="858" type="line"/>
      <point x="789.718" y="864.791"/>
      <point x="768.374" y="876"/>
      <point x="748" y="876" type="qcurve" smooth="yes"/>
      <point x="622" y="876" type="line" smooth="yes"/>
      <point x="557.104" y="876"/>
      <point x="455.337" y="803.742"/>
      <point x="441" y="723" type="qcurve" smooth="yes"/>
      <point x="370" y="316" type="line" smooth="yes"/>
      <point x="354.908" y="230.73"/>
      <point x="430.841" y="158"/>
      <point x="498" y="158" type="qcurve" smooth="yes"/>
      <point x="589" y="158" type="line" smooth="yes"/>
      <point x="632.767" y="158"/>
      <point x="686.908" y="186.871"/>
      <point x="702" y="208" type="qcurve"/>
      <point x="716.337" y="171.779"/>
      <point x="793.54" y="113"/>
      <point x="869" y="113" type="qcurve" smooth="yes"/>
      <point x="955" y="113" type="line" smooth="yes"/>
      <point x="1081.02" y="113"/>
      <point x="1247.1" y="184.871"/>
      <point x="1272" y="329" type="qcurve" smooth="yes"/>
      <point x="1371" y="891" type="line" smooth="yes"/>
      <point x="1385.62" y="976.125"/>
      <point x="1353.34" y="1082.41"/>
      <point x="1272.91" y="1141.84"/>
      <point x="1151" y="1163"/>
      <point x="1076" y="1163" type="qcurve" smooth="yes"/>
      <point x="520" y="1163" type="line" smooth="yes"/>
      <point x="370" y="1163"/>
      <point x="163.25" y="1061.25"/>
      <point x="134" y="891" type="qcurve" smooth="yes"/>
    </contour>
    <contour>
      <point x="574" y="190" type="qcurve"/>
      <point x="688" y="844" type="line"/>
      <point x="688" y="844"/>
      <point x="688" y="844"/>
      <point x="688" y="844" type="qcurve"/>
      <point x="792" y="844" type="line"/>
      <point x="694" y="280" type="line" smooth="yes"/>
      <point x="686.454" y="235.479"/>
      <point x="636.767" y="190"/>
      <point x="593" y="190" type="qcurve" smooth="yes"/>
      <point x="574" y="190" type="line"/>
      <point x="574" y="190"/>
      <point x="574" y="190"/>
    </contour>
  </outline>
</glyph>
<glyph name="B" format="2">
  <advance width="909"/>
  <unicode hex="0042"/>
  <anchor x="455" y="1550" name="top"/>
  <anchor x="455" y="-150" name="bottom"/>
  <outline>
    <contour>
      <point x="-11" y="0" type="line"/>
      <point x="373" y="0" type="line" smooth="yes"/>
      <point x="448.75" y="0"/>
      <point x="578.938" y="21.5"/>
      <point x="680.562" y="81.5"/>
      <point x="750" y="188.5"/>
      <point x="765" y="274" type="qcurve" smooth="yes"/>
      <point x="798" y="464" type="line" smooth="yes"/>
      <point x="819.129" y="584.736"/>
      <point x="741.742" y="698.871"/>
      <point x="661" y="720" type="qcurve"/>
      <point x="742.497" y="743.393"/>
      <point x="851.38" y="861.301"/>
      <point x="871" y="976" type="qcurve" smooth="yes"/>
      <point x="898" y="1126" type="line" smooth="yes"/>
      <point x="912.625" y="1211.5"/>
      <point x="880.281" y="1318.5"/>
      <point x="799.469" y="1378.5"/>
      <point x="676.75" y="1400"/>
      <point x="601" y="1400" type="qcurve" smooth="yes"/>
      <point x="233" y="1400" type="line"/>
    </contour>
    <contour>
      <point x="259" y="36" type="line"/>
      <point x="375" y="700" type="line"/>
      <point x="479" y="700" type="line" smooth="yes"/>
      <point x="527.294" y="700"/>
      <point x="567.791" y="656.221"/>
      <point x="561" y="620" type="qcurve" smooth="yes"/>
      <point x="473" y="116" type="line" smooth="yes"/>
      <point x="466.963" y="79.7792"/>
      <point x="411.294" y="36"/>
      <point x="363" y="36" type="qcurve" smooth="yes"/>
    </contour>
    <contour>
      <point x="381" y="736" type="line"/>
      <point x="491" y="1364" type="line"/>
      <point x="579" y="1364" type="line" smooth="yes"/>
      <point x="627.294" y="1364"/>
      <point x="667.037" y="1320.22"/>
      <point x="661" y="1284" type="qcurve" smooth="yes"/>
      <point x="579" y="816" type="line" smooth="yes"/>
      <point x="572.963" y="779.779"/>
      <point x="517.294" y="736"/>
      <point x="469" y="736" type="qcurve" smooth="yes"/>
    </contour>
  </outline>
</glyph>
<glyph name="D" format="2">
  <advance width="917"/>
  <unicode hex="0044"/>
  <anchor x="575" y="1550" name="top"/>
  <anchor x="276" y="-150" name="bottom"/>
  <outline>
    <contour>
      <point x="259" y="36" type="line"/>
      <point x="491" y="1364" type="line"/>
      <point x="565" y="1364" type="line" smooth="yes"/>
      <point x="603.25" y="1364"/>
      <point x="645.406" y="1318.75"/>
      <point x="650.844" y="1180.75"/>
      <point x="618.375" y="926.25"/>
      <point x="582" y="717" type="qcurve" smooth="yes"/>
      <point x="544.125" y="500.25"/>
      <point x="486.656" y="233.25"/>
      <point x="432.094" y="86.25"/>
      <point x="372.75" y="36"/>
      <point x="333" y="36" type="qcurve" smooth="yes"/>
    </contour>
    <contour>
      <point x="-11" y="0" type="line"/>
      <point x="317" y="0" type="line" smooth="yes"/>
      <point x="428.75" y="0"/>
      <point x="591.438" y="48.8125"/>
      <point x="712.562" y="194.688"/>
      <point x="801.75" y="461.75"/>
      <point x="840" y="680" type="qcurve" smooth="yes"/>
      <point x="876" y="887"/>
      <point x="892.312" y="1163.75"/>
      <point x="832.688" y="1330.25"/>
      <point x="687" y="1400"/>
      <point x="561" y="1400" type="qcurve" smooth="yes"/>
      <point x="233" y="1400" type="line"/>
    </contour>
  </outline>
</glyph>
<glyph name="F" format="2">
  <advance width="681"/>
  <unicode hex="0046"/>
  <outline>
    <contour>
      <point x="-11" y="0" type="line"/>
      <point x="253" y="0" type="line"/>
      <point x="375" y="698" type="line"/>
      <point x="655" y="698" type="line"/>
      <point x="661" y="734" type="line"/>
      <point x="381" y="734" type="line"/>
      <point x="491" y="1364" type="line"/>
      <point x="791" y="1364" type="line"/>
      <point x="797" y="1400" type="line"/>
      <point x="233" y="1400" type="line"/>
    </contour>
  </outline>
</glyph>
<glyph name="H" format="2">
  <advance width="945"/>
  <unicode hex="0048"/>
  <anchor x="626" y="1550" name="top"/>
  <anchor x="329" y="-150" name="bottom"/>
  <outline>
    <contour>
      <point x="-11" y="0" type="line"/>
      <point x="253" y="0" type="line"/>
      <point x="377" y="712" type="line"/>
      <point x="579" y="712" type="line"/>
      <point x="455" y="0" type="line"/>
      <point x="719" y="0" type="line"/>
      <point x="963" y="1400" type="line"/>
      <point x="699" y="1400" type="line"/>
      <point x="586" y="748" type="line"/>
      <point x="384" y="748" type="line"/>
      <point x="497" y="1400" type="line"/>
      <point x="233" y="1400" type="line"/>
    </contour>
  </outline>
  <guideline angle="260.1" color="1,0,0,1" x="354" y="0"/>
</glyph>
<glyph name="I" format="2">
  <advance width="476" height="1448"/>
  <unicode hex="0049"/>
  <anchor x="389" y="1550" name="top"/>
  <anchor x="92" y="-150" name="bottom"/>
  <anchor x="24" y="0" name="ogonek"/>
  <outline>
    <contour>
      <point x="-14" y="0" type="line"/>
      <point x="230" y="1400" type="line"/>
      <point x="494" y="1400" type="line"/>
      <point x="250" y="0" type="line"/>
    </contour>
  </outline>
</glyph>
<glyph name="K" format="2">
  <advance width="887"/>
  <unicode hex="004B"/>
  <anchor x="586" y="1550" name="top"/>
  <anchor x="352" y="-150" name="bottom"/>
  <outline>
    <contour>
      <point x="939" y="1400" type="line"/>
      <point x="898" y="1400" type="line"/>
      <point x="374" y="721" type="line"/>
      <point x="379" y="721" type="line"/>
      <point x="497" y="1400" type="line"/>
      <point x="233" y="1400" type="line"/>
      <point x="-11" y="0" type="line"/>
      <point x="253" y="0" type="line"/>
      <point x="370" y="714" type="line"/>
      <point x="359" y="714" type="line"/>
      <point x="473" y="0" type="line"/>
      <point x="767" y="0" type="line"/>
      <point x="584" y="958" type="line"/>
      <point x="414" y="724" type="line"/>
    </contour>
  </outline>
</glyph>
<glyph name="M" format="2">
  <advance width="1087"/>
  <unicode hex="004D"/>
  <anchor x="695" y="1550" name="top"/>
  <anchor x="398" y="-150" name="bottom"/>
  <outline>
    <contour>
      <point x="-11" y="0" type="line"/>
      <point x="27" y="0" type="line"/>
      <point x="205" y="1022" type="line"/>
      <point x="365" y="332" type="line"/>
      <point x="777" y="1033" type="line"/>
      <point x="597" y="0" type="line"/>
      <point x="861" y="0" type="line"/>
      <point x="1105" y="1400" type="line"/>
      <point x="951" y="1400" type="line"/>
      <point x="549" y="716" type="line"/>
      <point x="395" y="1400" type="line"/>
      <point x="233" y="1400" type="line"/>
    </contour>
  </outline>
</glyph>
<glyph name="N" format="2">
  <advance width="810"/>
  <unicode hex="004E"/>
  <anchor x="556" y="1550" name="top"/>
  <anchor x="259" y="-150" name="bottom"/>
  <outline>
    <contour>
      <point x="-14" y="0" type="line"/>
      <point x="22" y="0" type="line"/>
      <point x="185" y="933" type="line"/>
      <point x="466" y="0" type="line"/>
      <point x="584" y="0" type="line"/>
      <point x="828" y="1400" type="line"/>
      <point x="792" y="1400" type="line"/>
      <point x="630" y="467" type="line"/>
      <point x="348" y="1400" type="line"/>
      <point x="230" y="1400" type="line"/>
    </contour>
  </outline>
</glyph>
<glyph name="Q" format="2">
  <advance width="921"/>
  <unicode hex="0051"/>
  <anchor x="461" y="1550" name="top"/>
  <anchor x="461" y="-438" name="bottom"/>
  <outline>
    <contour>
      <point x="177" y="1136" type="qcurve" smooth="yes"/>
      <point x="27" y="276" type="line" smooth="yes"/>
      <point x="-3.9386" y="99.4236"/>
      <point x="157.516" y="-10"/>
      <point x="319" y="-10" type="qcurve" smooth="yes"/>
      <point x="359" y="-10" type="line" smooth="yes"/>
      <point x="520.484" y="-10"/>
      <point x="722.061" y="97.9144"/>
      <point x="753" y="276" type="qcurve" smooth="yes"/>
      <point x="903" y="1136" type="line" smooth="yes"/>
      <point x="933" y="1307"/>
      <point x="758.5" y="1410"/>
      <point x="607" y="1410" type="qcurve" smooth="yes"/>
      <point x="567" y="1410" type="line" smooth="yes"/>
      <point x="415.5" y="1410"/>
      <point x="207" y="1307"/>
    </contour>
    <contour>
      <point x="483" y="1374" type="line"/>
      <point x="483" y="1374"/>
      <point x="483" y="1374"/>
      <point x="483" y="1374" type="qcurve"/>
      <point x="681" y="1374" type="line"/>
      <point x="681" y="1374"/>
      <point x="681" y="1374"/>
      <point x="681" y="1374" type="qcurve"/>
      <point x="446" y="26" type="line"/>
      <point x="446" y="26"/>
      <point x="446" y="26"/>
      <point x="446" y="26" type="qcurve"/>
      <point x="248" y="26" type="line"/>
      <point x="248" y="26"/>
      <point x="248" y="26"/>
      <point x="248" y="26" type="qcurve"/>
    </contour>
    <contour>
      <point x="266" y="-282" type="line"/>
      <point x="434" y="-282" type="line"/>
      <point x="430" y="473" type="line"/>
      <point x="356" y="464" type="line"/>
    </contour>
  </outline>
</glyph>
<glyph name="R" format="2">
  <advance width="882"/>
  <unicode hex="0052"/>
  <anchor x="373" y="-150" name="bottom"/>
  <anchor x="540" y="1550" name="top"/>
  <outline>
    <contour>
      <point x="-11" y="0" type="line"/>
      <point x="253" y="0" type="line"/>
      <point x="348" y="564" type="line"/>
      <point x="328" y="564" type="line"/>
      <point x="472" y="0" type="line"/>
      <point x="756" y="0" type="line"/>
      <point x="569" y="580" type="line"/>
      <point x="569" y="580" type="line"/>
      <point x="657" y="601"/>
      <point x="775" y="718"/>
      <point x="796" y="838" type="qcurve" smooth="yes"/>
      <point x="847" y="1126" type="line" smooth="yes"/>
      <point x="876" y="1297"/>
      <point x="702" y="1400"/>
      <point x="550" y="1400" type="qcurve" smooth="yes"/>
      <point x="233" y="1400" type="line"/>
    </contour>
    <contour>
      <point x="358" y="600" type="line"/>
      <point x="491" y="1364" type="line"/>
      <point x="528" y="1364" type="line" smooth="yes"/>
      <point x="576" y="1364"/>
      <point x="616" y="1320"/>
      <point x="610" y="1284" type="qcurve" smooth="yes"/>
      <point x="505" y="680" type="line" smooth="yes"/>
      <point x="498" y="644"/>
      <point x="443" y="600"/>
      <point x="395" y="600" type="qcurve" smooth="yes"/>
    </contour>
  </outline>
  <guideline angle="90" color="0.4,0.4,0.4,1" name="halfwidth" x="441" y="0"/>
</glyph>
<glyph name="S" format="2">
  <advance width="813"/>
  <unicode hex="0053"/>
  <anchor x="561" y="1560" name="top"/>
  <anchor x="261" y="-160" name="bottom"/>
  <outline>
    <contour>
      <point x="16" y="392" type="line"/>
      <point x="-5" y="276" type="line" smooth="yes"/>
      <point x="-20" y="188"/>
      <point x="2" y="76"/>
      <point x="73" y="13"/>
      <point x="189" y="-10"/>
      <point x="267" y="-10" type="qcurve" smooth="yes"/>
      <point x="305" y="-10" type="line" smooth="yes"/>
      <point x="451" y="-10"/>
      <point x="648" y="99"/>
      <point x="679" y="276" type="qcurve" smooth="yes"/>
      <point x="710" y="452" type="line" smooth="yes"/>
      <point x="725" y="538"/>
      <point x="693" y="645"/>
      <point x="624" y="705"/>
      <point x="532" y="726"/>
      <point x="486" y="726" type="qcurve" smooth="yes"/>
      <point x="346" y="726" type="line"/>
      <point x="346" y="726"/>
      <point x="346" y="726"/>
      <point x="346" y="726" type="qcurve"/>
      <point x="459" y="1374" type="line"/>
      <point x="459" y="1374"/>
      <point x="459" y="1374"/>
      <point x="459" y="1374" type="qcurve"/>
      <point x="599" y="1374" type="line"/>
      <point x="599" y="1374"/>
      <point x="599" y="1374"/>
      <point x="599" y="1374" type="qcurve"/>
      <point x="532" y="990" type="line"/>
      <point x="793" y="1040" type="line"/>
      <point x="809" y="1136" type="line" smooth="yes"/>
      <point x="824" y="1222"/>
      <point x="794" y="1329"/>
      <point x="719" y="1389"/>
      <point x="608" y="1410"/>
      <point x="543" y="1410" type="qcurve" smooth="yes"/>
      <point x="527" y="1410" type="line" smooth="yes"/>
      <point x="462" y="1410"/>
      <point x="344" y="1389"/>
      <point x="248" y="1329"/>
      <point x="180" y="1222"/>
      <point x="165" y="1136" type="qcurve" smooth="yes"/>
      <point x="138" y="978" type="line" smooth="yes"/>
      <point x="123" y="890"/>
      <point x="148" y="777"/>
      <point x="213" y="714"/>
      <point x="307" y="690"/>
      <point x="360" y="690" type="qcurve" smooth="yes"/>
      <point x="500" y="690" type="line"/>
      <point x="500" y="690"/>
      <point x="500" y="690"/>
      <point x="500" y="690" type="qcurve"/>
      <point x="384" y="26" type="line"/>
      <point x="384" y="26"/>
      <point x="384" y="26"/>
      <point x="384" y="26" type="qcurve"/>
      <point x="204" y="26" type="line"/>
      <point x="204" y="26"/>
      <point x="204" y="26"/>
      <point x="204" y="26" type="qcurve"/>
      <point x="277" y="444" type="line"/>
    </contour>
  </outline>
</glyph>
<glyph name="U" format="2">
  <advance width="917"/>
  <unicode hex="0055"/>
  <anchor x="611" y="1550" name="top"/>
  <anchor x="314" y="-150" name="bottom"/>
  <anchor x="359" y="0" name="ogonek"/>
  <anchor x="940" y="1400" name="horn"/>
  <outline>
    <contour>
      <point x="228" y="1400" type="line"/>
      <point x="32" y="276" type="line" smooth="yes"/>
      <point x="17" y="188"/>
      <point x="44" y="76"/>
      <point x="122" y="13"/>
      <point x="245" y="-10"/>
      <point x="324" y="-10" type="qcurve" smooth="yes"/>
      <point x="350" y="-10" type="line" smooth="yes"/>
      <point x="511" y="-10"/>
      <point x="713" y="99"/>
      <point x="744" y="276" type="qcurve" smooth="yes"/>
      <point x="940" y="1400" type="line"/>
      <point x="676" y="1400" type="line"/>
      <point x="437" y="26" type="line"/>
      <point x="437" y="26"/>
      <point x="437" y="26"/>
      <point x="437" y="26" type="qcurve"/>
      <point x="253" y="26" type="line"/>
      <point x="253" y="26"/>
      <point x="253" y="26"/>
      <point x="253" y="26" type="qcurve"/>
      <point x="492" y="1400" type="line"/>
    </contour>
  </outline>
</glyph>
<glyph name="V" format="2">
  <advance width="802"/>
  <unicode hex="0056"/>
  <anchor x="606" y="1550" name="top"/>
  <anchor x="259" y="-150" name="bottom"/>
  <outline>
    <contour>
      <point x="180" y="0" type="line"/>
      <point x="388" y="0" type="line"/>
      <point x="929" y="1400" type="line"/>
      <point x="890" y="1400" type="line"/>
      <point x="426" y="195" type="line"/>
      <point x="386" y="1400" type="line"/>
      <point x="127" y="1400" type="line"/>
    </contour>
  </outline>
</glyph>
<glyph name="W" format="2">
  <advance width="1203"/>
  <unicode hex="0057"/>
  <anchor x="493" y="-150" name="bottom"/>
  <anchor x="754" y="1550" name="top"/>
  <outline>
    <contour>
      <point x="109" y="0" type="line"/>
      <point x="327" y="0" type="line"/>
      <point x="669" y="1065" type="line"/>
      <point x="654" y="0" type="line"/>
      <point x="877" y="0" type="line"/>
      <point x="1329" y="1400" type="line"/>
      <point x="1291" y="1400" type="line"/>
      <point x="918" y="248" type="line"/>
      <point x="933" y="1400" type="line"/>
      <point x="739" y="1400" type="line"/>
      <point x="368" y="250" type="line"/>
      <point x="389" y="1400" type="line"/>
      <point x="127" y="1400" type="line"/>
    </contour>
  </outline>
</glyph>
<glyph name="Y" format="2">
  <advance width="793"/>
  <unicode hex="0059"/>
  <anchor x="679" y="1550" name="top"/>
  <anchor x="316" y="-150" name="bottom"/>
  <outline>
    <contour>
      <point x="147.858" y="0" type="line"/>
      <point x="411.858" y="0" type="line"/>
      <point x="510.858" y="569" type="line"/>
      <point x="919.858" y="1400" type="line"/>
      <point x="879.858" y="1400" type="line"/>
      <point x="498.858" y="626" type="line"/>
      <point x="391.858" y="1400" type="line"/>
      <point x="126.858" y="1400" type="line"/>
      <point x="246.858" y="568" type="line"/>
    </contour>
  </outline>
  <guideline angle="260.14" color="1,0,0,1" x="342" y="0"/>
</glyph>
<glyph name="bracketleft" format="2">
  <advance width="554"/>
  <unicode hex="005B"/>
  <outline>
    <contour>
      <point x="-56" y="-256" type="line"/>
      <point x="378" y="-256" type="line"/>
      <point x="384" y="-224" type="line"/>
      <point x="198" y="-224" type="line"/>
      <point x="484" y="1416" type="line"/>
      <point x="670" y="1416" type="line"/>
      <point x="676" y="1448" type="line"/>
      <point x="242" y="1448" type="line"/>
    </contour>
  </outline>
</glyph>
<glyph name="backslash" format="2">
  <advance width="588"/>
  <unicode hex="005C"/>
  <outline>
    <contour>
      <point x="396" y="1430" type="line"/>
      <point x="180" y="1430" type="line"/>
      <point x="187" y="-100" type="line"/>
      <point x="403" y="-100" type="line"/>
    </contour>
  </outline>
</glyph>
<glyph name="bracketright" format="2">
  <advance width="554"/>
  <unicode hex="005D"/>
  <outline>
    <contour>
      <point x="676" y="1448" type="line"/>
      <point x="242" y="1448" type="line"/>
      <point x="236" y="1416" type="line"/>
      <point x="422" y="1416" type="line"/>
      <point x="136" y="-224" type="line"/>
      <point x="-50" y="-224" type="line"/>
      <point x="-56" y="-256" type="line"/>
      <point x="378" y="-256" type="line"/>
    </contour>
  </outline>
</glyph>
<glyph name="asciicircum" format="2">
  <advance width="512"/>
  <unicode hex="005E"/>
  <outline>
    <contour>
      <point x="40" y="850" type="line"/>
      <point x="81" y="850" type="line"/>
      <point x="297" y="1355" type="line"/>
      <point x="338" y="850" type="line"/>
      <point x="531" y="850" type="line"/>
      <point x="456" y="1400" type="line"/>
      <point x="281" y="1400" type="line"/>
    </contour>
  </outline>
  <guideline angle="0" x="0" y="850"/>
</glyph>
<glyph name="underscore" format="2">
  <advance width="305"/>
  <unicode hex="005F"/>
  <outline>
    <contour>
      <point x="-169" y="-165" type="line"/>
      <point x="175" y="-165" type="line"/>
      <point x="182" y="-129" type="line"/>
      <point x="-162" y="-129" type="line"/>
    </contour>
  </outline>
</glyph>
<glyph name="a" format="2">
  <advance width="744"/>
  <unicode hex="0061"/>
  <anchor x="462" y="1150" name="top"/>
  <anchor x="258" y="-150" name="bottom"/>
  <anchor x="331" y="0" name="ogonek"/>
  <outline>
    <contour>
      <point x="187" y="-6" type="qcurve" smooth="yes"/>
      <point x="221" y="-6" type="line" smooth="yes"/>
      <point x="248" y="-6"/>
      <point x="289" y="8"/>
      <point x="302" y="22" type="qcurve"/>
      <point x="298" y="0" type="line"/>
      <point x="546" y="0" type="line"/>
      <point x="687" y="810" type="line" smooth="yes"/>
      <point x="709" y="934"/>
      <point x="586" y="1006"/>
      <point x="476" y="1006" type="qcurve" smooth="yes"/>
      <point x="378" y="1006" type="line" smooth="yes"/>
      <point x="268" y="1006"/>
      <point x="119" y="934"/>
      <point x="97" y="810" type="qcurve" smooth="yes"/>
      <point x="88" y="754" type="line"/>
      <point x="328" y="708" type="line"/>
      <point x="374" y="974" type="line"/>
      <point x="374" y="974"/>
      <point x="374" y="974"/>
      <point x="374" y="974" type="qcurve"/>
      <point x="468" y="974" type="line"/>
      <point x="468" y="974"/>
      <point x="468" y="974"/>
      <point x="468" y="974" type="qcurve"/>
      <point x="391" y="534" type="line"/>
      <point x="263" y="534" type="line" smooth="yes"/>
      <point x="169" y="534"/>
      <point x="23" y="463"/>
      <point x="1" y="340" type="qcurve" smooth="yes"/>
      <point x="-20" y="218" type="line" smooth="yes"/>
      <point x="-42" y="91"/>
      <point x="71" y="-6"/>
    </contour>
    <contour>
      <point x="195" y="26" type="qcurve"/>
      <point x="278" y="502" type="line"/>
      <point x="278" y="502"/>
      <point x="278" y="502"/>
      <point x="278" y="502" type="qcurve"/>
      <point x="386" y="502" type="line"/>
      <point x="303" y="26" type="line"/>
      <point x="195" y="26" type="line"/>
      <point x="195" y="26"/>
      <point x="195" y="26"/>
    </contour>
  </outline>
  <guideline angle="260.1" color="1,0,0,1" x="318" y="0"/>
</glyph>
<glyph name="b" format="2">
  <advance width="791"/>
  <unicode hex="0062"/>
  <anchor x="563" y="1600" name="top"/>
  <anchor x="257" y="-152" name="bottom"/>
  <outline>
    <contour>
      <point x="-32" y="0" type="line"/>
      <point x="216" y="0" type="line"/>
      <point x="220" y="22" type="line"/>
      <point x="228.301" y="7.6626"/>
      <point x="263.834" y="-6"/>
      <point x="291" y="-6" type="qcurve" smooth="yes"/>
      <point x="343" y="-6" type="line" smooth="yes"/>
      <point x="464.491" y="-6"/>
      <point x="614.117" y="79.718"/>
      <point x="636" y="208" type="qcurve" smooth="yes"/>
      <point x="740" y="802" type="line" smooth="yes"/>
      <point x="761.129" y="929.527"/>
      <point x="632.435" y="1006"/>
      <point x="520" y="1006" type="qcurve" smooth="yes"/>
      <point x="468" y="1006" type="line" smooth="yes"/>
      <point x="435.552" y="1006"/>
      <point x="395.301" y="994.074"/>
      <point x="387" y="982" type="qcurve"/>
      <point x="469" y="1448" type="line"/>
      <point x="221" y="1448" type="line"/>
    </contour>
    <contour>
      <point x="221" y="26" type="line"/>
      <point x="386" y="974" type="line"/>
      <point x="522" y="974" type="line"/>
      <point x="522" y="974"/>
      <point x="522" y="974"/>
      <point x="522" y="974" type="qcurve"/>
      <point x="357" y="26" type="line"/>
      <point x="357" y="26"/>
      <point x="357" y="26"/>
      <point x="357" y="26" type="qcurve"/>
    </contour>
  </outline>
</glyph>
<glyph name="e" format="2">
  <advance width="766"/>
  <unicode hex="0065"/>
  <anchor x="464" y="1150" name="top"/>
  <anchor x="253" y="-150" name="bottom"/>
  <anchor x="253" y="0" name="ogonek"/>
  <outline>
    <contour>
      <point x="-3" y="254" type="line" smooth="yes"/>
      <point x="-27.1472" y="112.135"/>
      <point x="99.08" y="-6"/>
      <point x="250" y="-6" type="qcurve" smooth="yes"/>
      <point x="256" y="-6" type="line" smooth="yes"/>
      <point x="428.049" y="-6"/>
      <point x="594.853" y="113.644"/>
      <point x="619" y="254" type="qcurve" smooth="yes"/>
      <point x="620" y="260" type="line"/>
      <point x="380" y="304" type="line"/>
      <point x="332" y="26" type="line"/>
      <point x="332" y="26"/>
      <point x="332" y="26"/>
      <point x="332" y="26" type="qcurve"/>
      <point x="206" y="26" type="line"/>
      <point x="206" y="26"/>
      <point x="206" y="26"/>
      <point x="206" y="26" type="qcurve"/>
      <point x="286" y="488" type="line"/>
      <point x="660" y="488" type="line"/>
      <point x="711" y="782" type="line" smooth="yes"/>
      <point x="730.62" y="890.662"/>
      <point x="616.337" y="1006"/>
      <point x="479" y="1006" type="qcurve" smooth="yes"/>
      <point x="399" y="1006" type="line" smooth="yes"/>
      <point x="261.663" y="1006"/>
      <point x="108.865" y="893.153"/>
      <point x="90" y="786" type="qcurve" smooth="yes"/>
    </contour>
    <contour>
      <point x="292" y="520" type="line"/>
      <point x="371" y="974" type="line"/>
      <point x="371" y="974"/>
      <point x="371" y="974"/>
      <point x="371" y="974" type="qcurve"/>
      <point x="497" y="974" type="line"/>
      <point x="497" y="974"/>
      <point x="497" y="974"/>
      <point x="497" y="974" type="qcurve"/>
      <point x="418" y="520" type="line"/>
    </contour>
  </outline>
  <guideline angle="0" color="1,0,0,1" x="0" y="-1006"/>
</glyph>
<glyph name="f" format="2">
  <advance width="472"/>
  <unicode hex="0066"/>
  <outline>
    <contour>
      <point x="146" y="1000" type="line"/>
      <point x="98" y="1000" type="line"/>
      <point x="92" y="968" type="line"/>
      <point x="140" y="968" type="line"/>
      <point x="-29" y="0" type="line"/>
      <point x="219" y="0" type="line"/>
      <point x="388" y="968" type="line"/>
      <point x="501" y="968" type="line"/>
      <point x="507" y="1000" type="line"/>
      <point x="394" y="1000" type="line"/>
      <point x="466" y="1416" type="line"/>
      <point x="466" y="1416"/>
      <point x="466" y="1416"/>
      <point x="466" y="1416" type="qcurve"/>
      <point x="599" y="1416" type="line"/>
      <point x="615" y="1448" type="line"/>
      <point x="458" y="1448" type="line" smooth="yes"/>
      <point x="352" y="1448"/>
      <point x="202" y="1328"/>
      <point x="179" y="1194" type="qcurve" smooth="yes"/>
    </contour>
  </outline>
</glyph>
<glyph name="i" format="2">
  <advance width="436"/>
  <unicode hex="0069"/>
  <anchor x="75" y="-150" name="bottom"/>
  <anchor x="302" y="1150" name="top"/>
  <anchor x="-21" y="0" name="ogonek"/>
  <outline>
    <contour>
      <point x="-21" y="0" type="line"/>
      <point x="223" y="0" type="line"/>
      <point x="398" y="1000" type="line"/>
      <point x="154" y="1000" type="line"/>
    </contour>
    <contour>
      <point x="183" y="1230" type="line" smooth="yes"/>
      <point x="171" y="1164"/>
      <point x="191" y="1140"/>
      <point x="257" y="1140" type="qcurve" smooth="yes"/>
      <point x="341" y="1140" type="line" smooth="yes"/>
      <point x="407" y="1140"/>
      <point x="435" y="1164"/>
      <point x="447" y="1230" type="qcurve" smooth="yes"/>
      <point x="461" y="1312" type="line" smooth="yes"/>
      <point x="472" y="1377"/>
      <point x="452" y="1400"/>
      <point x="386" y="1400" type="qcurve" smooth="yes"/>
      <point x="302" y="1400" type="line" smooth="yes"/>
      <point x="236" y="1400"/>
      <point x="208" y="1377"/>
      <point x="197" y="1312" type="qcurve" smooth="yes"/>
    </contour>
  </outline>
</glyph>
<glyph name="j" format="2">
  <advance width="414"/>
  <unicode hex="006A"/>
  <anchor x="293" y="1150" name="top"/>
  <outline>
    <contour>
      <point x="-364" y="-396" type="line"/>
      <point x="-362" y="-428" type="line"/>
      <point x="-174" y="-428" type="line" smooth="yes"/>
      <point x="-89" y="-428"/>
      <point x="31" y="-420"/>
      <point x="115" y="-372"/>
      <point x="168" y="-269"/>
      <point x="185" y="-174" type="qcurve" smooth="yes"/>
      <point x="390" y="1000" type="line"/>
      <point x="142" y="1000" type="line"/>
      <point x="-102" y="-396" type="line"/>
      <point x="-102" y="-396"/>
      <point x="-102" y="-396"/>
      <point x="-102" y="-396" type="qcurve"/>
    </contour>
    <contour>
      <point x="174" y="1230" type="line" smooth="yes"/>
      <point x="162" y="1164"/>
      <point x="182" y="1140"/>
      <point x="248" y="1140" type="qcurve" smooth="yes"/>
      <point x="332" y="1140" type="line" smooth="yes"/>
      <point x="398" y="1140"/>
      <point x="426" y="1164"/>
      <point x="438" y="1230" type="qcurve" smooth="yes"/>
      <point x="452" y="1312" type="line" smooth="yes"/>
      <point x="463" y="1377"/>
      <point x="443" y="1400"/>
      <point x="377" y="1400" type="qcurve" smooth="yes"/>
      <point x="293" y="1400" type="line" smooth="yes"/>
      <point x="227" y="1400"/>
      <point x="199" y="1377"/>
      <point x="188" y="1312" type="qcurve" smooth="yes"/>
    </contour>
  </outline>
  <guideline angle="260.086" x="266" y="1000"/>
  <guideline angle="80.0951" x="185" y="-174"/>
</glyph>
<glyph name="k" format="2">
  <advance width="807"/>
  <unicode hex="006B"/>
  <anchor x="373" y="1598" name="top"/>
  <anchor x="288" y="-150" name="bottom"/>
  <anchor x="-6" y="724" name="left"/>
  <outline>
    <contour>
      <point x="-32" y="0" type="line"/>
      <point x="216" y="0" type="line"/>
      <point x="304" y="506" type="line"/>
      <point x="300" y="506" type="line"/>
      <point x="404" y="0" type="line"/>
      <point x="683" y="0" type="line"/>
      <point x="514" y="743" type="line"/>
      <point x="508" y="723" type="line"/>
      <point x="842" y="1000" type="line"/>
      <point x="799" y="1000" type="line"/>
      <point x="308" y="592" type="line"/>
      <point x="319" y="592" type="line"/>
      <point x="469" y="1448" type="line"/>
      <point x="221" y="1448" type="line"/>
    </contour>
  </outline>
</glyph>
<glyph name="l" format="2">
  <advance width="417"/>
  <unicode hex="006C"/>
  <anchor x="370" y="1598" name="top"/>
  <anchor x="65" y="-150" name="bottom"/>
  <anchor x="465" y="1448" name="right"/>
  <anchor x="419" y="700" name="eldot"/>
  <outline>
    <contour>
      <point x="-32" y="0" type="line"/>
      <point x="212" y="0" type="line"/>
      <point x="465" y="1448" type="line"/>
      <point x="221" y="1448" type="line"/>
    </contour>
  </outline>
</glyph>
<glyph name="m" format="2">
  <advance width="1125"/>
  <unicode hex="006D"/>
  <anchor x="563" y="1150" name="top"/>
  <anchor x="563" y="-150" name="bottom"/>
  <outline>
    <contour>
      <point x="-33" y="0" type="line"/>
      <point x="215" y="0" type="line"/>
      <point x="385" y="974" type="line"/>
      <point x="493" y="974" type="line"/>
      <point x="323" y="0" type="line"/>
      <point x="571" y="0" type="line"/>
      <point x="741" y="974" type="line"/>
      <point x="849" y="974" type="line"/>
      <point x="849" y="974"/>
      <point x="849" y="974"/>
      <point x="849" y="974" type="qcurve"/>
      <point x="679" y="0" type="line"/>
      <point x="927" y="0" type="line"/>
      <point x="1071" y="824" type="line" smooth="yes"/>
      <point x="1085.25" y="905"/>
      <point x="1007.5" y="1006"/>
      <point x="931" y="1006" type="qcurve" smooth="yes"/>
      <point x="786" y="1006" type="line" smooth="yes"/>
      <point x="758.834" y="1006"/>
      <point x="717.828" y="991.583"/>
      <point x="705" y="978" type="qcurve"/>
      <point x="685.38" y="992.337"/>
      <point x="638.411" y="1006"/>
      <point x="612" y="1006" type="qcurve" smooth="yes"/>
      <point x="467" y="1006" type="line" smooth="yes"/>
      <point x="439.834" y="1006"/>
      <point x="398.828" y="991.583"/>
      <point x="386" y="978" type="qcurve"/>
      <point x="390" y="1000" type="line"/>
      <point x="142" y="1000" type="line"/>
    </contour>
  </outline>
</glyph>
<glyph name="n" format="2">
  <advance width="785"/>
  <unicode hex="006E"/>
  <anchor x="478" y="1150" name="top"/>
  <anchor x="251" y="-150" name="bottom"/>
  <outline>
    <contour>
      <point x="-33" y="0" type="line"/>
      <point x="215" y="0" type="line"/>
      <point x="385" y="974" type="line"/>
      <point x="509" y="974" type="line"/>
      <point x="509" y="974"/>
      <point x="509" y="974"/>
      <point x="509" y="974" type="qcurve"/>
      <point x="339" y="0" type="line"/>
      <point x="587" y="0" type="line"/>
      <point x="731" y="824" type="line" smooth="yes"/>
      <point x="745" y="905"/>
      <point x="668" y="1006"/>
      <point x="591" y="1006" type="qcurve" smooth="yes"/>
      <point x="467" y="1006" type="line" smooth="yes"/>
      <point x="440" y="1006"/>
      <point x="399" y="992"/>
      <point x="386" y="978" type="qcurve"/>
      <point x="390" y="1000" type="line"/>
      <point x="142" y="1000" type="line"/>
    </contour>
  </outline>
  <guideline angle="0" x="0" y="988"/>
  <guideline angle="0" x="0" y="870"/>
</glyph>
<glyph name="p" format="2">
  <advance width="786" height="1448"/>
  <unicode hex="0070"/>
  <anchor x="552" y="1598" name="top"/>
  <anchor x="178" y="-578" name="bottom"/>
  <outline>
    <contour>
      <point x="-112" y="-428" type="line"/>
      <point x="138" y="1000" type="line"/>
      <point x="386" y="1000" type="line"/>
      <point x="382" y="978" type="line"/>
      <point x="395" y="992"/>
      <point x="436" y="1006"/>
      <point x="463" y="1006" type="qcurve" smooth="yes"/>
      <point x="515" y="1006" type="line" smooth="yes"/>
      <point x="584" y="1006"/>
      <point x="677" y="982"/>
      <point x="729" y="931"/>
      <point x="743" y="850"/>
      <point x="733" y="792" type="qcurve" smooth="yes"/>
      <point x="631" y="208" type="line" smooth="yes"/>
      <point x="621" y="150"/>
      <point x="578" y="69"/>
      <point x="507" y="18"/>
      <point x="406" y="-6"/>
      <point x="338" y="-6" type="qcurve" smooth="yes"/>
      <point x="286" y="-6" type="line" smooth="yes"/>
      <point x="254" y="-6"/>
      <point x="218" y="6"/>
      <point x="214" y="18" type="qcurve"/>
      <point x="136" y="-428" type="line"/>
    </contour>
    <contour>
      <point x="216" y="26" type="line"/>
      <point x="352" y="26" type="line"/>
      <point x="352" y="26"/>
      <point x="352" y="26"/>
      <point x="352" y="26" type="qcurve"/>
      <point x="517" y="974" type="line"/>
      <point x="517" y="974"/>
      <point x="517" y="974"/>
      <point x="517" y="974" type="qcurve"/>
      <point x="381" y="974" type="line"/>
    </contour>
  </outline>
</glyph>
<glyph name="q" format="2">
  <advance width="787" height="1448"/>
  <unicode hex="0071"/>
  <anchor x="545" y="1598" name="top"/>
  <anchor x="240" y="-150" name="bottom"/>
  <outline>
    <contour>
      <point x="-14" y="208" type="line"/>
      <point x="90" y="802" type="line" smooth="yes"/>
      <point x="99" y="856"/>
      <point x="142" y="933"/>
      <point x="212" y="983"/>
      <point x="314" y="1006"/>
      <point x="382" y="1006" type="qcurve" smooth="yes"/>
      <point x="434" y="1006" type="line" smooth="yes"/>
      <point x="466" y="1006"/>
      <point x="501" y="994"/>
      <point x="505" y="982" type="qcurve"/>
      <point x="509" y="1000" type="line"/>
      <point x="757" y="1000" type="line"/>
      <point x="507" y="-428" type="line"/>
      <point x="259" y="-428" type="line"/>
      <point x="338" y="22" type="line"/>
      <point x="325" y="8"/>
      <point x="284" y="-6"/>
      <point x="257" y="-6" type="qcurve" smooth="yes"/>
      <point x="205" y="-6" type="line" smooth="yes"/>
      <point x="136" y="-6"/>
      <point x="43" y="18"/>
      <point x="-10" y="69"/>
      <point x="-24" y="150"/>
      <point x="-14" y="208" type="qcurve"/>
    </contour>
    <contour>
      <point x="203" y="26" type="line"/>
      <point x="203" y="26"/>
      <point x="203" y="26"/>
      <point x="203" y="26" type="qcurve"/>
      <point x="339" y="26" type="line"/>
      <point x="504" y="974" type="line"/>
      <point x="368" y="974" type="line"/>
      <point x="368" y="974"/>
      <point x="368" y="974"/>
      <point x="368" y="974" type="qcurve"/>
    </contour>
  </outline>
</glyph>
<glyph name="s" format="2">
  <advance width="695"/>
  <unicode hex="0073"/>
  <anchor x="433" y="1150" name="top"/>
  <anchor x="206" y="-150" name="bottom"/>
  <outline>
    <contour>
      <point x="-16" y="262" type="line"/>
      <point x="212" y="308" type="line"/>
      <point x="163" y="26" type="line"/>
      <point x="163" y="26"/>
      <point x="163" y="26"/>
      <point x="163" y="26" type="qcurve"/>
      <point x="299" y="26" type="line"/>
      <point x="299" y="26"/>
      <point x="299" y="26"/>
      <point x="299" y="26" type="qcurve"/>
      <point x="379" y="487" type="line"/>
      <point x="379" y="487"/>
      <point x="379" y="487"/>
      <point x="379" y="487" type="qcurve"/>
      <point x="280" y="487" type="line" smooth="yes"/>
      <point x="223" y="487"/>
      <point x="136" y="504"/>
      <point x="81" y="550"/>
      <point x="61" y="630"/>
      <point x="72" y="693" type="qcurve" smooth="yes"/>
      <point x="92" y="810" type="line" smooth="yes"/>
      <point x="103" y="871"/>
      <point x="152" y="947"/>
      <point x="224" y="990"/>
      <point x="317" y="1006"/>
      <point x="371" y="1006" type="qcurve" smooth="yes"/>
      <point x="439" y="1006" type="line" smooth="yes"/>
      <point x="494" y="1006"/>
      <point x="582" y="990"/>
      <point x="639" y="947"/>
      <point x="661" y="871"/>
      <point x="650" y="810" type="qcurve" smooth="yes"/>
      <point x="640" y="750" type="line"/>
      <point x="412" y="706" type="line"/>
      <point x="459" y="974" type="line"/>
      <point x="459" y="974"/>
      <point x="459" y="974"/>
      <point x="459" y="974" type="qcurve"/>
      <point x="341" y="974" type="line"/>
      <point x="341" y="974"/>
      <point x="341" y="974"/>
      <point x="341" y="974" type="qcurve"/>
      <point x="262" y="519" type="line"/>
      <point x="262" y="519"/>
      <point x="262" y="519"/>
      <point x="262" y="519" type="qcurve"/>
      <point x="359" y="519" type="line" smooth="yes"/>
      <point x="414" y="519"/>
      <point x="502" y="504"/>
      <point x="559" y="462"/>
      <point x="581" y="385"/>
      <point x="570" y="323" type="qcurve" smooth="yes"/>
      <point x="549" y="198" type="line" smooth="yes"/>
      <point x="538" y="135"/>
      <point x="490" y="56"/>
      <point x="419" y="11"/>
      <point x="325" y="-6"/>
      <point x="267" y="-6" type="qcurve" smooth="yes"/>
      <point x="181" y="-6" type="line" smooth="yes"/>
      <point x="124" y="-6"/>
      <point x="36" y="11"/>
      <point x="-19" y="56"/>
      <point x="-38" y="135"/>
      <point x="-27" y="198" type="qcurve" smooth="yes"/>
    </contour>
  </outline>
</glyph>
<glyph name="u" format="2">
  <advance width="770"/>
  <unicode hex="0075"/>
  <anchor x="465" y="1150" name="top"/>
  <anchor x="235" y="-164" name="bottom"/>
  <anchor x="281" y="-0" name="ogonek"/>
  <anchor x="747" y="1000" name="horn"/>
  <outline>
    <contour>
      <point x="-11" y="190" type="line"/>
      <point x="131" y="1000" type="line"/>
      <point x="379" y="1000" type="line"/>
      <point x="207" y="18" type="line"/>
      <point x="207" y="18"/>
      <point x="207" y="18"/>
      <point x="207" y="18" type="qcurve"/>
      <point x="327" y="18" type="line"/>
      <point x="327" y="18"/>
      <point x="327" y="18"/>
      <point x="327" y="18" type="qcurve"/>
      <point x="499" y="1000" type="line"/>
      <point x="747" y="1000" type="line"/>
      <point x="605" y="190" type="line" smooth="yes"/>
      <point x="594" y="127"/>
      <point x="546" y="48"/>
      <point x="475" y="3"/>
      <point x="381" y="-14"/>
      <point x="324" y="-14" type="qcurve" smooth="yes"/>
      <point x="198" y="-14" type="line" smooth="yes"/>
      <point x="141" y="-14"/>
      <point x="53" y="3"/>
      <point x="-2" y="48"/>
      <point x="-22" y="127"/>
      <point x="-11" y="190" type="qcurve"/>
    </contour>
  </outline>
</glyph>
<glyph name="w" format="2">
  <advance width="985"/>
  <unicode hex="0077"/>
  <anchor x="678" y="1150" name="top"/>
  <anchor x="367" y="-150" name="bottom"/>
  <outline>
    <contour>
      <point x="99" y="0" type="line"/>
      <point x="248" y="0" type="line"/>
      <point x="510" y="732" type="line"/>
      <point x="516" y="0" type="line"/>
      <point x="677" y="0" type="line"/>
      <point x="1037" y="1000" type="line"/>
      <point x="1003" y="1000" type="line"/>
      <point x="755" y="311" type="line"/>
      <point x="750" y="1000" type="line"/>
      <point x="573" y="1000" type="line"/>
      <point x="327" y="313" type="line"/>
      <point x="311" y="1000" type="line"/>
      <point x="61" y="1000" type="line"/>
    </contour>
  </outline>
</glyph>
<glyph name="x" format="2">
  <advance width="619"/>
  <unicode hex="0078"/>
  <anchor x="394" y="1150" name="top"/>
  <anchor x="167" y="-150" name="bottom"/>
  <outline>
    <contour>
      <point x="-108" y="0" type="line"/>
      <point x="-69" y="0" type="line"/>
      <point x="177" y="375" type="line"/>
      <point x="246" y="0" type="line"/>
      <point x="495" y="0" type="line"/>
      <point x="380" y="620" type="line"/>
      <point x="623" y="1000" type="line"/>
      <point x="584" y="1000" type="line"/>
      <point x="372" y="665" type="line"/>
      <point x="310" y="1000" type="line"/>
      <point x="61" y="1000" type="line"/>
      <point x="168" y="422" type="line"/>
    </contour>
  </outline>
</glyph>
<glyph name="z" format="2">
  <advance width="642"/>
  <unicode hex="007A"/>
  <anchor x="405" y="1150" name="top"/>
  <anchor x="178" y="-150" name="bottom"/>
  <outline>
    <contour>
      <point x="-83" y="0" type="line"/>
      <point x="484" y="0" type="line"/>
      <point x="490" y="32" type="line"/>
      <point x="163" y="32" type="line"/>
      <point x="170" y="21" type="line"/>
      <point x="650" y="984" type="line"/>
      <point x="653" y="1000" type="line"/>
      <point x="152" y="1000" type="line"/>
      <point x="146" y="968" type="line"/>
      <point x="401" y="968" type="line"/>
      <point x="394" y="979" type="line"/>
      <point x="-80" y="16" type="line"/>
    </contour>
  </outline>
</glyph>
<glyph name="braceleft" format="2">
  <advance width="653"/>
  <unicode hex="007B"/>
  <outline>
    <contour>
      <point x="110" y="18" type="line" smooth="yes"/>
      <point x="87.362" y="-110.282"/>
      <point x="220.172" y="-256"/>
      <point x="356" y="-256" type="qcurve" smooth="yes"/>
      <point x="477" y="-256" type="line"/>
      <point x="483" y="-224" type="line"/>
      <point x="434" y="-224" type="line" smooth="yes"/>
      <point x="369.859" y="-224"/>
      <point x="326.19" y="-166.104"/>
      <point x="336" y="-108" type="qcurve" smooth="yes"/>
      <point x="410" y="317" type="line" smooth="yes"/>
      <point x="429.62" y="428.681"/>
      <point x="351.061" y="569.834"/>
      <point x="259" y="597" type="qcurve"/>
      <point x="360.116" y="624.166"/>
      <point x="488.38" y="765.319"/>
      <point x="508" y="877" type="qcurve" smooth="yes"/>
      <point x="582" y="1300" type="line" smooth="yes"/>
      <point x="591.81" y="1358.1"/>
      <point x="655.859" y="1416"/>
      <point x="720" y="1416" type="qcurve" smooth="yes"/>
      <point x="769" y="1416" type="line"/>
      <point x="775" y="1448" type="line"/>
      <point x="654" y="1448" type="line" smooth="yes"/>
      <point x="518.172" y="1448"/>
      <point x="334.147" y="1299.83"/>
      <point x="310" y="1164" type="qcurve" smooth="yes"/>
      <point x="245" y="791" type="line" smooth="yes"/>
      <point x="230.663" y="709.503"/>
      <point x="138.607" y="613"/>
      <point x="39" y="613" type="qcurve"/>
      <point x="33" y="581" type="line"/>
      <point x="132.607" y="581"/>
      <point x="191.337" y="485.251"/>
      <point x="177" y="403" type="qcurve" smooth="yes"/>
    </contour>
  </outline>
</glyph>
<glyph name="bar" format="2">
  <advance width="447"/>
  <unicode hex="007C"/>
  <outline>
    <contour>
      <point x="255" y="1520" type="line"/>
      <point x="-94" y="-480" type="line"/>
      <point x="136" y="-480" type="line"/>
      <point x="485" y="1520" type="line"/>
    </contour>
  </outline>
</glyph>
<glyph name="braceright" format="2">
  <advance width="653"/>
  <unicode hex="007D"/>
  <outline>
    <contour>
      <point x="513" y="1174" type="line" smooth="yes"/>
      <point x="535.638" y="1302.28"/>
      <point x="402.828" y="1448"/>
      <point x="267" y="1448" type="qcurve" smooth="yes"/>
      <point x="146" y="1448" type="line"/>
      <point x="140" y="1416" type="line"/>
      <point x="189" y="1416" type="line" smooth="yes"/>
      <point x="253.141" y="1416"/>
      <point x="296.81" y="1358.1"/>
      <point x="287" y="1300" type="qcurve" smooth="yes"/>
      <point x="213" y="875" type="line" smooth="yes"/>
      <point x="193.38" y="763.319"/>
      <point x="271.939" y="622.166"/>
      <point x="364" y="595" type="qcurve"/>
      <point x="262.884" y="567.834"/>
      <point x="134.62" y="426.681"/>
      <point x="115" y="315" type="qcurve" smooth="yes"/>
      <point x="41" y="-108" type="line" smooth="yes"/>
      <point x="31.1902" y="-166.104"/>
      <point x="-32.859" y="-224"/>
      <point x="-97" y="-224" type="qcurve" smooth="yes"/>
      <point x="-146" y="-224" type="line"/>
      <point x="-152" y="-256" type="line"/>
      <point x="-31" y="-256" type="line" smooth="yes"/>
      <point x="104.828" y="-256"/>
      <point x="288.853" y="-107.828"/>
      <point x="313" y="28" type="qcurve" smooth="yes"/>
      <point x="378" y="401" type="line" smooth="yes"/>
      <point x="392.337" y="482.497"/>
      <point x="484.393" y="579"/>
      <point x="584" y="579" type="qcurve"/>
      <point x="590" y="611" type="line"/>
      <point x="490.393" y="611"/>
      <point x="431.663" y="706.749"/>
      <point x="446" y="789" type="qcurve" smooth="yes"/>
    </contour>
  </outline>
</glyph>
<glyph name="asciitilde" format="2">
  <advance width="649"/>
  <unicode hex="007E"/>
  <outline>
    <contour>
      <point x="-43" y="484" type="qcurve"/>
      <point x="-10" y="478" type="line"/>
      <point x="-4" y="494"/>
      <point x="14" y="521"/>
      <point x="39" y="540"/>
      <point x="72" y="550"/>
      <point x="93" y="550" type="qcurve" smooth="yes"/>
      <point x="132" y="550"/>
      <point x="211" y="518"/>
      <point x="295" y="479"/>
      <point x="390" y="447"/>
      <point x="446" y="447" type="qcurve" smooth="yes"/>
      <point x="502" y="447"/>
      <point x="573" y="493"/>
      <point x="620" y="565"/>
      <point x="648" y="651"/>
      <point x="660" y="691" type="qcurve"/>
      <point x="627" y="697" type="line"/>
      <point x="621" y="681"/>
      <point x="603" y="654"/>
      <point x="578" y="635"/>
      <point x="545" y="625"/>
      <point x="524" y="625" type="qcurve" smooth="yes"/>
      <point x="485" y="625"/>
      <point x="406" y="657"/>
      <point x="322" y="696"/>
      <point x="227" y="728"/>
      <point x="171" y="728" type="qcurve" smooth="yes"/>
      <point x="116" y="728"/>
      <point x="44" y="682"/>
      <point x="-3" y="610"/>
      <point x="-31" y="524"/>
    </contour>
  </outline>
</glyph>
<glyph name="exclamdown" format="2">
  <advance width="498"/>
  <unicode hex="00A1"/>
  <outline>
    <contour>
      <point x="436" y="881" type="line" smooth="yes"/>
      <point x="452" y="969"/>
      <point x="426" y="1000"/>
      <point x="338" y="1000" type="qcurve" smooth="yes"/>
      <point x="272" y="1000" type="line" smooth="yes"/>
      <point x="184" y="1000"/>
      <point x="147" y="969"/>
      <point x="131" y="881" type="qcurve" smooth="yes"/>
      <point x="112" y="772" type="line" smooth="yes"/>
      <point x="97" y="685"/>
      <point x="124" y="655"/>
      <point x="212" y="655" type="qcurve" smooth="yes"/>
      <point x="278" y="655" type="line" smooth="yes"/>
      <point x="366" y="655"/>
      <point x="402" y="686"/>
      <point x="417" y="772" type="qcurve" smooth="yes"/>
    </contour>
    <contour>
      <point x="240" y="530" type="line"/>
      <point x="205" y="530" type="line"/>
      <point x="-94" y="-408" type="line"/>
      <point x="211" y="-408" type="line"/>
    </contour>
  </outline>
</glyph>
<glyph name="cent" format="2">
  <advance width="847"/>
  <unicode hex="00A2"/>
  <outline>
    <contour>
      <point x="264" y="-100" type="line"/>
      <point x="332" y="-100" type="line"/>
      <point x="374" y="144" type="line"/>
      <point x="442" y="144" type="line" smooth="yes"/>
      <point x="582" y="144"/>
      <point x="715" y="242"/>
      <point x="735" y="358" type="qcurve" smooth="yes"/>
      <point x="752" y="452" type="line"/>
      <point x="517" y="502" type="line"/>
      <point x="460" y="176" type="line"/>
      <point x="460" y="176"/>
      <point x="460" y="176"/>
      <point x="460" y="176" type="qcurve"/>
      <point x="380" y="176" type="line"/>
      <point x="545" y="1124" type="line"/>
      <point x="621" y="1124" type="line"/>
      <point x="621" y="1124"/>
      <point x="621" y="1124"/>
      <point x="621" y="1124" type="qcurve"/>
      <point x="565" y="804" type="line"/>
      <point x="817" y="850" type="line"/>
      <point x="835" y="952" type="line" smooth="yes"/>
      <point x="855" y="1062"/>
      <point x="754" y="1156"/>
      <point x="615" y="1156" type="qcurve" smooth="yes"/>
      <point x="551" y="1156" type="line"/>
      <point x="593" y="1400" type="line"/>
      <point x="525" y="1400" type="line"/>
      <point x="483" y="1156" type="line"/>
      <point x="411" y="1156" type="line" smooth="yes"/>
      <point x="274" y="1156"/>
      <point x="139" y="1062"/>
      <point x="119" y="952" type="qcurve" smooth="yes"/>
      <point x="15" y="358" type="line" smooth="yes"/>
      <point x="-5" y="242"/>
      <point x="94" y="144"/>
      <point x="234" y="144" type="qcurve" smooth="yes"/>
      <point x="306" y="144" type="line"/>
    </contour>
    <contour>
      <point x="477" y="1124" type="line"/>
      <point x="312" y="176" type="line"/>
      <point x="232" y="176" type="line"/>
      <point x="232" y="176"/>
      <point x="232" y="176"/>
      <point x="232" y="176" type="qcurve"/>
      <point x="397" y="1124" type="line"/>
      <point x="397" y="1124"/>
      <point x="397" y="1124"/>
      <point x="397" y="1124" type="qcurve"/>
    </contour>
  </outline>
</glyph>
<glyph name="sterling" format="2">
  <advance width="871"/>
  <unicode hex="00A3"/>
  <outline>
    <contour>
      <point x="-94" y="0" type="line"/>
      <point x="365" y="0" type="line" smooth="yes"/>
      <point x="546" y="0"/>
      <point x="722" y="131"/>
      <point x="749" y="286" type="qcurve" smooth="yes"/>
      <point x="764" y="372" type="line"/>
      <point x="509" y="424" type="line"/>
      <point x="459" y="136" type="line" smooth="yes"/>
      <point x="450" y="83"/>
      <point x="394" y="36"/>
      <point x="341" y="36" type="qcurve" smooth="yes"/>
      <point x="157" y="36" type="line"/>
      <point x="226" y="66"/>
      <point x="304" y="182"/>
      <point x="320" y="274" type="qcurve" smooth="yes"/>
      <point x="381" y="627" type="line"/>
      <point x="600" y="627" type="line"/>
      <point x="617" y="663" type="line"/>
      <point x="387" y="663" type="line"/>
      <point x="502" y="1332" type="line" smooth="yes"/>
      <point x="507" y="1358"/>
      <point x="535" y="1382"/>
      <point x="561" y="1382" type="qcurve" smooth="yes"/>
      <point x="616" y="1382" type="line" smooth="yes"/>
      <point x="642" y="1382"/>
      <point x="662" y="1358"/>
      <point x="657" y="1332" type="qcurve" smooth="yes"/>
      <point x="601" y="1000" type="line"/>
      <point x="873" y="1048" type="line"/>
      <point x="889" y="1144" type="line" smooth="yes"/>
      <point x="914" y="1291"/>
      <point x="793" y="1418"/>
      <point x="602" y="1418" type="qcurve" smooth="yes"/>
      <point x="585" y="1418" type="line" smooth="yes"/>
      <point x="408" y="1418"/>
      <point x="232" y="1291"/>
      <point x="206" y="1144" type="qcurve" smooth="yes"/>
      <point x="123" y="663" type="line"/>
      <point x="61" y="663" type="line"/>
      <point x="54" y="627" type="line"/>
      <point x="117" y="627" type="line"/>
      <point x="23" y="86" type="line" smooth="yes"/>
      <point x="18" y="60"/>
      <point x="-10" y="36"/>
      <point x="-36" y="36" type="qcurve" smooth="yes"/>
      <point x="-88" y="36" type="line"/>
    </contour>
  </outline>
  <guideline angle="0" x="0" y="1000"/>
  <guideline angle="90" x="658" y="0"/>
</glyph>
<glyph name="currency" format="2">
  <advance width="848" height="1448"/>
  <unicode hex="00A4"/>
  <outline>
    <contour>
      <point x="-112" y="52" type="line"/>
      <point x="43" y="222" type="line"/>
      <point x="70" y="208"/>
      <point x="149" y="194"/>
      <point x="202" y="194" type="qcurve" smooth="yes"/>
      <point x="474" y="194" type="line" smooth="yes"/>
      <point x="528" y="194"/>
      <point x="612" y="208"/>
      <point x="644" y="222" type="qcurve"/>
      <point x="738" y="52" type="line"/>
      <point x="770" y="74" type="line"/>
      <point x="677" y="241" type="line"/>
      <point x="713" y="267"/>
      <point x="756" y="348"/>
      <point x="767" y="408" type="qcurve" smooth="yes"/>
      <point x="871" y="1002" type="line" smooth="yes"/>
      <point x="881" y="1057"/>
      <point x="864" y="1135"/>
      <point x="836" y="1159" type="qcurve"/>
      <point x="988" y="1326" type="line"/>
      <point x="964" y="1348" type="line"/>
      <point x="810" y="1178" type="line"/>
      <point x="782" y="1192"/>
      <point x="704" y="1206"/>
      <point x="650" y="1206" type="qcurve" smooth="yes"/>
      <point x="378" y="1206" type="line" smooth="yes"/>
      <point x="325" y="1206"/>
      <point x="241" y="1192"/>
      <point x="209" y="1178" type="qcurve"/>
      <point x="114" y="1348" type="line"/>
      <point x="82" y="1326" type="line"/>
      <point x="175" y="1159" type="line"/>
      <point x="139" y="1134"/>
      <point x="97" y="1057"/>
      <point x="87" y="1002" type="qcurve" smooth="yes"/>
      <point x="-17" y="408" type="line" smooth="yes"/>
      <point x="-28" y="348"/>
      <point x="-12" y="267"/>
      <point x="16" y="241" type="qcurve"/>
      <point x="-136" y="74" type="line"/>
    </contour>
    <contour>
      <point x="199" y="226" type="line"/>
      <point x="199" y="226"/>
      <point x="199" y="226"/>
      <point x="199" y="226" type="qcurve"/>
      <point x="365" y="1174" type="line"/>
      <point x="365" y="1174"/>
      <point x="365" y="1174"/>
      <point x="365" y="1174" type="qcurve"/>
      <point x="653" y="1174" type="line"/>
      <point x="653" y="1174"/>
      <point x="653" y="1174"/>
      <point x="653" y="1174" type="qcurve"/>
      <point x="487" y="226" type="line"/>
      <point x="487" y="226"/>
      <point x="487" y="226"/>
      <point x="487" y="226" type="qcurve"/>
    </contour>
  </outline>
</glyph>
<glyph name="yen" format="2">
  <advance width="794"/>
  <unicode hex="00A5"/>
  <outline>
    <contour>
      <point x="148" y="0" type="line"/>
      <point x="412" y="0" type="line"/>
      <point x="485" y="419" type="line"/>
      <point x="646" y="419" type="line"/>
      <point x="652" y="455" type="line"/>
      <point x="491" y="455" type="line"/>
      <point x="511" y="569" type="line"/>
      <point x="672" y="569" type="line"/>
      <point x="679" y="605" type="line"/>
      <point x="529" y="605" type="line"/>
      <point x="920" y="1400" type="line"/>
      <point x="882" y="1400" type="line"/>
      <point x="503" y="629" type="line"/>
      <point x="406" y="1400" type="line"/>
      <point x="127" y="1400" type="line"/>
      <point x="242" y="605" type="line"/>
      <point x="93" y="605" type="line"/>
      <point x="86" y="569" type="line"/>
      <point x="247" y="569" type="line"/>
      <point x="247" y="569" type="line"/>
      <point x="227" y="455" type="line"/>
      <point x="66" y="455" type="line"/>
      <point x="60" y="419" type="line"/>
      <point x="221" y="419" type="line"/>
    </contour>
  </outline>
</glyph>
<glyph name="section" format="2">
  <advance width="816"/>
  <unicode hex="00A7"/>
  <outline>
    <contour>
      <point x="217" y="-150" type="qcurve" smooth="yes"/>
      <point x="303" y="-150" type="line" smooth="yes"/>
      <point x="419.208" y="-150"/>
      <point x="562.117" y="-72.7728"/>
      <point x="584" y="54" type="qcurve" smooth="yes"/>
      <point x="606" y="179" type="line" smooth="yes"/>
      <point x="618.828" y="249.932"/>
      <point x="580.485" y="329.38"/>
      <point x="542" y="349" type="qcurve"/>
      <point x="579.875" y="355"/>
      <point x="641.906" y="381.531"/>
      <point x="689.344" y="428.219"/>
      <point x="721.75" y="497.875"/>
      <point x="730" y="547" type="qcurve" smooth="yes"/>
      <point x="760" y="717" type="line" smooth="yes"/>
      <point x="781.883" y="842.264"/>
      <point x="658.172" y="913"/>
      <point x="548" y="913" type="qcurve" smooth="yes"/>
      <point x="400" y="913" type="line"/>
      <point x="400" y="913"/>
      <point x="400" y="913"/>
      <point x="400" y="913" type="qcurve"/>
      <point x="480" y="1368" type="line"/>
      <point x="480" y="1368"/>
      <point x="480" y="1368"/>
      <point x="480" y="1368" type="qcurve"/>
      <point x="580" y="1368" type="line"/>
      <point x="580" y="1368"/>
      <point x="580" y="1368"/>
      <point x="580" y="1368" type="qcurve"/>
      <point x="533" y="1100" type="line"/>
      <point x="761" y="1144" type="line"/>
      <point x="771" y="1204" type="line" smooth="yes"/>
      <point x="792.129" y="1326.25"/>
      <point x="669.172" y="1400"/>
      <point x="559" y="1400" type="qcurve" smooth="yes"/>
      <point x="509" y="1400" type="line" smooth="yes"/>
      <point x="400.338" y="1400"/>
      <point x="252.129" y="1326.25"/>
      <point x="231" y="1204" type="qcurve" smooth="yes"/>
      <point x="211" y="1087" type="line" smooth="yes"/>
      <point x="198.172" y="1013.05"/>
      <point x="227.761" y="928.129"/>
      <point x="267" y="907" type="qcurve"/>
      <point x="230.25" y="901.375"/>
      <point x="167.562" y="876.312"/>
      <point x="118.438" y="831.688"/>
      <point x="84.25" y="764.625"/>
      <point x="76" y="717" type="qcurve" smooth="yes"/>
      <point x="47" y="549" type="line" smooth="yes"/>
      <point x="24.362" y="422.227"/>
      <point x="140.301" y="343"/>
      <point x="255" y="343" type="qcurve" smooth="yes"/>
      <point x="415" y="343" type="line"/>
      <point x="415" y="343"/>
      <point x="415" y="343"/>
      <point x="415" y="343" type="qcurve"/>
      <point x="334" y="-118" type="line"/>
      <point x="334" y="-118"/>
      <point x="334" y="-118"/>
      <point x="334" y="-118" type="qcurve"/>
      <point x="198" y="-118" type="line"/>
      <point x="198" y="-118"/>
      <point x="198" y="-118"/>
      <point x="198" y="-118" type="qcurve"/>
      <point x="248" y="164" type="line"/>
      <point x="20" y="118" type="line"/>
      <point x="8" y="54" type="line" smooth="yes"/>
      <point x="-13.8834" y="-72.7728"/>
      <point x="102.301" y="-150"/>
    </contour>
    <contour>
      <point x="236" y="375" type="line"/>
      <point x="236" y="375"/>
      <point x="236" y="375"/>
      <point x="236" y="375" type="qcurve"/>
      <point x="325" y="881" type="line"/>
      <point x="325" y="881"/>
      <point x="325" y="881"/>
      <point x="325" y="881" type="qcurve"/>
      <point x="569" y="881" type="line"/>
      <point x="569" y="881"/>
      <point x="569" y="881"/>
      <point x="569" y="881" type="qcurve"/>
      <point x="480" y="375" type="line"/>
      <point x="480" y="375"/>
      <point x="480" y="375"/>
      <point x="480" y="375" type="qcurve"/>
    </contour>
  </outline>
</glyph>
<glyph name="copyright" format="2">
  <advance width="1360"/>
  <unicode hex="00A9"/>
  <outline>
    <contour>
      <point x="371" y="498" type="line" smooth="yes"/>
      <point x="351" y="382"/>
      <point x="437" y="284"/>
      <point x="570" y="284" type="qcurve" smooth="yes"/>
      <point x="642" y="284" type="line" smooth="yes"/>
      <point x="775" y="284"/>
      <point x="899" y="382"/>
      <point x="919" y="498" type="qcurve" smooth="yes"/>
      <point x="932" y="572" type="line"/>
      <point x="713" y="622" type="line"/>
      <point x="659" y="316" type="line"/>
      <point x="659" y="316"/>
      <point x="659" y="316"/>
      <point x="659" y="316" type="qcurve"/>
      <point x="567" y="316" type="line"/>
      <point x="567" y="316"/>
      <point x="567" y="316"/>
      <point x="567" y="316" type="qcurve"/>
      <point x="701" y="1084" type="line"/>
      <point x="701" y="1084"/>
      <point x="701" y="1084"/>
      <point x="701" y="1084" type="qcurve"/>
      <point x="789" y="1084" type="line"/>
      <point x="789" y="1084"/>
      <point x="789" y="1084"/>
      <point x="789" y="1084" type="qcurve"/>
      <point x="737" y="784" type="line"/>
      <point x="973" y="830" type="line"/>
      <point x="987" y="912" type="line" smooth="yes"/>
      <point x="1007" y="1022"/>
      <point x="914" y="1116"/>
      <point x="783" y="1116" type="qcurve" smooth="yes"/>
      <point x="715" y="1116" type="line" smooth="yes"/>
      <point x="585" y="1116"/>
      <point x="463" y="1022"/>
      <point x="443" y="912" type="qcurve" smooth="yes"/>
    </contour>
    <contour>
      <point x="147" y="966" type="qcurve" smooth="yes"/>
      <point x="56" y="446" type="line" smooth="yes"/>
      <point x="25" y="271"/>
      <point x="190" y="160"/>
      <point x="350" y="160" type="qcurve" smooth="yes"/>
      <point x="819" y="160" type="line" smooth="yes"/>
      <point x="980" y="160"/>
      <point x="1182" y="269"/>
      <point x="1213" y="446" type="qcurve" smooth="yes"/>
      <point x="1304" y="966" type="line" smooth="yes"/>
      <point x="1333" y="1137"/>
      <point x="1159" y="1240"/>
      <point x="1007" y="1240" type="qcurve" smooth="yes"/>
      <point x="538" y="1240" type="line" smooth="yes"/>
      <point x="385" y="1240"/>
      <point x="177" y="1142"/>
    </contour>
    <contour>
      <point x="365" y="1108" type="line" smooth="yes"/>
      <point x="373" y="1153"/>
      <point x="439" y="1208"/>
      <point x="533" y="1208" type="qcurve" smooth="yes"/>
      <point x="1002" y="1208" type="line" smooth="yes"/>
      <point x="1096" y="1208"/>
      <point x="1142" y="1153"/>
      <point x="1134" y="1108" type="qcurve" smooth="yes"/>
      <point x="992" y="292" type="line" smooth="yes"/>
      <point x="984" y="247"/>
      <point x="919" y="192"/>
      <point x="825" y="192" type="qcurve" smooth="yes"/>
      <point x="356" y="192" type="line" smooth="yes"/>
      <point x="262" y="192"/>
      <point x="215" y="247"/>
      <point x="223" y="292" type="qcurve" smooth="yes"/>
    </contour>
  </outline>
</glyph>
<glyph name="ordfeminine" format="2">
  <advance width="589"/>
  <unicode hex="00AA"/>
  <outline>
    <contour>
      <point x="190" y="772" type="qcurve" smooth="yes"/>
      <point x="247" y="772" type="line" smooth="yes"/>
      <point x="285" y="772"/>
      <point x="336" y="786"/>
      <point x="352" y="800" type="qcurve"/>
      <point x="349" y="781" type="line"/>
      <point x="548" y="781" type="line"/>
      <point x="640" y="1309" type="line" smooth="yes"/>
      <point x="655" y="1397"/>
      <point x="572" y="1448"/>
      <point x="497" y="1448" type="qcurve" smooth="yes"/>
      <point x="359" y="1448" type="line" smooth="yes"/>
      <point x="284" y="1448"/>
      <point x="182" y="1396"/>
      <point x="167" y="1310" type="qcurve"/>
      <point x="162" y="1278" type="line"/>
      <point x="355" y="1241" type="line"/>
      <point x="386" y="1416" type="line"/>
      <point x="386" y="1416"/>
      <point x="386" y="1416"/>
      <point x="386" y="1416" type="qcurve"/>
      <point x="460" y="1416" type="line"/>
      <point x="460" y="1416"/>
      <point x="460" y="1416"/>
      <point x="460" y="1416" type="qcurve"/>
      <point x="410" y="1134" type="line"/>
      <point x="254" y="1134" type="line" smooth="yes"/>
      <point x="206" y="1134"/>
      <point x="116" y="1076"/>
      <point x="102" y="1000" type="qcurve" smooth="yes"/>
      <point x="87" y="912" type="line" smooth="yes"/>
      <point x="73" y="834"/>
      <point x="142" y="772"/>
    </contour>
    <contour>
      <point x="267" y="804" type="qcurve"/>
      <point x="319" y="1102" type="line"/>
      <point x="319" y="1102"/>
      <point x="319" y="1102"/>
      <point x="319" y="1102" type="qcurve"/>
      <point x="405" y="1102" type="line"/>
      <point x="353" y="804" type="line"/>
      <point x="267" y="804" type="line"/>
      <point x="267" y="804"/>
      <point x="267" y="804"/>
    </contour>
  </outline>
  <guideline angle="0" x="0" y="36"/>
  <guideline angle="0" x="0" y="36"/>
</glyph>
<glyph name="guillemotleft" format="2">
  <advance width="697"/>
  <unicode hex="00AB"/>
  <outline>
    <contour>
      <point x="195" y="130" type="line"/>
      <point x="225" y="130" type="line"/>
      <point x="167" y="500" type="line"/>
      <point x="354" y="870" type="line"/>
      <point x="324" y="870" type="line"/>
      <point x="-31" y="500" type="line"/>
    </contour>
    <contour>
      <point x="536" y="130" type="line"/>
      <point x="566" y="130" type="line"/>
      <point x="508" y="500" type="line"/>
      <point x="695" y="870" type="line"/>
      <point x="665" y="870" type="line"/>
      <point x="310" y="500" type="line"/>
    </contour>
  </outline>
</glyph>
<glyph name="logicalnot" format="2">
  <advance width="649"/>
  <unicode hex="00AC"/>
  <outline>
    <contour>
      <point x="515" y="380" type="line"/>
      <point x="577" y="735" type="line"/>
      <point x="91" y="735" type="line"/>
      <point x="85" y="699" type="line"/>
      <point x="531" y="699" type="line"/>
      <point x="475" y="380" type="line"/>
    </contour>
  </outline>
</glyph>
<glyph name="registered" format="2">
  <advance width="644"/>
  <unicode hex="00AE"/>
  <outline>
    <contour>
      <point x="104" y="1066" type="line" smooth="yes"/>
      <point x="91.9264" y="996.577"/>
      <point x="154.331" y="923"/>
      <point x="223" y="923" type="qcurve" smooth="yes"/>
      <point x="506" y="923" type="line" smooth="yes"/>
      <point x="575.423" y="923"/>
      <point x="663.926" y="996.577"/>
      <point x="676" y="1066" type="qcurve" smooth="yes"/>
      <point x="735" y="1403" type="line" smooth="yes"/>
      <point x="747.074" y="1471.67"/>
      <point x="684.423" y="1545"/>
      <point x="615" y="1545" type="qcurve" smooth="yes"/>
      <point x="332" y="1545" type="line" smooth="yes"/>
      <point x="263.331" y="1545"/>
      <point x="175.074" y="1471.67"/>
      <point x="163" y="1403" type="qcurve" smooth="yes"/>
    </contour>
    <contour>
      <point x="230" y="1403" type="line" smooth="yes"/>
      <point x="236.791" y="1442.99"/>
      <point x="281.761" y="1484"/>
      <point x="321" y="1484" type="qcurve" smooth="yes"/>
      <point x="604" y="1484" type="line" smooth="yes"/>
      <point x="643.994" y="1484"/>
      <point x="674.791" y="1442.99"/>
      <point x="668" y="1403" type="qcurve" smooth="yes"/>
      <point x="609" y="1066" type="line" smooth="yes"/>
      <point x="602.209" y="1026.01"/>
      <point x="556.994" y="984"/>
      <point x="517" y="984" type="qcurve" smooth="yes"/>
      <point x="234" y="984" type="line" smooth="yes"/>
      <point x="194.761" y="984"/>
      <point x="164.209" y="1026.01"/>
      <point x="171" y="1066" type="qcurve" smooth="yes"/>
    </contour>
    <contour>
      <point x="323" y="1400" type="line"/>
      <point x="264" y="1060" type="line"/>
      <point x="369" y="1060" type="line"/>
      <point x="393" y="1195" type="line"/>
      <point x="393" y="1195" type="line"/>
      <point x="435" y="1060" type="line"/>
      <point x="554" y="1060" type="line"/>
      <point x="500" y="1200" type="line"/>
      <point x="500" y="1200" type="line"/>
      <point x="524.902" y="1206.04"/>
      <point x="556.963" y="1238.55"/>
      <point x="563" y="1271" type="qcurve"/>
      <point x="572" y="1325" type="line" smooth="yes"/>
      <point x="580.301" y="1371.03"/>
      <point x="535.012" y="1400"/>
      <point x="492" y="1400" type="qcurve" smooth="yes"/>
    </contour>
    <contour>
      <point x="398" y="1227" type="line"/>
      <point x="423" y="1368" type="line"/>
      <point x="460" y="1368" type="line" smooth="yes"/>
      <point x="468.301" y="1368"/>
      <point x="475.509" y="1359.79"/>
      <point x="474" y="1353" type="qcurve"/>
      <point x="455" y="1243" type="line"/>
      <point x="453.491" y="1235.45"/>
      <point x="443.301" y="1227"/>
      <point x="435" y="1227" type="qcurve" smooth="yes"/>
    </contour>
  </outline>
</glyph>
<glyph name="macron" format="2">
  <advance width="366"/>
  <unicode hex="00AF"/>
  <outline>
    <contour>
      <point x="100" y="1184" type="line"/>
      <point x="444" y="1184" type="line"/>
      <point x="449" y="1216" type="line"/>
      <point x="105" y="1216" type="line"/>
    </contour>
  </outline>
</glyph>
<glyph name="degree" format="2">
  <advance width="509"/>
  <unicode hex="00B0"/>
  <outline>
    <contour>
      <point x="137" y="1254" type="line" smooth="yes"/>
      <point x="123" y="1174"/>
      <point x="192" y="1106"/>
      <point x="286" y="1106" type="qcurve" smooth="yes"/>
      <point x="373" y="1106" type="line" smooth="yes"/>
      <point x="468" y="1106"/>
      <point x="560" y="1174"/>
      <point x="574" y="1254" type="qcurve" smooth="yes"/>
      <point x="596" y="1378" type="line" smooth="yes"/>
      <point x="609" y="1452"/>
      <point x="538" y="1518"/>
      <point x="445" y="1518" type="qcurve" smooth="yes"/>
      <point x="358" y="1518" type="line" smooth="yes"/>
      <point x="264" y="1518"/>
      <point x="172" y="1452"/>
      <point x="159" y="1378" type="qcurve" smooth="yes"/>
    </contour>
    <contour>
      <point x="287" y="1138" type="qcurve"/>
      <point x="347" y="1486" type="line"/>
      <point x="347" y="1486"/>
      <point x="347" y="1486"/>
      <point x="347" y="1486" type="qcurve"/>
      <point x="444" y="1486" type="line"/>
      <point x="444" y="1486"/>
      <point x="444" y="1486"/>
      <point x="444" y="1486" type="qcurve"/>
      <point x="384" y="1138" type="line"/>
      <point x="384" y="1138"/>
      <point x="384" y="1138"/>
      <point x="384" y="1138" type="qcurve"/>
      <point x="287" y="1138" type="line"/>
      <point x="287" y="1138"/>
      <point x="287" y="1138"/>
    </contour>
  </outline>
</glyph>
<glyph name="plusminus" format="2">
  <advance width="649"/>
  <unicode hex="00B1"/>
  <outline>
    <contour>
      <point x="236" y="291" type="line"/>
      <point x="276" y="291" type="line"/>
      <point x="324" y="569" type="line"/>
      <point x="547" y="569" type="line"/>
      <point x="554" y="605" type="line"/>
      <point x="331" y="605" type="line"/>
      <point x="378" y="877" type="line"/>
      <point x="338" y="877" type="line"/>
      <point x="291" y="605" type="line"/>
      <point x="68" y="605" type="line"/>
      <point x="61" y="569" type="line"/>
      <point x="284" y="569" type="line"/>
    </contour>
    <contour>
      <point x="-37" y="0" type="line"/>
      <point x="449" y="0" type="line"/>
      <point x="455" y="36" type="line"/>
      <point x="-31" y="36" type="line"/>
    </contour>
  </outline>
</glyph>
<glyph name="twosuperior" format="2">
  <advance width="619"/>
  <unicode hex="00B2"/>
  <outline>
    <contour>
      <point x="135" y="950" type="line"/>
      <point x="412" y="950" type="line" smooth="yes"/>
      <point x="484" y="950"/>
      <point x="608" y="1006"/>
      <point x="624" y="1096" type="qcurve" smooth="yes"/>
      <point x="636" y="1164" type="line"/>
      <point x="456" y="1189" type="line"/>
      <point x="420" y="980" type="line"/>
      <point x="420" y="980"/>
      <point x="420" y="980"/>
      <point x="420" y="980" type="qcurve"/>
      <point x="333" y="980" type="line"/>
      <point x="383" y="1266" type="line" smooth="yes"/>
      <point x="386" y="1283"/>
      <point x="393" y="1291"/>
      <point x="408" y="1296" type="qcurve"/>
      <point x="559" y="1338" type="line" smooth="yes"/>
      <point x="621" y="1355"/>
      <point x="667" y="1422"/>
      <point x="676" y="1474" type="qcurve" smooth="yes"/>
      <point x="698" y="1601" type="line" smooth="yes"/>
      <point x="710" y="1670"/>
      <point x="616" y="1740"/>
      <point x="533" y="1740" type="qcurve" smooth="yes"/>
      <point x="462" y="1740" type="line" smooth="yes"/>
      <point x="378" y="1740"/>
      <point x="259" y="1661"/>
      <point x="245" y="1587" type="qcurve" smooth="yes"/>
      <point x="228" y="1485" type="line"/>
      <point x="415" y="1455" type="line"/>
      <point x="460" y="1710" type="line"/>
      <point x="460" y="1710"/>
      <point x="460" y="1710"/>
      <point x="460" y="1710" type="qcurve"/>
      <point x="525" y="1710" type="line"/>
      <point x="525" y="1710"/>
      <point x="525" y="1710"/>
      <point x="525" y="1710" type="qcurve"/>
      <point x="464" y="1361" type="line" smooth="yes"/>
      <point x="462" y="1348"/>
      <point x="456" y="1341"/>
      <point x="442" y="1337" type="qcurve" smooth="yes"/>
      <point x="302" y="1298" type="line" smooth="yes"/>
      <point x="233" y="1279"/>
      <point x="181" y="1211"/>
      <point x="171" y="1154" type="qcurve" smooth="yes"/>
    </contour>
  </outline>
</glyph>
<glyph name="threesuperior" format="2">
  <advance width="647"/>
  <unicode hex="00B3"/>
  <outline>
    <contour>
      <point x="173" y="1177" type="line"/>
      <point x="159" y="1096" type="line" smooth="yes"/>
      <point x="142" y="1001"/>
      <point x="263" y="950"/>
      <point x="357" y="950" type="qcurve" smooth="yes"/>
      <point x="379" y="950" type="line" smooth="yes"/>
      <point x="479" y="950"/>
      <point x="617" y="990"/>
      <point x="637" y="1107" type="qcurve" smooth="yes"/>
      <point x="655" y="1212" type="line" smooth="yes"/>
      <point x="670" y="1295"/>
      <point x="583" y="1354"/>
      <point x="511" y="1359" type="qcurve"/>
      <point x="605" y="1372"/>
      <point x="687" y="1427"/>
      <point x="699" y="1496" type="qcurve" smooth="yes"/>
      <point x="717" y="1596" type="line" smooth="yes"/>
      <point x="729" y="1670"/>
      <point x="642" y="1746"/>
      <point x="525" y="1746" type="qcurve"/>
      <point x="528" y="1746" type="line"/>
      <point x="477" y="1746"/>
      <point x="386" y="1746"/>
      <point x="314" y="1723"/>
      <point x="265" y="1665"/>
      <point x="255" y="1607" type="qcurve" smooth="yes"/>
      <point x="241" y="1526" type="line"/>
      <point x="437" y="1499" type="line"/>
      <point x="476" y="1725" type="line"/>
      <point x="476" y="1725"/>
      <point x="476" y="1725"/>
      <point x="476" y="1725" type="qcurve"/>
      <point x="494" y="1725" type="line" smooth="yes"/>
      <point x="516" y="1725"/>
      <point x="533" y="1690"/>
      <point x="529" y="1665" type="qcurve"/>
      <point x="486" y="1420" type="line" smooth="yes"/>
      <point x="481" y="1397"/>
      <point x="454" y="1364"/>
      <point x="433" y="1364" type="qcurve" smooth="yes"/>
      <point x="394" y="1364" type="line"/>
      <point x="391" y="1344" type="line"/>
      <point x="433" y="1344" type="line" smooth="yes"/>
      <point x="455" y="1344"/>
      <point x="473" y="1310"/>
      <point x="468" y="1286" type="qcurve" smooth="yes"/>
      <point x="425" y="1036" type="line" smooth="yes"/>
      <point x="420" y="1010"/>
      <point x="389" y="971"/>
      <point x="366" y="971" type="qcurve" smooth="yes"/>
      <point x="337" y="971" type="line"/>
      <point x="337" y="971"/>
      <point x="337" y="971"/>
      <point x="337" y="971" type="qcurve"/>
      <point x="378" y="1204" type="line"/>
    </contour>
  </outline>
</glyph>
<glyph name="uni00B5" format="2">
  <advance width="788"/>
  <unicode hex="00B5"/>
  <outline>
    <contour>
      <point x="-108" y="-428" type="line"/>
      <point x="146" y="-383" type="line"/>
      <point x="219" y="22" type="line"/>
      <point x="225.037" y="7.6626"/>
      <point x="255.135" y="-6"/>
      <point x="274" y="-6" type="qcurve"/>
      <point x="274" y="-6" type="line"/>
      <point x="292.11" y="-6"/>
      <point x="328.436" y="7.6626"/>
      <point x="339" y="22" type="qcurve"/>
      <point x="335" y="0" type="line"/>
      <point x="583" y="0" type="line"/>
      <point x="758" y="1000" type="line"/>
      <point x="510" y="1000" type="line"/>
      <point x="355" y="114" type="line" smooth="yes"/>
      <point x="347.454" y="70.9878"/>
      <point x="307.92" y="26"/>
      <point x="280" y="26" type="qcurve"/>
      <point x="280" y="26" type="line"/>
      <point x="252.08" y="26"/>
      <point x="227.454" y="70.9878"/>
      <point x="235" y="114" type="qcurve" smooth="yes"/>
      <point x="390" y="1000" type="line"/>
      <point x="142" y="1000" type="line"/>
    </contour>
  </outline>
</glyph>
<glyph name="paragraph" format="2">
  <advance width="810"/>
  <unicode hex="00B6"/>
  <outline>
    <contour>
      <point x="584" y="0" type="line"/>
      <point x="828" y="1400" type="line"/>
      <point x="534" y="1400" type="line" smooth="yes"/>
      <point x="383" y="1400"/>
      <point x="173" y="1299"/>
      <point x="144" y="1134" type="qcurve" smooth="yes"/>
      <point x="80" y="768" type="line" smooth="yes"/>
      <point x="65" y="683"/>
      <point x="94" y="574"/>
      <point x="172" y="513"/>
      <point x="296" y="490"/>
      <point x="376" y="490" type="qcurve" smooth="yes"/>
      <point x="406" y="490" type="line"/>
      <point x="320" y="0" type="line"/>
      <point x="400" y="0" type="line"/>
      <point x="638" y="1364" type="line"/>
      <point x="742" y="1364" type="line"/>
      <point x="504" y="0" type="line"/>
    </contour>
  </outline>
  <guideline angle="90" color="0.4,0.4,0.4,1" name="halfwidth" x="405" y="0"/>
</glyph>
<glyph name="cedilla" format="2">
  <advance width="333"/>
  <unicode hex="00B8"/>
  <outline>
    <contour>
      <point x="-53" y="-438" type="qcurve" smooth="yes"/>
      <point x="-12" y="-438"/>
      <point x="57" y="-420"/>
      <point x="110" y="-382"/>
      <point x="145" y="-324"/>
      <point x="152" y="-285" type="qcurve" smooth="yes"/>
      <point x="160" y="-243"/>
      <point x="150" y="-179"/>
      <point x="117" y="-134"/>
      <point x="61" y="-108"/>
      <point x="22" y="-105" type="qcurve"/>
      <point x="74" y="0" type="line"/>
      <point x="-12" y="0" type="line"/>
      <point x="-87" y="-141" type="line"/>
      <point x="-78" y="-136"/>
      <point x="-62" y="-133"/>
      <point x="-56" y="-133" type="qcurve" smooth="yes"/>
      <point x="-25" y="-133"/>
      <point x="-6" y="-195"/>
      <point x="-17" y="-261" type="qcurve" smooth="yes"/>
      <point x="-29" y="-330"/>
      <point x="-69" y="-406"/>
      <point x="-98" y="-406" type="qcurve" smooth="yes"/>
      <point x="-113" y="-406"/>
      <point x="-140" y="-382"/>
      <point x="-148" y="-365" type="qcurve"/>
      <point x="-177" y="-385" type="line"/>
      <point x="-153" y="-411"/>
      <point x="-101" y="-438"/>
    </contour>
  </outline>
</glyph>
<glyph name="ordmasculine" format="2">
  <advance width="608"/>
  <unicode hex="00BA"/>
  <outline>
    <contour>
      <point x="96" y="919" type="line" smooth="yes"/>
      <point x="82" y="840"/>
      <point x="151" y="772"/>
      <point x="245" y="772" type="qcurve" smooth="yes"/>
      <point x="397" y="772" type="line" smooth="yes"/>
      <point x="492" y="772"/>
      <point x="583" y="840"/>
      <point x="597" y="919" type="qcurve" smooth="yes"/>
      <point x="665" y="1308" type="line" smooth="yes"/>
      <point x="678" y="1383"/>
      <point x="608" y="1448"/>
      <point x="515" y="1448" type="qcurve" smooth="yes"/>
      <point x="363" y="1448" type="line" smooth="yes"/>
      <point x="270" y="1448"/>
      <point x="177" y="1383"/>
      <point x="164" y="1308" type="qcurve" smooth="yes"/>
    </contour>
    <contour>
      <point x="276" y="804" type="qcurve"/>
      <point x="383" y="1416" type="line"/>
      <point x="383" y="1416"/>
      <point x="383" y="1416"/>
      <point x="383" y="1416" type="qcurve"/>
      <point x="484" y="1416" type="line"/>
      <point x="484" y="1416"/>
      <point x="484" y="1416"/>
      <point x="484" y="1416" type="qcurve"/>
      <point x="377" y="804" type="line"/>
      <point x="377" y="804"/>
      <point x="377" y="804"/>
      <point x="377" y="804" type="qcurve"/>
      <point x="276" y="804" type="line"/>
      <point x="276" y="804"/>
      <point x="276" y="804"/>
    </contour>
  </outline>
</glyph>
<glyph name="guillemotright" format="2">
  <advance width="730"/>
  <unicode hex="00BB"/>
  <outline>
    <contour>
      <point x="438" y="870" type="line"/>
      <point x="408" y="870" type="line"/>
      <point x="466" y="500" type="line"/>
      <point x="279" y="130" type="line"/>
      <point x="309" y="130" type="line"/>
      <point x="664" y="500" type="line"/>
    </contour>
    <contour>
      <point x="97" y="870" type="line"/>
      <point x="67" y="870" type="line"/>
      <point x="125" y="500" type="line"/>
      <point x="-62" y="130" type="line"/>
      <point x="-32" y="130" type="line"/>
      <point x="323" y="500" type="line"/>
    </contour>
  </outline>
</glyph>
<glyph name="onequarter" format="2">
  <advance width="1162"/>
  <unicode hex="00BC"/>
  <outline>
    <contour>
      <point x="140" y="614" type="line"/>
      <point x="340" y="614" type="line"/>
      <point x="479" y="1406" type="line"/>
      <point x="144" y="1355" type="line"/>
      <point x="139" y="1325" type="line"/>
      <point x="268" y="1344" type="line"/>
    </contour>
    <contour>
      <point x="60" y="0" type="line"/>
      <point x="93" y="0" type="line"/>
      <point x="941" y="1400" type="line"/>
      <point x="908" y="1400" type="line"/>
    </contour>
    <contour>
      <point x="483" y="205" type="line"/>
      <point x="741" y="205" type="line"/>
      <point x="705" y="0" type="line"/>
      <point x="905" y="0" type="line"/>
      <point x="941" y="205" type="line"/>
      <point x="1023" y="205" type="line"/>
      <point x="1028" y="235" type="line"/>
      <point x="946" y="235" type="line"/>
      <point x="1042" y="784" type="line"/>
      <point x="972" y="784" type="line"/>
      <point x="487" y="231" type="line"/>
    </contour>
    <contour>
      <point x="531" y="235" type="line"/>
      <point x="800" y="543" type="line"/>
      <point x="746" y="235" type="line"/>
    </contour>
  </outline>
  <guideline angle="90" color="0.4,0.4,0.4,1" name="halfwidth" x="581" y="0"/>
</glyph>
<glyph name="onehalf" format="2">
  <advance width="1178"/>
  <unicode hex="00BD"/>
  <outline>
    <contour>
      <point x="139" y="614" type="line"/>
      <point x="339" y="614" type="line"/>
      <point x="478" y="1406" type="line"/>
      <point x="143" y="1355" type="line"/>
      <point x="138" y="1325" type="line"/>
      <point x="267" y="1344" type="line"/>
    </contour>
    <contour>
      <point x="908" y="1400" type="line"/>
      <point x="60" y="0" type="line"/>
      <point x="93" y="0" type="line"/>
      <point x="941" y="1400" type="line"/>
    </contour>
    <contour>
      <point x="526" y="0" type="line"/>
      <point x="803" y="0" type="line" smooth="yes"/>
      <point x="875" y="0"/>
      <point x="999" y="56"/>
      <point x="1015" y="146" type="qcurve" smooth="yes"/>
      <point x="1027" y="214" type="line"/>
      <point x="847" y="239" type="line"/>
      <point x="811" y="30" type="line"/>
      <point x="811" y="30"/>
      <point x="811" y="30"/>
      <point x="811" y="30" type="qcurve"/>
      <point x="724" y="30" type="line"/>
      <point x="774" y="316" type="line" smooth="yes"/>
      <point x="777" y="333"/>
      <point x="784" y="341"/>
      <point x="799" y="346" type="qcurve"/>
      <point x="950" y="388" type="line" smooth="yes"/>
      <point x="1012" y="405"/>
      <point x="1058" y="472"/>
      <point x="1067" y="524" type="qcurve" smooth="yes"/>
      <point x="1089" y="651" type="line" smooth="yes"/>
      <point x="1101" y="720"/>
      <point x="1007" y="790"/>
      <point x="924" y="790" type="qcurve" smooth="yes"/>
      <point x="853" y="790" type="line" smooth="yes"/>
      <point x="769" y="790"/>
      <point x="650" y="711"/>
      <point x="636" y="637" type="qcurve" smooth="yes"/>
      <point x="619" y="535" type="line"/>
      <point x="806" y="505" type="line"/>
      <point x="851" y="760" type="line"/>
      <point x="851" y="760"/>
      <point x="851" y="760"/>
      <point x="851" y="760" type="qcurve"/>
      <point x="916" y="760" type="line"/>
      <point x="916" y="760"/>
      <point x="916" y="760"/>
      <point x="916" y="760" type="qcurve"/>
      <point x="855" y="411" type="line" smooth="yes"/>
      <point x="853" y="398"/>
      <point x="847" y="391"/>
      <point x="833" y="387" type="qcurve" smooth="yes"/>
      <point x="693" y="348" type="line" smooth="yes"/>
      <point x="624" y="329"/>
      <point x="572" y="261"/>
      <point x="562" y="204" type="qcurve" smooth="yes"/>
    </contour>
  </outline>
  <guideline angle="90" color="0.4,0.4,0.4,1" name="halfwidth" x="589" y="0"/>
</glyph>
<glyph name="threequarters" format="2">
  <advance width="1370"/>
  <unicode hex="00BE"/>
  <outline>
    <contour>
      <point x="113" y="841" type="line"/>
      <point x="99" y="760" type="line" smooth="yes"/>
      <point x="82" y="665"/>
      <point x="203" y="614"/>
      <point x="297" y="614" type="qcurve" smooth="yes"/>
      <point x="319" y="614" type="line" smooth="yes"/>
      <point x="419" y="614"/>
      <point x="557" y="654"/>
      <point x="577" y="771" type="qcurve" smooth="yes"/>
      <point x="595" y="876" type="line" smooth="yes"/>
      <point x="610" y="959"/>
      <point x="523" y="1018"/>
      <point x="451" y="1023" type="qcurve"/>
      <point x="545" y="1036"/>
      <point x="627" y="1091"/>
      <point x="639" y="1160" type="qcurve" smooth="yes"/>
      <point x="657" y="1260" type="line" smooth="yes"/>
      <point x="669" y="1334"/>
      <point x="582" y="1410"/>
      <point x="465" y="1410" type="qcurve"/>
      <point x="468" y="1410" type="line"/>
      <point x="417" y="1410"/>
      <point x="326" y="1410"/>
      <point x="254" y="1387"/>
      <point x="205" y="1329"/>
      <point x="195" y="1271" type="qcurve" smooth="yes"/>
      <point x="181" y="1190" type="line"/>
      <point x="377" y="1163" type="line"/>
      <point x="416" y="1389" type="line"/>
      <point x="416" y="1389"/>
      <point x="416" y="1389"/>
      <point x="416" y="1389" type="qcurve"/>
      <point x="434" y="1389" type="line" smooth="yes"/>
      <point x="456" y="1389"/>
      <point x="473" y="1354"/>
      <point x="469" y="1329" type="qcurve"/>
      <point x="426" y="1084" type="line" smooth="yes"/>
      <point x="421" y="1061"/>
      <point x="394" y="1028"/>
      <point x="373" y="1028" type="qcurve" smooth="yes"/>
      <point x="334" y="1028" type="line"/>
      <point x="331" y="1008" type="line"/>
      <point x="373" y="1008" type="line" smooth="yes"/>
      <point x="395" y="1008"/>
      <point x="413" y="974"/>
      <point x="408" y="950" type="qcurve" smooth="yes"/>
      <point x="365" y="700" type="line" smooth="yes"/>
      <point x="360" y="674"/>
      <point x="329" y="635"/>
      <point x="306" y="635" type="qcurve" smooth="yes"/>
      <point x="277" y="635" type="line"/>
      <point x="277" y="635"/>
      <point x="277" y="635"/>
      <point x="277" y="635" type="qcurve"/>
      <point x="318" y="868" type="line"/>
    </contour>
    <contour>
      <point x="268" y="0" type="line"/>
      <point x="301" y="0" type="line"/>
      <point x="1149" y="1400" type="line"/>
      <point x="1116" y="1400" type="line"/>
    </contour>
    <contour>
      <point x="691" y="205" type="line"/>
      <point x="949" y="205" type="line"/>
      <point x="913" y="0" type="line"/>
      <point x="1113" y="0" type="line"/>
      <point x="1149" y="205" type="line"/>
      <point x="1231" y="205" type="line"/>
      <point x="1236" y="235" type="line"/>
      <point x="1154" y="235" type="line"/>
      <point x="1250" y="784" type="line"/>
      <point x="1180" y="784" type="line"/>
      <point x="695" y="231" type="line"/>
    </contour>
    <contour>
      <point x="739" y="235" type="line"/>
      <point x="1008" y="543" type="line"/>
      <point x="954" y="235" type="line"/>
    </contour>
  </outline>
</glyph>
<glyph name="questiondown" format="2">
  <advance width="709"/>
  <unicode hex="00BF"/>
  <outline>
    <contour>
      <point x="598" y="540" type="line"/>
      <point x="558" y="540" type="line"/>
      <point x="517" y="302" type="line"/>
      <point x="517" y="302"/>
      <point x="517" y="302"/>
      <point x="517" y="302" type="qcurve"/>
      <point x="406" y="300" type="line" smooth="yes"/>
      <point x="354.687" y="299.245"/>
      <point x="239.356" y="207.343"/>
      <point x="222" y="110" type="qcurve" smooth="yes"/>
      <point x="168" y="-199" type="line" smooth="yes"/>
      <point x="148.38" y="-312.19"/>
      <point x="255.117" y="-408"/>
      <point x="400" y="-408" type="qcurve" smooth="yes"/>
      <point x="434" y="-408" type="line" smooth="yes"/>
      <point x="577.374" y="-408"/>
      <point x="719.135" y="-310.681"/>
      <point x="738" y="-199" type="qcurve" smooth="yes"/>
      <point x="768" y="-32" type="line"/>
      <point x="540" y="16" type="line"/>
      <point x="472" y="-372" type="line"/>
      <point x="472" y="-372"/>
      <point x="472" y="-372"/>
      <point x="472" y="-372" type="qcurve"/>
      <point x="372" y="-372" type="line"/>
      <point x="372" y="-372"/>
      <point x="372" y="-372"/>
      <point x="372" y="-372" type="qcurve"/>
      <point x="470" y="189" type="line" smooth="yes"/>
      <point x="477.546" y="231.258"/>
      <point x="496.515" y="266"/>
      <point x="535" y="266" type="qcurve" smooth="yes"/>
      <point x="551" y="266" type="line"/>
      <point x="551.755" y="266"/>
      <point x="551" y="266"/>
      <point x="551" y="266" type="qcurve"/>
    </contour>
    <contour>
      <point x="782" y="891" type="line" smooth="yes"/>
      <point x="797.092" y="979.288"/>
      <point x="771.288" y="1010"/>
      <point x="683" y="1010" type="qcurve" smooth="yes"/>
      <point x="637" y="1010" type="line" smooth="yes"/>
      <point x="549.25" y="1010"/>
      <point x="512" y="978.75"/>
      <point x="497" y="891" type="qcurve" smooth="yes"/>
      <point x="478" y="782" type="line" smooth="yes"/>
      <point x="462.908" y="695.221"/>
      <point x="488.712" y="665"/>
      <point x="577" y="665" type="qcurve" smooth="yes"/>
      <point x="623" y="665" type="line" smooth="yes"/>
      <point x="710.75" y="665"/>
      <point x="748" y="695.75"/>
      <point x="763" y="782" type="qcurve" smooth="yes"/>
    </contour>
  </outline>
</glyph>
<glyph name="Agrave" format="2">
  <advance width="841"/>
  <unicode hex="00C0"/>
  <anchor x="568" y="1550" name="top"/>
  <anchor x="271" y="-150" name="bottom"/>
  <anchor x="448" y="0" name="ogonek_in"/>
  <anchor x="616" y="1485" name="topright"/>
  <outline>
    <contour>
      <point x="-120" y="0" type="line"/>
      <point x="-81" y="0" type="line"/>
      <point x="49" y="328" type="line"/>
      <point x="435" y="328" type="line"/>
      <point x="448" y="0" type="line"/>
      <point x="721" y="0" type="line"/>
      <point x="655" y="1400" type="line"/>
      <point x="434" y="1400" type="line"/>
    </contour>
    <contour>
      <point x="64" y="364" type="line"/>
      <point x="401" y="1216" type="line"/>
      <point x="434" y="364" type="line"/>
    </contour>
    <contour>
      <point x="652" y="1485" type="line"/>
      <point x="571" y="1800" type="line"/>
      <point x="322" y="1800" type="line"/>
      <point x="614" y="1485" type="line"/>
    </contour>
  </outline>
</glyph>
<glyph name="Aacute" format="2">
  <advance width="841"/>
  <unicode hex="00C1"/>
  <anchor x="568" y="1550" name="top"/>
  <anchor x="271" y="-150" name="bottom"/>
  <anchor x="448" y="0" name="ogonek_in"/>
  <anchor x="498" y="1485" name="topright"/>
  <outline>
    <contour>
      <point x="-120" y="0" type="line"/>
      <point x="-81" y="0" type="line"/>
      <point x="49" y="328" type="line"/>
      <point x="435" y="328" type="line"/>
      <point x="448" y="0" type="line"/>
      <point x="721" y="0" type="line"/>
      <point x="655" y="1400" type="line"/>
      <point x="434" y="1400" type="line"/>
    </contour>
    <contour>
      <point x="64" y="364" type="line"/>
      <point x="401" y="1216" type="line"/>
      <point x="434" y="364" type="line"/>
    </contour>
    <contour>
      <point x="454" y="1485" type="line"/>
      <point x="500" y="1485" type="line"/>
      <point x="903" y="1800" type="line"/>
      <point x="600" y="1800" type="line"/>
    </contour>
  </outline>
</glyph>
<glyph name="Atilde" format="2">
  <advance width="841"/>
  <unicode hex="00C3"/>
  <anchor x="624" y="1867" name="top"/>
  <anchor x="271" y="-150" name="bottom"/>
  <anchor x="448" y="0" name="ogonek_in"/>
  <outline>
    <contour>
      <point x="-120" y="0" type="line"/>
      <point x="-81" y="0" type="line"/>
      <point x="49" y="328" type="line"/>
      <point x="435" y="328" type="line"/>
      <point x="448" y="0" type="line"/>
      <point x="721" y="0" type="line"/>
      <point x="655" y="1400" type="line"/>
      <point x="434" y="1400" type="line"/>
    </contour>
    <contour>
      <point x="64" y="364" type="line"/>
      <point x="401" y="1216" type="line"/>
      <point x="434" y="364" type="line"/>
    </contour>
    <contour>
      <point x="355" y="1551" type="qcurve"/>
      <point x="384" y="1546" type="line"/>
      <point x="390.037" y="1560.34"/>
      <point x="417.061" y="1588"/>
      <point x="448" y="1588" type="qcurve" smooth="yes"/>
      <point x="466" y="1588"/>
      <point x="515.688" y="1570.5"/>
      <point x="572.312" y="1549.5"/>
      <point x="632.5" y="1532"/>
      <point x="661" y="1532" type="qcurve" smooth="yes"/>
      <point x="694.75" y="1532"/>
      <point x="742.406" y="1562.91"/>
      <point x="777.844" y="1617.84"/>
      <point x="804.875" y="1693.38"/>
      <point x="818" y="1738" type="qcurve"/>
      <point x="789" y="1743" type="line"/>
      <point x="783.718" y="1728.66"/>
      <point x="756.939" y="1701"/>
      <point x="726" y="1701" type="qcurve" smooth="yes"/>
      <point x="708" y="1701"/>
      <point x="655.781" y="1718.5"/>
      <point x="597.469" y="1739.5"/>
      <point x="538.125" y="1757"/>
      <point x="513" y="1757" type="qcurve" smooth="yes"/>
      <point x="479.25" y="1757"/>
      <point x="431.281" y="1726.09"/>
      <point x="395.469" y="1671.16"/>
      <point x="368.125" y="1595.62"/>
    </contour>
  </outline>
  <guideline angle="90" x="151" y="0"/>
  <guideline angle="90" x="581" y="0"/>
  <guideline angle="90" x="181" y="0"/>
  <guideline angle="90" x="551" y="0"/>
</glyph>
<glyph name="AE" format="2">
  <advance width="1124"/>
  <unicode hex="00C6"/>
  <anchor x="817" y="1550" name="top"/>
  <anchor x="369" y="-150" name="bottom"/>
  <outline>
    <contour>
      <point x="-120" y="0" type="line"/>
      <point x="-75" y="0" type="line"/>
      <point x="53" y="328" type="line"/>
      <point x="386" y="328" type="line"/>
      <point x="329" y="0" type="line"/>
      <point x="994" y="0" type="line"/>
      <point x="1000" y="36" type="line"/>
      <point x="599" y="36" type="line"/>
      <point x="715" y="700" type="line"/>
      <point x="1082" y="700" type="line"/>
      <point x="1088" y="736" type="line"/>
      <point x="721" y="736" type="line"/>
      <point x="831" y="1364" type="line"/>
      <point x="1218" y="1364" type="line"/>
      <point x="1224" y="1400" type="line"/>
      <point x="436" y="1400" type="line"/>
    </contour>
    <contour>
      <point x="68" y="364" type="line"/>
      <point x="459" y="1364" type="line"/>
      <point x="567" y="1364" type="line"/>
      <point x="393" y="364" type="line"/>
    </contour>
  </outline>
</glyph>
<glyph name="Ccedilla" format="2">
  <advance width="849"/>
  <unicode hex="00C7"/>
  <anchor x="590" y="1560" name="top"/>
  <anchor x="320" y="-160" name="bottom"/>
  <anchor x="320" y="0" name="ogrev"/>
  <outline>
    <contour>
      <point x="177" y="1136" type="qcurve" smooth="yes"/>
      <point x="27" y="276" type="line" smooth="yes"/>
      <point x="0" y="121"/>
      <point x="128" y="-10"/>
      <point x="309" y="-10" type="qcurve" smooth="yes"/>
      <point x="331" y="-10" type="line" smooth="yes"/>
      <point x="512" y="-10"/>
      <point x="688" y="121"/>
      <point x="715" y="276" type="qcurve" smooth="yes"/>
      <point x="750" y="474" type="line"/>
      <point x="495" y="526" type="line"/>
      <point x="408" y="26" type="line"/>
      <point x="408" y="26"/>
      <point x="408" y="26"/>
      <point x="408" y="26" type="qcurve"/>
      <point x="248" y="26" type="line"/>
      <point x="248" y="26"/>
      <point x="248" y="26"/>
      <point x="248" y="26" type="qcurve"/>
      <point x="483" y="1374" type="line"/>
      <point x="483" y="1374"/>
      <point x="483" y="1374"/>
      <point x="483" y="1374" type="qcurve"/>
      <point x="635" y="1374" type="line"/>
      <point x="635" y="1374"/>
      <point x="635" y="1374"/>
      <point x="635" y="1374" type="qcurve"/>
      <point x="552" y="900" type="line"/>
      <point x="824" y="948" type="line"/>
      <point x="857" y="1136" type="line" smooth="yes"/>
      <point x="883" y="1283"/>
      <point x="762" y="1410"/>
      <point x="571" y="1410" type="qcurve" smooth="yes"/>
      <point x="557" y="1410" type="line" smooth="yes"/>
      <point x="380" y="1410"/>
      <point x="203" y="1283"/>
    </contour>
    <contour>
      <point x="269" y="-445" type="qcurve" smooth="yes"/>
      <point x="350" y="-445"/>
      <point x="441" y="-348"/>
      <point x="441" y="-262" type="qcurve" smooth="yes"/>
      <point x="441" y="-184"/>
      <point x="366" y="-114"/>
      <point x="276" y="-115" type="qcurve"/>
      <point x="368" y="5" type="line"/>
      <point x="331" y="5" type="line"/>
      <point x="216" y="-146" type="line"/>
      <point x="224" y="-144"/>
      <point x="241" y="-142"/>
      <point x="249" y="-143" type="qcurve" smooth="yes"/>
      <point x="272" y="-145"/>
      <point x="292" y="-181"/>
      <point x="292" y="-219" type="qcurve" smooth="yes"/>
      <point x="292" y="-291"/>
      <point x="237" y="-408"/>
      <point x="202" y="-408" type="qcurve" smooth="yes"/>
      <point x="189" y="-408"/>
      <point x="155" y="-391"/>
      <point x="144" y="-380" type="qcurve"/>
      <point x="128" y="-397" type="line"/>
      <point x="151" y="-420"/>
      <point x="227" y="-445"/>
    </contour>
  </outline>
  <guideline angle="0" x="0" y="15"/>
</glyph>
<glyph name="Egrave" format="2">
  <advance width="693"/>
  <unicode hex="00C8"/>
  <anchor x="546" y="1550" name="top"/>
  <anchor x="249" y="-150" name="bottom"/>
  <anchor x="361" y="0" name="ogonek"/>
  <anchor x="594" y="1485" name="topright"/>
  <outline>
    <contour>
      <point x="-11" y="0" type="line"/>
      <point x="567" y="0" type="line"/>
      <point x="573" y="36" type="line"/>
      <point x="259" y="36" type="line"/>
      <point x="375" y="700" type="line"/>
      <point x="655" y="700" type="line"/>
      <point x="661" y="736" type="line"/>
      <point x="381" y="736" type="line"/>
      <point x="491" y="1364" type="line"/>
      <point x="791" y="1364" type="line"/>
      <point x="797" y="1400" type="line"/>
      <point x="233" y="1400" type="line"/>
    </contour>
    <contour>
      <point x="630" y="1485" type="line"/>
      <point x="549" y="1800" type="line"/>
      <point x="300" y="1800" type="line"/>
      <point x="592" y="1485" type="line"/>
    </contour>
  </outline>
  <guideline angle="90" x="-127" y="0"/>
</glyph>
<glyph name="Ecircumflex" format="2">
  <advance width="693"/>
  <unicode hex="00CA"/>
  <anchor x="605" y="1880" name="top"/>
  <anchor x="249" y="-150" name="bottom"/>
  <anchor x="361" y="0" name="ogonek"/>
  <anchor x="793" y="1575" name="topright"/>
  <outline>
    <contour>
      <point x="-11" y="0" type="line"/>
      <point x="567" y="0" type="line"/>
      <point x="573" y="36" type="line"/>
      <point x="259" y="36" type="line"/>
      <point x="375" y="700" type="line"/>
      <point x="655" y="700" type="line"/>
      <point x="661" y="736" type="line"/>
      <point x="381" y="736" type="line"/>
      <point x="491" y="1364" type="line"/>
      <point x="791" y="1364" type="line"/>
      <point x="797" y="1400" type="line"/>
      <point x="233" y="1400" type="line"/>
    </contour>
    <contour>
      <point x="377" y="1475" type="line"/>
      <point x="418" y="1475" type="line"/>
      <point x="526" y="1669" type="line"/>
      <point x="562" y="1475" type="line"/>
      <point x="775" y="1475" type="line"/>
      <point x="670" y="1800" type="line"/>
      <point x="560" y="1800" type="line"/>
    </contour>
  </outline>
  <guideline angle="90" x="-127" y="0"/>
</glyph>
<glyph name="Edieresis" format="2">
  <advance width="694"/>
  <unicode hex="00CB"/>
  <anchor x="608" y="1900" name="top"/>
  <anchor x="249" y="-150" name="bottom"/>
  <anchor x="361" y="0" name="ogonek"/>
  <outline>
    <contour>
      <point x="-11" y="0" type="line"/>
      <point x="567" y="0" type="line"/>
      <point x="573" y="36" type="line"/>
      <point x="259" y="36" type="line"/>
      <point x="375" y="700" type="line"/>
      <point x="655" y="700" type="line"/>
      <point x="661" y="736" type="line"/>
      <point x="381" y="736" type="line"/>
      <point x="491" y="1364" type="line"/>
      <point x="791" y="1364" type="line"/>
      <point x="797" y="1400" type="line"/>
      <point x="233" y="1400" type="line"/>
    </contour>
    <contour>
      <point x="303" y="1530" type="qcurve" smooth="yes"/>
      <point x="373" y="1530" type="line" smooth="yes"/>
      <point x="439" y="1530"/>
      <point x="467" y="1554"/>
      <point x="478" y="1620" type="qcurve" smooth="yes"/>
      <point x="491" y="1692" type="line" smooth="yes"/>
      <point x="502" y="1757"/>
      <point x="483" y="1780"/>
      <point x="417" y="1780" type="qcurve" smooth="yes"/>
      <point x="347" y="1780" type="line" smooth="yes"/>
      <point x="281" y="1780"/>
      <point x="252" y="1757"/>
      <point x="241" y="1692" type="qcurve" smooth="yes"/>
      <point x="228" y="1620" type="line" smooth="yes"/>
      <point x="217" y="1554"/>
      <point x="237" y="1530"/>
    </contour>
    <contour>
      <point x="713" y="1530" type="qcurve" smooth="yes"/>
      <point x="783" y="1530" type="line" smooth="yes"/>
      <point x="849" y="1530"/>
      <point x="877" y="1554"/>
      <point x="888" y="1620" type="qcurve" smooth="yes"/>
      <point x="901" y="1692" type="line" smooth="yes"/>
      <point x="912" y="1757"/>
      <point x="893" y="1780"/>
      <point x="827" y="1780" type="qcurve" smooth="yes"/>
      <point x="757" y="1780" type="line" smooth="yes"/>
      <point x="691" y="1780"/>
      <point x="662" y="1757"/>
      <point x="651" y="1692" type="qcurve" smooth="yes"/>
      <point x="638" y="1620" type="line" smooth="yes"/>
      <point x="627" y="1554"/>
      <point x="647" y="1530"/>
    </contour>
  </outline>
  <guideline angle="90" x="-127" y="0"/>
</glyph>
<glyph name="Iacute" format="2">
  <advance width="479"/>
  <unicode hex="00CD"/>
  <anchor x="392" y="1550" name="top"/>
  <anchor x="95" y="-150" name="bottom"/>
  <anchor x="-11" y="0" name="ogonek"/>
  <anchor x="322" y="1485" name="topright"/>
  <outline>
    <contour>
      <point x="-11" y="0" type="line"/>
      <point x="253" y="0" type="line"/>
      <point x="497" y="1400" type="line"/>
      <point x="233" y="1400" type="line"/>
    </contour>
    <contour>
      <point x="278" y="1485" type="line"/>
      <point x="324" y="1485" type="line"/>
      <point x="727" y="1800" type="line"/>
      <point x="424" y="1800" type="line"/>
    </contour>
  </outline>
</glyph>
<glyph name="Icircumflex" format="2">
  <advance width="476"/>
  <unicode hex="00CE"/>
  <anchor x="448" y="1880" name="top"/>
  <anchor x="92" y="-150" name="bottom"/>
  <anchor x="24" y="0" name="ogonek"/>
  <anchor x="636" y="1575" name="topright"/>
  <outline>
    <contour>
      <point x="-11" y="0" type="line"/>
      <point x="253" y="0" type="line"/>
      <point x="497" y="1400" type="line"/>
      <point x="233" y="1400" type="line"/>
    </contour>
    <contour>
      <point x="220" y="1475" type="line"/>
      <point x="261" y="1475" type="line"/>
      <point x="369" y="1669" type="line"/>
      <point x="405" y="1475" type="line"/>
      <point x="618" y="1475" type="line"/>
      <point x="513" y="1800" type="line"/>
      <point x="403" y="1800" type="line"/>
    </contour>
  </outline>
</glyph>
<glyph name="Idieresis" format="2">
  <advance width="476"/>
  <unicode hex="00CF"/>
  <anchor x="451" y="1900" name="top"/>
  <anchor x="92" y="-150" name="bottom"/>
  <anchor x="24" y="0" name="ogonek"/>
  <outline>
    <contour>
      <point x="-11" y="0" type="line"/>
      <point x="253" y="0" type="line"/>
      <point x="497" y="1400" type="line"/>
      <point x="233" y="1400" type="line"/>
    </contour>
    <contour>
      <point x="146" y="1530" type="qcurve" smooth="yes"/>
      <point x="216" y="1530" type="line" smooth="yes"/>
      <point x="282" y="1530"/>
      <point x="310" y="1554"/>
      <point x="321" y="1620" type="qcurve" smooth="yes"/>
      <point x="334" y="1692" type="line" smooth="yes"/>
      <point x="345" y="1757"/>
      <point x="326" y="1780"/>
      <point x="260" y="1780" type="qcurve" smooth="yes"/>
      <point x="190" y="1780" type="line" smooth="yes"/>
      <point x="124" y="1780"/>
      <point x="95" y="1757"/>
      <point x="84" y="1692" type="qcurve" smooth="yes"/>
      <point x="71" y="1620" type="line" smooth="yes"/>
      <point x="60" y="1554"/>
      <point x="80" y="1530"/>
    </contour>
    <contour>
      <point x="556" y="1530" type="qcurve" smooth="yes"/>
      <point x="626" y="1530" type="line" smooth="yes"/>
      <point x="692" y="1530"/>
      <point x="720" y="1554"/>
      <point x="731" y="1620" type="qcurve" smooth="yes"/>
      <point x="744" y="1692" type="line" smooth="yes"/>
      <point x="755" y="1757"/>
      <point x="736" y="1780"/>
      <point x="670" y="1780" type="qcurve" smooth="yes"/>
      <point x="600" y="1780" type="line" smooth="yes"/>
      <point x="534" y="1780"/>
      <point x="505" y="1757"/>
      <point x="494" y="1692" type="qcurve" smooth="yes"/>
      <point x="481" y="1620" type="line" smooth="yes"/>
      <point x="470" y="1554"/>
      <point x="490" y="1530"/>
    </contour>
  </outline>
</glyph>
<glyph name="Eth" format="2">
  <advance width="918"/>
  <unicode hex="00D0"/>
  <anchor x="413" y="1550" name="top"/>
  <anchor x="413" y="-150" name="bottom"/>
  <outline>
    <contour>
      <point x="-10" y="0" type="line"/>
      <point x="318" y="0" type="line" smooth="yes"/>
      <point x="430" y="0"/>
      <point x="592" y="49"/>
      <point x="714" y="195"/>
      <point x="803" y="462"/>
      <point x="841" y="680" type="qcurve" smooth="yes"/>
      <point x="877" y="887"/>
      <point x="894" y="1164"/>
      <point x="834" y="1330"/>
      <point x="688" y="1400"/>
      <point x="562" y="1400" type="qcurve" smooth="yes"/>
      <point x="234" y="1400" type="line"/>
      <point x="115" y="716" type="line"/>
      <point x="40" y="716" type="line"/>
      <point x="34" y="684" type="line"/>
      <point x="109" y="684" type="line"/>
    </contour>
    <contour>
      <point x="260" y="36" type="line"/>
      <point x="373" y="684" type="line"/>
      <point x="448" y="684" type="line"/>
      <point x="454" y="716" type="line"/>
      <point x="379" y="716" type="line"/>
      <point x="492" y="1364" type="line"/>
      <point x="566" y="1364" type="line" smooth="yes"/>
      <point x="604" y="1364"/>
      <point x="646" y="1319"/>
      <point x="652" y="1181"/>
      <point x="619" y="926"/>
      <point x="583" y="717" type="qcurve" smooth="yes"/>
      <point x="546" y="500"/>
      <point x="488" y="233"/>
      <point x="433" y="86"/>
      <point x="374" y="36"/>
      <point x="334" y="36" type="qcurve" smooth="yes"/>
    </contour>
  </outline>
</glyph>
<glyph name="Ntilde" format="2">
  <advance width="810"/>
  <unicode hex="00D1"/>
  <anchor x="612" y="1867" name="top"/>
  <anchor x="259" y="-150" name="bottom"/>
  <outline>
    <contour>
      <point x="-11" y="0" type="line"/>
      <point x="25" y="0" type="line"/>
      <point x="188" y="933" type="line"/>
      <point x="469" y="0" type="line"/>
      <point x="587" y="0" type="line"/>
      <point x="831" y="1400" type="line"/>
      <point x="795" y="1400" type="line"/>
      <point x="633" y="467" type="line"/>
      <point x="351" y="1400" type="line"/>
      <point x="233" y="1400" type="line"/>
    </contour>
    <contour>
      <point x="343" y="1551" type="qcurve"/>
      <point x="372" y="1546" type="line"/>
      <point x="378.037" y="1560.34"/>
      <point x="405.061" y="1588"/>
      <point x="436" y="1588" type="qcurve" smooth="yes"/>
      <point x="454" y="1588"/>
      <point x="503.688" y="1570.5"/>
      <point x="560.312" y="1549.5"/>
      <point x="620.5" y="1532"/>
      <point x="649" y="1532" type="qcurve" smooth="yes"/>
      <point x="682.75" y="1532"/>
      <point x="730.406" y="1562.91"/>
      <point x="765.844" y="1617.84"/>
      <point x="792.875" y="1693.38"/>
      <point x="806" y="1738" type="qcurve"/>
      <point x="777" y="1743" type="line"/>
      <point x="771.718" y="1728.66"/>
      <point x="744.939" y="1701"/>
      <point x="714" y="1701" type="qcurve" smooth="yes"/>
      <point x="696" y="1701"/>
      <point x="643.781" y="1718.5"/>
      <point x="585.469" y="1739.5"/>
      <point x="526.125" y="1757"/>
      <point x="501" y="1757" type="qcurve" smooth="yes"/>
      <point x="467.25" y="1757"/>
      <point x="419.281" y="1726.09"/>
      <point x="383.469" y="1671.16"/>
      <point x="356.125" y="1595.62"/>
    </contour>
  </outline>
  <guideline angle="90" x="139" y="0"/>
  <guideline angle="90" x="569" y="0"/>
  <guideline angle="90" x="169" y="0"/>
  <guideline angle="90" x="539" y="0"/>
</glyph>
<glyph name="Ocircumflex" format="2">
  <advance width="921"/>
  <unicode hex="00D4"/>
  <anchor x="672" y="1890" name="top"/>
  <anchor x="339" y="-160" name="bottom"/>
  <anchor x="835" y="1348" name="horn"/>
  <anchor x="339" y="0" name="ogonek"/>
  <anchor x="860" y="1585" name="topright"/>
  <outline>
    <contour>
      <point x="177" y="1136" type="qcurve" smooth="yes"/>
      <point x="27" y="276" type="line" smooth="yes"/>
      <point x="-4" y="99"/>
      <point x="158" y="-10"/>
      <point x="319" y="-10" type="qcurve" smooth="yes"/>
      <point x="359" y="-10" type="line" smooth="yes"/>
      <point x="520" y="-10"/>
      <point x="722" y="98"/>
      <point x="753" y="276" type="qcurve" smooth="yes"/>
      <point x="903" y="1136" type="line" smooth="yes"/>
      <point x="933" y="1307"/>
      <point x="759" y="1410"/>
      <point x="607" y="1410" type="qcurve" smooth="yes"/>
      <point x="567" y="1410" type="line" smooth="yes"/>
      <point x="416" y="1410"/>
      <point x="207" y="1307"/>
    </contour>
    <contour>
      <point x="483" y="1374" type="line"/>
      <point x="483" y="1374"/>
      <point x="483" y="1374"/>
      <point x="483" y="1374" type="qcurve"/>
      <point x="681" y="1374" type="line"/>
      <point x="681" y="1374"/>
      <point x="681" y="1374"/>
      <point x="681" y="1374" type="qcurve"/>
      <point x="446" y="26" type="line"/>
      <point x="446" y="26"/>
      <point x="446" y="26"/>
      <point x="446" y="26" type="qcurve"/>
      <point x="248" y="26" type="line"/>
      <point x="248" y="26"/>
      <point x="248" y="26"/>
      <point x="248" y="26" type="qcurve"/>
    </contour>
    <contour>
      <point x="444" y="1485" type="line"/>
      <point x="485" y="1485" type="line"/>
      <point x="593" y="1679" type="line"/>
      <point x="629" y="1485" type="line"/>
      <point x="842" y="1485" type="line"/>
      <point x="737" y="1810" type="line"/>
      <point x="627" y="1810" type="line"/>
    </contour>
  </outline>
</glyph>
<glyph name="Otilde" format="2">
  <advance width="921"/>
  <unicode hex="00D5"/>
  <anchor x="669" y="1877" name="top"/>
  <anchor x="339" y="-160" name="bottom"/>
  <anchor x="835" y="1348" name="horn"/>
  <anchor x="339" y="0" name="ogonek"/>
  <outline>
    <contour>
      <point x="177" y="1136" type="qcurve" smooth="yes"/>
      <point x="27" y="276" type="line" smooth="yes"/>
      <point x="-4" y="99"/>
      <point x="158" y="-10"/>
      <point x="319" y="-10" type="qcurve" smooth="yes"/>
      <point x="359" y="-10" type="line" smooth="yes"/>
      <point x="520" y="-10"/>
      <point x="722" y="98"/>
      <point x="753" y="276" type="qcurve" smooth="yes"/>
      <point x="903" y="1136" type="line" smooth="yes"/>
      <point x="933" y="1307"/>
      <point x="759" y="1410"/>
      <point x="607" y="1410" type="qcurve" smooth="yes"/>
      <point x="567" y="1410" type="line" smooth="yes"/>
      <point x="416" y="1410"/>
      <point x="207" y="1307"/>
    </contour>
    <contour>
      <point x="483" y="1374" type="line"/>
      <point x="483" y="1374"/>
      <point x="483" y="1374"/>
      <point x="483" y="1374" type="qcurve"/>
      <point x="681" y="1374" type="line"/>
      <point x="681" y="1374"/>
      <point x="681" y="1374"/>
      <point x="681" y="1374" type="qcurve"/>
      <point x="446" y="26" type="line"/>
      <point x="446" y="26"/>
      <point x="446" y="26"/>
      <point x="446" y="26" type="qcurve"/>
      <point x="248" y="26" type="line"/>
      <point x="248" y="26"/>
      <point x="248" y="26"/>
      <point x="248" y="26" type="qcurve"/>
    </contour>
    <contour>
      <point x="400" y="1561" type="qcurve"/>
      <point x="429" y="1556" type="line"/>
      <point x="435" y="1570"/>
      <point x="462" y="1598"/>
      <point x="493" y="1598" type="qcurve" smooth="yes"/>
      <point x="511" y="1598"/>
      <point x="561" y="1581"/>
      <point x="617" y="1560"/>
      <point x="678" y="1542"/>
      <point x="706" y="1542" type="qcurve" smooth="yes"/>
      <point x="740" y="1542"/>
      <point x="787" y="1573"/>
      <point x="823" y="1628"/>
      <point x="850" y="1703"/>
      <point x="863" y="1748" type="qcurve"/>
      <point x="834" y="1753" type="line"/>
      <point x="829" y="1739"/>
      <point x="802" y="1711"/>
      <point x="771" y="1711" type="qcurve" smooth="yes"/>
      <point x="753" y="1711"/>
      <point x="701" y="1729"/>
      <point x="642" y="1750"/>
      <point x="583" y="1767"/>
      <point x="558" y="1767" type="qcurve" smooth="yes"/>
      <point x="524" y="1767"/>
      <point x="476" y="1736"/>
      <point x="440" y="1681"/>
      <point x="413" y="1606"/>
    </contour>
  </outline>
  <guideline angle="90" x="196" y="0"/>
  <guideline angle="90" x="626" y="0"/>
  <guideline angle="90" x="226" y="0"/>
  <guideline angle="90" x="596" y="0"/>
</glyph>
<glyph name="Odieresis" format="2">
  <advance width="918"/>
  <unicode hex="00D6"/>
  <anchor x="682" y="1910" name="top"/>
  <anchor x="321" y="-160" name="bottom"/>
  <anchor x="900" y="1136" name="horn"/>
  <anchor x="364" y="0" name="ogonek"/>
  <outline>
    <contour>
      <point x="177" y="1136" type="qcurve" smooth="yes"/>
      <point x="27" y="276" type="line" smooth="yes"/>
      <point x="-4" y="99"/>
      <point x="158" y="-10"/>
      <point x="319" y="-10" type="qcurve" smooth="yes"/>
      <point x="359" y="-10" type="line" smooth="yes"/>
      <point x="520" y="-10"/>
      <point x="722" y="98"/>
      <point x="753" y="276" type="qcurve" smooth="yes"/>
      <point x="903" y="1136" type="line" smooth="yes"/>
      <point x="933" y="1307"/>
      <point x="759" y="1410"/>
      <point x="607" y="1410" type="qcurve" smooth="yes"/>
      <point x="567" y="1410" type="line" smooth="yes"/>
      <point x="416" y="1410"/>
      <point x="207" y="1307"/>
    </contour>
    <contour>
      <point x="483" y="1374" type="line"/>
      <point x="483" y="1374"/>
      <point x="483" y="1374"/>
      <point x="483" y="1374" type="qcurve"/>
      <point x="681" y="1374" type="line"/>
      <point x="681" y="1374"/>
      <point x="681" y="1374"/>
      <point x="681" y="1374" type="qcurve"/>
      <point x="446" y="26" type="line"/>
      <point x="446" y="26"/>
      <point x="446" y="26"/>
      <point x="446" y="26" type="qcurve"/>
      <point x="248" y="26" type="line"/>
      <point x="248" y="26"/>
      <point x="248" y="26"/>
      <point x="248" y="26" type="qcurve"/>
    </contour>
    <contour>
      <point x="377" y="1540" type="qcurve" smooth="yes"/>
      <point x="447" y="1540" type="line" smooth="yes"/>
      <point x="513" y="1540"/>
      <point x="541" y="1564"/>
      <point x="552" y="1630" type="qcurve" smooth="yes"/>
      <point x="565" y="1702" type="line" smooth="yes"/>
      <point x="576" y="1767"/>
      <point x="557" y="1790"/>
      <point x="491" y="1790" type="qcurve" smooth="yes"/>
      <point x="421" y="1790" type="line" smooth="yes"/>
      <point x="355" y="1790"/>
      <point x="326" y="1767"/>
      <point x="315" y="1702" type="qcurve" smooth="yes"/>
      <point x="302" y="1630" type="line" smooth="yes"/>
      <point x="291" y="1564"/>
      <point x="311" y="1540"/>
    </contour>
    <contour>
      <point x="787" y="1540" type="qcurve" smooth="yes"/>
      <point x="857" y="1540" type="line" smooth="yes"/>
      <point x="923" y="1540"/>
      <point x="951" y="1564"/>
      <point x="962" y="1630" type="qcurve" smooth="yes"/>
      <point x="975" y="1702" type="line" smooth="yes"/>
      <point x="986" y="1767"/>
      <point x="967" y="1790"/>
      <point x="901" y="1790" type="qcurve" smooth="yes"/>
      <point x="831" y="1790" type="line" smooth="yes"/>
      <point x="765" y="1790"/>
      <point x="736" y="1767"/>
      <point x="725" y="1702" type="qcurve" smooth="yes"/>
      <point x="712" y="1630" type="line" smooth="yes"/>
      <point x="701" y="1564"/>
      <point x="721" y="1540"/>
    </contour>
  </outline>
</glyph>
<glyph name="multiply" format="2">
  <advance width="649"/>
  <unicode hex="00D7"/>
  <outline>
    <contour>
      <point x="81" y="297" type="line"/>
      <point x="305" y="555" type="line"/>
      <point x="439" y="297" type="line"/>
      <point x="471" y="317" type="line"/>
      <point x="331" y="586" type="line"/>
      <point x="565" y="854" type="line"/>
      <point x="536" y="878" type="line"/>
      <point x="312" y="620" type="line"/>
      <point x="178" y="878" type="line"/>
      <point x="146" y="858" type="line"/>
      <point x="286" y="589" type="line"/>
      <point x="53" y="320" type="line"/>
    </contour>
  </outline>
  <guideline angle="31.4328" color="1,0,0,1" x="60" y="140"/>
  <guideline angle="322.193" color="1,0,0,1" x="190" y="1003"/>
</glyph>
<glyph name="Ucircumflex" format="2">
  <advance width="914"/>
  <unicode hex="00DB"/>
  <anchor x="667" y="1880" name="top"/>
  <anchor x="311" y="-150" name="bottom"/>
  <anchor x="356" y="0" name="ogonek"/>
  <anchor x="937" y="1400" name="horn"/>
  <anchor x="855" y="1575" name="topright"/>
  <outline>
    <contour>
      <point x="228" y="1400" type="line"/>
      <point x="32" y="276" type="line" smooth="yes"/>
      <point x="17" y="188"/>
      <point x="44" y="76"/>
      <point x="122" y="13"/>
      <point x="245" y="-10"/>
      <point x="324" y="-10" type="qcurve" smooth="yes"/>
      <point x="350" y="-10" type="line" smooth="yes"/>
      <point x="511" y="-10"/>
      <point x="713" y="99"/>
      <point x="744" y="276" type="qcurve" smooth="yes"/>
      <point x="940" y="1400" type="line"/>
      <point x="676" y="1400" type="line"/>
      <point x="437" y="26" type="line"/>
      <point x="437" y="26"/>
      <point x="437" y="26"/>
      <point x="437" y="26" type="qcurve"/>
      <point x="253" y="26" type="line"/>
      <point x="253" y="26"/>
      <point x="253" y="26"/>
      <point x="253" y="26" type="qcurve"/>
      <point x="492" y="1400" type="line"/>
    </contour>
    <contour>
      <point x="439" y="1475" type="line"/>
      <point x="480" y="1475" type="line"/>
      <point x="588" y="1669" type="line"/>
      <point x="624" y="1475" type="line"/>
      <point x="837" y="1475" type="line"/>
      <point x="732" y="1800" type="line"/>
      <point x="622" y="1800" type="line"/>
    </contour>
  </outline>
</glyph>
<glyph name="Udieresis" format="2">
  <advance width="914"/>
  <unicode hex="00DC"/>
  <anchor x="670" y="1900" name="top"/>
  <anchor x="311" y="-150" name="bottom"/>
  <anchor x="356" y="0" name="ogonek"/>
  <anchor x="937" y="1400" name="horn"/>
  <outline>
    <contour>
      <point x="228" y="1400" type="line"/>
      <point x="32" y="276" type="line" smooth="yes"/>
      <point x="16.625" y="187.5"/>
      <point x="44.4062" y="76"/>
      <point x="121.844" y="13"/>
      <point x="244.5" y="-10"/>
      <point x="324" y="-10" type="qcurve" smooth="yes"/>
      <point x="350" y="-10" type="line" smooth="yes"/>
      <point x="510.5" y="-10"/>
      <point x="713.25" y="99"/>
      <point x="744" y="276" type="qcurve" smooth="yes"/>
      <point x="940" y="1400" type="line"/>
      <point x="676" y="1400" type="line"/>
      <point x="437" y="26" type="line"/>
      <point x="437" y="26"/>
      <point x="437" y="26"/>
      <point x="437" y="26" type="qcurve"/>
      <point x="253" y="26" type="line"/>
      <point x="253" y="26"/>
      <point x="253" y="26"/>
      <point x="253" y="26" type="qcurve"/>
      <point x="492" y="1400" type="line"/>
    </contour>
    <contour>
      <point x="365" y="1530" type="qcurve" smooth="yes"/>
      <point x="435" y="1530" type="line" smooth="yes"/>
      <point x="501.405" y="1530"/>
      <point x="528.681" y="1553.6"/>
      <point x="540" y="1620" type="qcurve" smooth="yes"/>
      <point x="553" y="1692" type="line" smooth="yes"/>
      <point x="564.319" y="1756.9"/>
      <point x="545.405" y="1780"/>
      <point x="479" y="1780" type="qcurve" smooth="yes"/>
      <point x="409" y="1780" type="line" smooth="yes"/>
      <point x="342.595" y="1780"/>
      <point x="314.319" y="1756.9"/>
      <point x="303" y="1692" type="qcurve" smooth="yes"/>
      <point x="290" y="1620" type="line" smooth="yes"/>
      <point x="278.681" y="1553.6"/>
      <point x="298.595" y="1530"/>
    </contour>
    <contour>
      <point x="775" y="1530" type="qcurve" smooth="yes"/>
      <point x="845" y="1530" type="line" smooth="yes"/>
      <point x="911.405" y="1530"/>
      <point x="938.681" y="1553.6"/>
      <point x="950" y="1620" type="qcurve" smooth="yes"/>
      <point x="963" y="1692" type="line" smooth="yes"/>
      <point x="974.319" y="1756.9"/>
      <point x="955.405" y="1780"/>
      <point x="889" y="1780" type="qcurve" smooth="yes"/>
      <point x="819" y="1780" type="line" smooth="yes"/>
      <point x="752.595" y="1780"/>
      <point x="724.319" y="1756.9"/>
      <point x="713" y="1692" type="qcurve" smooth="yes"/>
      <point x="700" y="1620" type="line" smooth="yes"/>
      <point x="688.681" y="1553.6"/>
      <point x="708.595" y="1530"/>
    </contour>
  </outline>
</glyph>
<glyph name="Yacute" format="2">
  <advance width="794"/>
  <unicode hex="00DD"/>
  <anchor x="550" y="1550" name="top"/>
  <anchor x="280" y="-150" name="bottom"/>
  <anchor x="480" y="1485" name="topright"/>
  <outline>
    <contour>
      <point x="148" y="0" type="line"/>
      <point x="412" y="0" type="line"/>
      <point x="511" y="569" type="line"/>
      <point x="920" y="1400" type="line"/>
      <point x="880" y="1400" type="line"/>
      <point x="499" y="626" type="line"/>
      <point x="392" y="1400" type="line"/>
      <point x="127" y="1400" type="line"/>
      <point x="247" y="568" type="line"/>
    </contour>
    <contour>
      <point x="436" y="1485" type="line"/>
      <point x="482" y="1485" type="line"/>
      <point x="885" y="1800" type="line"/>
      <point x="582" y="1800" type="line"/>
    </contour>
  </outline>
  <guideline angle="260.1" color="1,0,0,1" x="342" y="0"/>
</glyph>
<glyph name="Thorn" format="2">
  <advance width="873"/>
  <unicode hex="00DE"/>
  <outline>
    <contour>
      <point x="-35" y="0" type="line"/>
      <point x="229" y="0" type="line"/>
      <point x="286" y="325" type="line"/>
      <point x="396" y="325" type="line" smooth="yes"/>
      <point x="472" y="325"/>
      <point x="602" y="347"/>
      <point x="704" y="407"/>
      <point x="773" y="514"/>
      <point x="788" y="599" type="qcurve" smooth="yes"/>
      <point x="831" y="849" type="line" smooth="yes"/>
      <point x="846" y="935"/>
      <point x="814" y="1042"/>
      <point x="733" y="1102"/>
      <point x="611" y="1123"/>
      <point x="535" y="1123" type="qcurve" smooth="yes"/>
      <point x="425" y="1123" type="line"/>
      <point x="473" y="1400" type="line"/>
      <point x="209" y="1400" type="line"/>
    </contour>
    <contour>
      <point x="292" y="361" type="line"/>
      <point x="419" y="1087" type="line"/>
      <point x="513" y="1087" type="line" smooth="yes"/>
      <point x="537" y="1087"/>
      <point x="571" y="1076"/>
      <point x="591" y="1055"/>
      <point x="598" y="1025"/>
      <point x="595" y="1007" type="qcurve" smooth="yes"/>
      <point x="496" y="441" type="line" smooth="yes"/>
      <point x="493" y="423"/>
      <point x="476" y="394"/>
      <point x="448" y="373"/>
      <point x="410" y="361"/>
      <point x="386" y="361" type="qcurve" smooth="yes"/>
    </contour>
  </outline>
  <guideline angle="90" color="0.4,0.4,0.4,1" name="halfwidth" x="437" y="0"/>
</glyph>
<glyph name="germandbls" format="2">
  <advance width="747"/>
  <unicode hex="00DF"/>
  <outline>
    <contour>
      <point x="-39" y="0" type="line"/>
      <point x="209" y="0" type="line"/>
      <point x="457" y="1422" type="line"/>
      <point x="457" y="1422"/>
      <point x="457" y="1422"/>
      <point x="457" y="1422" type="qcurve"/>
      <point x="557" y="1422" type="line"/>
      <point x="557" y="1422"/>
      <point x="557" y="1422"/>
      <point x="557" y="1422" type="qcurve"/>
      <point x="484" y="1000" type="line"/>
      <point x="484" y="1000"/>
      <point x="484" y="1000"/>
      <point x="484" y="1000" type="qcurve"/>
      <point x="448" y="1000" type="line"/>
      <point x="442" y="968" type="line"/>
      <point x="478" y="968" type="line"/>
      <point x="478" y="968"/>
      <point x="473" y="968"/>
      <point x="478" y="968" type="qcurve"/>
      <point x="312" y="26" type="line"/>
      <point x="312" y="26"/>
      <point x="305" y="26"/>
      <point x="312" y="26" type="qcurve"/>
      <point x="274" y="26" type="line"/>
      <point x="268" y="-6" type="line"/>
      <point x="318" y="-6" type="line" smooth="yes"/>
      <point x="434" y="-6"/>
      <point x="577" y="71"/>
      <point x="600" y="198" type="qcurve" smooth="yes"/>
      <point x="705" y="804" type="line" smooth="yes"/>
      <point x="720" y="889"/>
      <point x="670" y="972"/>
      <point x="616" y="987" type="qcurve"/>
      <point x="680" y="1008"/>
      <point x="749" y="1103"/>
      <point x="763" y="1182" type="qcurve" smooth="yes"/>
      <point x="775" y="1250" type="line" smooth="yes"/>
      <point x="794" y="1359"/>
      <point x="692" y="1454"/>
      <point x="555" y="1454" type="qcurve" smooth="yes"/>
      <point x="471" y="1454" type="line" smooth="yes"/>
      <point x="334" y="1454"/>
      <point x="198" y="1359"/>
      <point x="179" y="1250" type="qcurve" smooth="yes"/>
    </contour>
  </outline>
</glyph>
<glyph name="atilde" format="2">
  <advance width="741"/>
  <unicode hex="00E3"/>
  <anchor x="510" y="1440" name="top"/>
  <anchor x="255" y="-150" name="bottom"/>
  <anchor x="328" y="0" name="ogonek"/>
  <outline>
    <contour>
      <point x="187" y="-6" type="qcurve" smooth="yes"/>
      <point x="221" y="-6" type="line" smooth="yes"/>
      <point x="248" y="-6"/>
      <point x="289" y="8"/>
      <point x="302" y="22" type="qcurve"/>
      <point x="298" y="0" type="line"/>
      <point x="546" y="0" type="line"/>
      <point x="687" y="810" type="line" smooth="yes"/>
      <point x="709" y="934"/>
      <point x="586" y="1006"/>
      <point x="476" y="1006" type="qcurve" smooth="yes"/>
      <point x="378" y="1006" type="line" smooth="yes"/>
      <point x="268" y="1006"/>
      <point x="119" y="934"/>
      <point x="97" y="810" type="qcurve" smooth="yes"/>
      <point x="88" y="754" type="line"/>
      <point x="328" y="708" type="line"/>
      <point x="374" y="974" type="line"/>
      <point x="374" y="974"/>
      <point x="374" y="974"/>
      <point x="374" y="974" type="qcurve"/>
      <point x="468" y="974" type="line"/>
      <point x="468" y="974"/>
      <point x="468" y="974"/>
      <point x="468" y="974" type="qcurve"/>
      <point x="391" y="534" type="line"/>
      <point x="263" y="534" type="line" smooth="yes"/>
      <point x="169" y="534"/>
      <point x="23" y="463"/>
      <point x="1" y="340" type="qcurve" smooth="yes"/>
      <point x="-20" y="218" type="line" smooth="yes"/>
      <point x="-42" y="91"/>
      <point x="71" y="-6"/>
    </contour>
    <contour>
      <point x="195" y="26" type="qcurve"/>
      <point x="278" y="502" type="line"/>
      <point x="278" y="502"/>
      <point x="278" y="502"/>
      <point x="278" y="502" type="qcurve"/>
      <point x="386" y="502" type="line"/>
      <point x="303" y="26" type="line"/>
      <point x="195" y="26" type="line"/>
      <point x="195" y="26"/>
      <point x="195" y="26"/>
    </contour>
    <contour>
      <point x="244" y="1133" type="qcurve"/>
      <point x="273" y="1128" type="line"/>
      <point x="278" y="1142"/>
      <point x="306" y="1173"/>
      <point x="337" y="1173" type="qcurve" smooth="yes"/>
      <point x="355" y="1173"/>
      <point x="405" y="1155"/>
      <point x="462" y="1132"/>
      <point x="522" y="1114"/>
      <point x="549" y="1114" type="qcurve" smooth="yes"/>
      <point x="617" y="1114"/>
      <point x="680" y="1227"/>
      <point x="706" y="1316" type="qcurve"/>
      <point x="677" y="1321" type="line"/>
      <point x="672" y="1307"/>
      <point x="644" y="1276"/>
      <point x="613" y="1276" type="qcurve" smooth="yes"/>
      <point x="595" y="1276"/>
      <point x="542" y="1294"/>
      <point x="483" y="1317"/>
      <point x="424" y="1335"/>
      <point x="400" y="1335" type="qcurve" smooth="yes"/>
      <point x="333" y="1335"/>
      <point x="270" y="1222"/>
    </contour>
  </outline>
  <guideline angle="260.1" color="1,0,0,1" x="318" y="-0"/>
</glyph>
<glyph name="adieresis" format="2">
  <advance width="741"/>
  <unicode hex="00E4"/>
  <anchor x="511" y="1443" name="top"/>
  <anchor x="255" y="-150" name="bottom"/>
  <anchor x="328" y="0" name="ogonek"/>
  <outline>
    <contour>
      <point x="187" y="-6" type="qcurve" smooth="yes"/>
      <point x="221" y="-6" type="line" smooth="yes"/>
      <point x="248" y="-6"/>
      <point x="289" y="8"/>
      <point x="302" y="22" type="qcurve"/>
      <point x="298" y="0" type="line"/>
      <point x="546" y="0" type="line"/>
      <point x="687" y="810" type="line" smooth="yes"/>
      <point x="709" y="934"/>
      <point x="586" y="1006"/>
      <point x="476" y="1006" type="qcurve" smooth="yes"/>
      <point x="378" y="1006" type="line" smooth="yes"/>
      <point x="268" y="1006"/>
      <point x="119" y="934"/>
      <point x="97" y="810" type="qcurve" smooth="yes"/>
      <point x="88" y="754" type="line"/>
      <point x="328" y="708" type="line"/>
      <point x="374" y="974" type="line"/>
      <point x="374" y="974"/>
      <point x="374" y="974"/>
      <point x="374" y="974" type="qcurve"/>
      <point x="468" y="974" type="line"/>
      <point x="468" y="974"/>
      <point x="468" y="974"/>
      <point x="468" y="974" type="qcurve"/>
      <point x="391" y="534" type="line"/>
      <point x="263" y="534" type="line" smooth="yes"/>
      <point x="169" y="534"/>
      <point x="23" y="463"/>
      <point x="1" y="340" type="qcurve" smooth="yes"/>
      <point x="-20" y="218" type="line" smooth="yes"/>
      <point x="-42" y="91"/>
      <point x="71" y="-6"/>
    </contour>
    <contour>
      <point x="195" y="26" type="qcurve"/>
      <point x="278" y="502" type="line"/>
      <point x="278" y="502"/>
      <point x="278" y="502"/>
      <point x="278" y="502" type="qcurve"/>
      <point x="386" y="502" type="line"/>
      <point x="303" y="26" type="line"/>
      <point x="195" y="26" type="line"/>
      <point x="195" y="26"/>
      <point x="195" y="26"/>
    </contour>
    <contour>
      <point x="274" y="1120" type="qcurve" smooth="yes"/>
      <point x="314" y="1120" type="line" smooth="yes"/>
      <point x="380" y="1120"/>
      <point x="408" y="1144"/>
      <point x="419" y="1210" type="qcurve" smooth="yes"/>
      <point x="430" y="1272" type="line" smooth="yes"/>
      <point x="442" y="1337"/>
      <point x="422" y="1360"/>
      <point x="356" y="1360" type="qcurve" smooth="yes"/>
      <point x="316" y="1360" type="line" smooth="yes"/>
      <point x="250" y="1360"/>
      <point x="222" y="1337"/>
      <point x="210" y="1272" type="qcurve" smooth="yes"/>
      <point x="199" y="1210" type="line" smooth="yes"/>
      <point x="188" y="1144"/>
      <point x="208" y="1120"/>
    </contour>
    <contour>
      <point x="594" y="1120" type="qcurve" smooth="yes"/>
      <point x="634" y="1120" type="line" smooth="yes"/>
      <point x="700" y="1120"/>
      <point x="728" y="1144"/>
      <point x="739" y="1210" type="qcurve" smooth="yes"/>
      <point x="750" y="1272" type="line" smooth="yes"/>
      <point x="762" y="1337"/>
      <point x="742" y="1360"/>
      <point x="676" y="1360" type="qcurve" smooth="yes"/>
      <point x="636" y="1360" type="line" smooth="yes"/>
      <point x="570" y="1360"/>
      <point x="542" y="1337"/>
      <point x="530" y="1272" type="qcurve" smooth="yes"/>
      <point x="519" y="1210" type="line" smooth="yes"/>
      <point x="508" y="1144"/>
      <point x="528" y="1120"/>
    </contour>
  </outline>
  <guideline angle="260.1" color="1,0,0,1" x="318" y="-0"/>
</glyph>
<glyph name="aring" format="2">
  <advance width="741"/>
  <unicode hex="00E5"/>
  <anchor x="523" y="1510" name="top"/>
  <anchor x="255" y="-150" name="bottom"/>
  <anchor x="328" y="0" name="ogonek"/>
  <outline>
    <contour>
      <point x="187" y="-6" type="qcurve" smooth="yes"/>
      <point x="221" y="-6" type="line" smooth="yes"/>
      <point x="248" y="-6"/>
      <point x="289" y="8"/>
      <point x="302" y="22" type="qcurve"/>
      <point x="298" y="0" type="line"/>
      <point x="546" y="0" type="line"/>
      <point x="687" y="810" type="line" smooth="yes"/>
      <point x="709" y="934"/>
      <point x="586" y="1006"/>
      <point x="476" y="1006" type="qcurve" smooth="yes"/>
      <point x="378" y="1006" type="line" smooth="yes"/>
      <point x="268" y="1006"/>
      <point x="119" y="934"/>
      <point x="97" y="810" type="qcurve" smooth="yes"/>
      <point x="88" y="754" type="line"/>
      <point x="328" y="708" type="line"/>
      <point x="374" y="974" type="line"/>
      <point x="374" y="974"/>
      <point x="374" y="974"/>
      <point x="374" y="974" type="qcurve"/>
      <point x="468" y="974" type="line"/>
      <point x="468" y="974"/>
      <point x="468" y="974"/>
      <point x="468" y="974" type="qcurve"/>
      <point x="391" y="534" type="line"/>
      <point x="263" y="534" type="line" smooth="yes"/>
      <point x="169" y="534"/>
      <point x="23" y="463"/>
      <point x="1" y="340" type="qcurve" smooth="yes"/>
      <point x="-20" y="218" type="line" smooth="yes"/>
      <point x="-42" y="91"/>
      <point x="71" y="-6"/>
    </contour>
    <contour>
      <point x="195" y="26" type="qcurve"/>
      <point x="278" y="502" type="line"/>
      <point x="278" y="502"/>
      <point x="278" y="502"/>
      <point x="278" y="502" type="qcurve"/>
      <point x="386" y="502" type="line"/>
      <point x="303" y="26" type="line"/>
      <point x="195" y="26" type="line"/>
      <point x="195" y="26"/>
      <point x="195" y="26"/>
    </contour>
    <contour>
      <point x="449" y="1094" type="qcurve" smooth="yes"/>
      <point x="509" y="1094"/>
      <point x="584" y="1104"/>
      <point x="631" y="1136"/>
      <point x="657" y="1197"/>
      <point x="666" y="1248" type="qcurve" smooth="yes"/>
      <point x="675" y="1299"/>
      <point x="671" y="1360"/>
      <point x="635" y="1391"/>
      <point x="563" y="1400"/>
      <point x="503" y="1400" type="qcurve" smooth="yes"/>
      <point x="443" y="1400"/>
      <point x="368" y="1391"/>
      <point x="321" y="1360"/>
      <point x="297" y="1299"/>
      <point x="288" y="1248" type="qcurve" smooth="yes"/>
      <point x="279" y="1197"/>
      <point x="282" y="1136"/>
      <point x="317" y="1104"/>
      <point x="389" y="1094"/>
    </contour>
    <contour>
      <point x="454" y="1122" type="qcurve" smooth="yes"/>
      <point x="413" y="1122"/>
      <point x="400" y="1164"/>
      <point x="415" y="1248" type="qcurve" smooth="yes"/>
      <point x="429" y="1330"/>
      <point x="457" y="1372"/>
      <point x="498" y="1372" type="qcurve" smooth="yes"/>
      <point x="540" y="1372"/>
      <point x="553" y="1330"/>
      <point x="539" y="1248" type="qcurve" smooth="yes"/>
      <point x="524" y="1164"/>
      <point x="495" y="1122"/>
    </contour>
  </outline>
  <guideline angle="260.1" color="1,0,0,1" x="318" y="-0"/>
</glyph>
<glyph name="ccedilla" format="2">
  <advance width="755"/>
  <unicode hex="00E7"/>
  <anchor x="466" y="1150" name="top"/>
  <anchor x="266" y="-150" name="bottom"/>
  <anchor x="266" y="0" name="ogrev"/>
  <outline>
    <contour>
      <point x="-11" y="208" type="line" smooth="yes"/>
      <point x="-31.3742" y="91.7916"/>
      <point x="67.6444" y="-6"/>
      <point x="208" y="-6" type="qcurve" smooth="yes"/>
      <point x="324" y="-6" type="line" smooth="yes"/>
      <point x="464.356" y="-6"/>
      <point x="596.626" y="91.7916"/>
      <point x="617" y="208" type="qcurve" smooth="yes"/>
      <point x="634" y="302" type="line"/>
      <point x="394" y="352" type="line"/>
      <point x="338" y="26" type="line"/>
      <point x="338" y="26"/>
      <point x="338" y="26"/>
      <point x="338" y="26" type="qcurve"/>
      <point x="206" y="26" type="line"/>
      <point x="206" y="26"/>
      <point x="206" y="26"/>
      <point x="206" y="26" type="qcurve"/>
      <point x="371" y="974" type="line"/>
      <point x="371" y="974"/>
      <point x="371" y="974"/>
      <point x="371" y="974" type="qcurve"/>
      <point x="499" y="974" type="line"/>
      <point x="499" y="974"/>
      <point x="499" y="974"/>
      <point x="499" y="974" type="qcurve"/>
      <point x="443" y="654" type="line"/>
      <point x="699" y="700" type="line"/>
      <point x="717" y="802" type="line" smooth="yes"/>
      <point x="735.865" y="912.172"/>
      <point x="635.846" y="1006"/>
      <point x="497" y="1006" type="qcurve" smooth="yes"/>
      <point x="385" y="1006" type="line" smooth="yes"/>
      <point x="247.663" y="1006"/>
      <point x="111.865" y="912.172"/>
      <point x="93" y="802" type="qcurve" smooth="yes"/>
    </contour>
    <contour>
      <point x="215.108" y="-435.347" type="qcurve" smooth="yes"/>
      <point x="295.769" y="-435.347"/>
      <point x="387.492" y="-338.312"/>
      <point x="387.492" y="-252.352" type="qcurve" smooth="yes"/>
      <point x="387.492" y="-174.688"/>
      <point x="311.73" y="-103.799"/>
      <point x="221.627" y="-104.853" type="qcurve"/>
      <point x="313.552" y="15.0363" type="line"/>
      <point x="295.26" y="14.9364" type="line"/>
      <point x="276.967" y="14.8365" type="line"/>
      <point x="162.083" y="-135.548" type="line"/>
      <point x="169.322" y="-133.683"/>
      <point x="187.739" y="-132.177"/>
      <point x="195.259" y="-132.835" type="qcurve" smooth="yes"/>
      <point x="218.057" y="-134.83"/>
      <point x="237.98" y="-170.302"/>
      <point x="237.98" y="-208.896" type="qcurve" smooth="yes"/>
      <point x="237.98" y="-281.51"/>
      <point x="182.416" y="-397.809"/>
      <point x="147.723" y="-397.809" type="qcurve" smooth="yes"/>
      <point x="134.778" y="-397.809"/>
      <point x="99.9883" y="-381.326"/>
      <point x="89.7114" y="-370.323" type="qcurve"/>
      <point x="73.8838" y="-386.866" type="line"/>
      <point x="97.6009" y="-409.389"/>
      <point x="173.216" y="-435.347"/>
    </contour>
  </outline>
  <guideline angle="0" x="0" y="25"/>
</glyph>
<glyph name="edieresis" format="2">
  <advance width="763"/>
  <unicode hex="00EB"/>
  <anchor x="509" y="1443" name="top"/>
  <anchor x="381.5" y="-150" name="bottom"/>
  <anchor x="347" y="0" name="ogonek"/>
  <outline>
    <contour>
      <point x="-3" y="254" type="line" smooth="yes"/>
      <point x="-27.1472" y="112.135"/>
      <point x="99.08" y="-6"/>
      <point x="250" y="-6" type="qcurve" smooth="yes"/>
      <point x="256" y="-6" type="line" smooth="yes"/>
      <point x="428.049" y="-6"/>
      <point x="594.853" y="113.644"/>
      <point x="619" y="254" type="qcurve" smooth="yes"/>
      <point x="620" y="260" type="line"/>
      <point x="380" y="304" type="line"/>
      <point x="332" y="26" type="line"/>
      <point x="332" y="26"/>
      <point x="332" y="26"/>
      <point x="332" y="26" type="qcurve"/>
      <point x="206" y="26" type="line"/>
      <point x="206" y="26"/>
      <point x="206" y="26"/>
      <point x="206" y="26" type="qcurve"/>
      <point x="286" y="488" type="line"/>
      <point x="660" y="488" type="line"/>
      <point x="711" y="782" type="line" smooth="yes"/>
      <point x="730.62" y="890.662"/>
      <point x="616.337" y="1006"/>
      <point x="479" y="1006" type="qcurve" smooth="yes"/>
      <point x="399" y="1006" type="line" smooth="yes"/>
      <point x="261.663" y="1006"/>
      <point x="108.865" y="893.153"/>
      <point x="90" y="786" type="qcurve" smooth="yes"/>
    </contour>
    <contour>
      <point x="292" y="520" type="line"/>
      <point x="371" y="974" type="line"/>
      <point x="371" y="974"/>
      <point x="371" y="974"/>
      <point x="371" y="974" type="qcurve"/>
      <point x="497" y="974" type="line"/>
      <point x="497" y="974"/>
      <point x="497" y="974"/>
      <point x="497" y="974" type="qcurve"/>
      <point x="418" y="520" type="line"/>
    </contour>
    <contour>
      <point x="272" y="1120" type="qcurve" smooth="yes"/>
      <point x="312" y="1120" type="line" smooth="yes"/>
      <point x="378.405" y="1120"/>
      <point x="405.681" y="1143.6"/>
      <point x="417" y="1210" type="qcurve" smooth="yes"/>
      <point x="428" y="1272" type="line" smooth="yes"/>
      <point x="440.074" y="1336.9"/>
      <point x="420.405" y="1360"/>
      <point x="354" y="1360" type="qcurve" smooth="yes"/>
      <point x="314" y="1360" type="line" smooth="yes"/>
      <point x="247.595" y="1360"/>
      <point x="220.074" y="1336.9"/>
      <point x="208" y="1272" type="qcurve" smooth="yes"/>
      <point x="197" y="1210" type="line" smooth="yes"/>
      <point x="185.681" y="1143.6"/>
      <point x="205.595" y="1120"/>
    </contour>
    <contour>
      <point x="592" y="1120" type="qcurve" smooth="yes"/>
      <point x="632" y="1120" type="line" smooth="yes"/>
      <point x="698.405" y="1120"/>
      <point x="725.681" y="1143.6"/>
      <point x="737" y="1210" type="qcurve" smooth="yes"/>
      <point x="748" y="1272" type="line" smooth="yes"/>
      <point x="760.074" y="1336.9"/>
      <point x="740.405" y="1360"/>
      <point x="674" y="1360" type="qcurve" smooth="yes"/>
      <point x="634" y="1360" type="line" smooth="yes"/>
      <point x="567.595" y="1360"/>
      <point x="540.074" y="1336.9"/>
      <point x="528" y="1272" type="qcurve" smooth="yes"/>
      <point x="517" y="1210" type="line" smooth="yes"/>
      <point x="505.681" y="1143.6"/>
      <point x="525.595" y="1120"/>
    </contour>
  </outline>
  <guideline angle="0" color="1,0,0,1" x="0" y="-1006"/>
</glyph>
<glyph name="igrave" format="2">
  <advance width="416"/>
  <unicode hex="00EC"/>
  <anchor x="63" y="-150" name="bottom"/>
  <anchor x="290" y="1150" name="top"/>
  <anchor x="0" y="0" name="ogonek"/>
  <outline>
    <contour>
      <point x="-33" y="0" type="line"/>
      <point x="211" y="0" type="line"/>
      <point x="386" y="1000" type="line"/>
      <point x="142" y="1000" type="line"/>
    </contour>
    <contour>
      <point x="368" y="1085" type="line"/>
      <point x="273" y="1400" type="line"/>
      <point x="67" y="1400" type="line"/>
      <point x="333" y="1085" type="line"/>
    </contour>
  </outline>
</glyph>
<glyph name="icircumflex" format="2">
  <advance width="416"/>
  <unicode hex="00EE"/>
  <anchor x="63" y="-150" name="bottom"/>
  <anchor x="352" y="1500" name="top"/>
  <anchor x="-33" y="0" name="ogonek"/>
  <anchor x="523" y="1238" name="topright"/>
  <outline>
    <contour>
      <point x="-33" y="0" type="line"/>
      <point x="211" y="0" type="line"/>
      <point x="386" y="1000" type="line"/>
      <point x="142" y="1000" type="line"/>
    </contour>
    <contour>
      <point x="59" y="1075" type="line"/>
      <point x="95" y="1075" type="line"/>
      <point x="246" y="1355" type="line"/>
      <point x="300" y="1075" type="line"/>
      <point x="494" y="1075" type="line"/>
      <point x="406" y="1400" type="line"/>
      <point x="236" y="1400" type="line"/>
    </contour>
  </outline>
</glyph>
<glyph name="idieresis" format="2">
  <advance width="416"/>
  <unicode hex="00EF"/>
  <anchor x="63" y="-150" name="bottom"/>
  <anchor x="342" y="1443" name="top"/>
  <anchor x="-33" y="0" name="ogonek"/>
  <outline>
    <contour>
      <point x="-33" y="0" type="line"/>
      <point x="211" y="0" type="line"/>
      <point x="386" y="1000" type="line"/>
      <point x="142" y="1000" type="line"/>
    </contour>
    <contour>
      <point x="105" y="1120" type="qcurve" smooth="yes"/>
      <point x="145" y="1120" type="line" smooth="yes"/>
      <point x="211" y="1120"/>
      <point x="239" y="1144"/>
      <point x="250" y="1210" type="qcurve" smooth="yes"/>
      <point x="261" y="1272" type="line" smooth="yes"/>
      <point x="273" y="1337"/>
      <point x="253" y="1360"/>
      <point x="187" y="1360" type="qcurve" smooth="yes"/>
      <point x="147" y="1360" type="line" smooth="yes"/>
      <point x="81" y="1360"/>
      <point x="53" y="1337"/>
      <point x="41" y="1272" type="qcurve" smooth="yes"/>
      <point x="30" y="1210" type="line" smooth="yes"/>
      <point x="19" y="1144"/>
      <point x="39" y="1120"/>
    </contour>
    <contour>
      <point x="425" y="1120" type="qcurve" smooth="yes"/>
      <point x="465" y="1120" type="line" smooth="yes"/>
      <point x="531" y="1120"/>
      <point x="559" y="1144"/>
      <point x="570" y="1210" type="qcurve" smooth="yes"/>
      <point x="581" y="1272" type="line" smooth="yes"/>
      <point x="593" y="1337"/>
      <point x="573" y="1360"/>
      <point x="507" y="1360" type="qcurve" smooth="yes"/>
      <point x="467" y="1360" type="line" smooth="yes"/>
      <point x="401" y="1360"/>
      <point x="373" y="1337"/>
      <point x="361" y="1272" type="qcurve" smooth="yes"/>
      <point x="350" y="1210" type="line" smooth="yes"/>
      <point x="339" y="1144"/>
      <point x="359" y="1120"/>
    </contour>
  </outline>
</glyph>
<glyph name="eth" format="2">
  <advance width="841"/>
  <unicode hex="00F0"/>
  <outline>
    <contour>
      <point x="207" y="-6" type="qcurve" smooth="yes"/>
      <point x="329" y="-6" type="line" smooth="yes"/>
      <point x="469" y="-6"/>
      <point x="602" y="92"/>
      <point x="622" y="208" type="qcurve" smooth="yes"/>
      <point x="710" y="710" type="line" smooth="yes"/>
      <point x="739" y="874"/>
      <point x="737" y="1121"/>
      <point x="702" y="1217" type="qcurve"/>
      <point x="871" y="1258" type="line"/>
      <point x="869" y="1287" type="line"/>
      <point x="692" y="1244" type="line"/>
      <point x="663" y="1310"/>
      <point x="570" y="1416"/>
      <point x="502" y="1458" type="qcurve"/>
      <point x="327" y="1398" type="line"/>
      <point x="379" y="1356"/>
      <point x="448" y="1254"/>
      <point x="467" y="1188" type="qcurve"/>
      <point x="277" y="1142" type="line"/>
      <point x="279" y="1113" type="line"/>
      <point x="474" y="1161" type="line"/>
      <point x="486" y="1107"/>
      <point x="492" y="981"/>
      <point x="486" y="906" type="qcurve"/>
      <point x="366" y="906" type="line" smooth="yes"/>
      <point x="229" y="906"/>
      <point x="94" y="811"/>
      <point x="75" y="702" type="qcurve" smooth="yes"/>
      <point x="-12" y="208" type="line" smooth="yes"/>
      <point x="-32" y="92"/>
      <point x="68" y="-6"/>
    </contour>
    <contour>
      <point x="484" y="874" type="line"/>
      <point x="479" y="832"/>
      <point x="467" y="741"/>
      <point x="458" y="690" type="qcurve" smooth="yes"/>
      <point x="343" y="26" type="line"/>
      <point x="343" y="26"/>
      <point x="343" y="26"/>
      <point x="343" y="26" type="qcurve"/>
      <point x="205" y="26" type="line"/>
      <point x="205" y="26"/>
      <point x="205" y="26"/>
      <point x="205" y="26" type="qcurve"/>
      <point x="353" y="874" type="line"/>
      <point x="353" y="874"/>
      <point x="353" y="874"/>
      <point x="353" y="874" type="qcurve"/>
    </contour>
  </outline>
</glyph>
<glyph name="ntilde" format="2">
  <advance width="785"/>
  <unicode hex="00F1"/>
  <anchor x="529" y="1440" name="top"/>
  <anchor x="251" y="-150" name="bottom"/>
  <outline>
    <contour>
      <point x="-33" y="0" type="line"/>
      <point x="215" y="0" type="line"/>
      <point x="385" y="974" type="line"/>
      <point x="509" y="974" type="line"/>
      <point x="509" y="974"/>
      <point x="509" y="974"/>
      <point x="509" y="974" type="qcurve"/>
      <point x="339" y="0" type="line"/>
      <point x="587" y="0" type="line"/>
      <point x="731" y="824" type="line" smooth="yes"/>
      <point x="745.25" y="905"/>
      <point x="667.5" y="1006"/>
      <point x="591" y="1006" type="qcurve" smooth="yes"/>
      <point x="467" y="1006" type="line" smooth="yes"/>
      <point x="439.834" y="1006"/>
      <point x="398.828" y="991.583"/>
      <point x="386" y="978" type="qcurve"/>
      <point x="390" y="1000" type="line"/>
      <point x="142" y="1000" type="line"/>
    </contour>
    <contour>
      <point x="263" y="1133" type="qcurve"/>
      <point x="292" y="1128" type="line"/>
      <point x="297.282" y="1142.34"/>
      <point x="325.061" y="1173"/>
      <point x="356" y="1173" type="qcurve" smooth="yes"/>
      <point x="374" y="1173"/>
      <point x="424.219" y="1154.56"/>
      <point x="481.031" y="1132.44"/>
      <point x="540.625" y="1114"/>
      <point x="568" y="1114" type="qcurve" smooth="yes"/>
      <point x="635.5" y="1114"/>
      <point x="698.75" y="1226.75"/>
      <point x="725" y="1316" type="qcurve"/>
      <point x="696" y="1321" type="line"/>
      <point x="690.718" y="1306.66"/>
      <point x="662.939" y="1276"/>
      <point x="632" y="1276" type="qcurve" smooth="yes"/>
      <point x="614" y="1276"/>
      <point x="560.938" y="1294.44"/>
      <point x="502.062" y="1316.56"/>
      <point x="443" y="1335"/>
      <point x="419" y="1335" type="qcurve" smooth="yes"/>
      <point x="351.5" y="1335"/>
      <point x="289.25" y="1222.25"/>
    </contour>
  </outline>
  <guideline angle="0" x="0" y="988"/>
  <guideline angle="0" x="0" y="870"/>
</glyph>
